<svg width="18" height="16" viewBox="0 0 18 16" fill="none" xmlns="http://www.w3.org/2000/svg">
<path d="M5 6.01096C4.30964 6.01096 3.75 6.59548 3.75 7.31652C3.75 8.03756 4.30964 8.62208 5 8.62208C5.69036 8.62208 6.25 8.03756 6.25 7.31652C6.25 6.59548 5.69036 6.01096 5 6.01096Z" fill="#706666"/>
<path d="M9 6.01096C8.30964 6.01096 7.75 6.59548 7.75 7.31652C7.75 8.03756 8.30964 8.62208 9 8.62208C9.69036 8.62208 10.25 8.03756 10.25 7.31652C10.25 6.59548 9.69036 6.01096 9 6.01096Z" fill="#706666"/>
<path d="M11.75 7.31652C11.75 6.59548 12.3096 6.01096 13 6.01096C13.6904 6.01096 14.25 6.59548 14.25 7.31652C14.25 8.03756 13.6904 8.62208 13 8.62208C12.3096 8.62208 11.75 8.03756 11.75 7.31652Z" fill="#706666"/>
<path fill-rule="evenodd" clip-rule="evenodd" d="M13.1007 0.885657C10.4065 0.645686 7.69826 0.63176 5.00194 0.844012L4.80871 0.859223C2.23741 1.06163 0.25 3.2997 0.25 5.9929V14.8887C0.25 15.1643 0.388666 15.4197 0.615148 15.5611C0.841631 15.7025 1.12261 15.7092 1.35504 15.5787L5.26583 13.3836C5.44774 13.2815 5.65104 13.2281 5.85756 13.2281H14.834C15.9661 13.2281 16.9362 12.3827 17.1392 11.2195C17.5505 8.86191 17.5829 6.44927 17.2353 4.08057L17.1329 3.38254C16.9464 2.11171 15.951 1.13953 14.7245 1.03028L13.1007 0.885657ZM5.11468 2.40625C7.73103 2.20029 10.359 2.2138 12.9733 2.44666L14.597 2.59128C15.1334 2.63906 15.5686 3.06419 15.6502 3.61991L15.7526 4.31794C16.075 6.5147 16.0449 8.75221 15.6635 10.9386C15.5904 11.3572 15.2413 11.6614 14.834 11.6614H5.85756C5.40322 11.6614 4.95596 11.779 4.55575 12.0036L1.75 13.5785V5.9929C1.75 4.11927 3.13262 2.56227 4.92144 2.42146L5.11468 2.40625Z" fill="#706666"/>
</svg>
