<svg width="18" height="20" viewBox="0 0 18 20" fill="none" xmlns="http://www.w3.org/2000/svg">
<path fill-rule="evenodd" clip-rule="evenodd" d="M11.3851 13.4209C8.73488 15.6379 4.85544 15.4634 2.39866 12.8975C-0.237379 10.1443 -0.237379 5.68046 2.39866 2.92726C5.0347 0.174066 9.30856 0.174067 11.9446 2.92726C14.4014 5.49324 14.5685 9.54508 12.4458 12.3131L17.6014 17.6979C17.8943 18.0038 17.8943 18.4998 17.6014 18.8057C17.3085 19.1116 16.8337 19.1116 16.5408 18.8057L11.3851 13.4209ZM3.45932 11.7897C1.40907 9.64829 1.40907 6.17644 3.45932 4.03506C5.50957 1.89369 8.83369 1.89369 10.8839 4.03506C12.9327 6.17487 12.9342 9.6432 10.8885 11.785C10.8869 11.7865 10.8854 11.7881 10.8839 11.7896C10.8824 11.7912 10.8809 11.7928 10.8794 11.7944C8.82882 13.931 5.50807 13.9295 3.45932 11.7897Z" fill="#D40000"/>
</svg>
