<svg width="32" height="32" viewBox="0 0 32 32" fill="none" xmlns="http://www.w3.org/2000/svg">
<path fill-rule="evenodd" clip-rule="evenodd" d="M10.9278 23.9225C10.9059 23.771 10.8727 23.6279 10.8304 23.4931L17.3451 23.4932C18.0141 23.4932 20.113 23.4932 20.113 23.4932L22.2135 26.8879C23.2597 28.6148 25.4947 29.15 27.2173 28.1928C28.9315 27.2402 29.6131 25.1005 28.6777 23.3437C30.1771 22.9071 31.3337 21.5559 31.3337 19.8547C31.3337 17.7735 29.6028 16.2165 27.6312 16.2165H24.3803L21.022 10.9279C21.0109 10.9104 20.9995 10.8931 20.9879 10.876C20.7882 10.5821 20.4448 10.2136 19.9155 10.0074L21.4265 7.48887C22.4977 5.7033 21.8286 3.45682 20.0596 2.4738C18.7545 1.74852 17.1553 1.88028 16.0019 2.73764C14.8481 1.87809 13.247 1.74604 11.941 2.47154C10.1717 3.45444 9.50309 5.70138 10.5743 7.48672L11.7029 9.36795L7.59452 16.2164H4.3694C2.39761 16.2164 0.666992 17.7737 0.666992 19.8547C0.666992 21.5563 1.82401 22.9077 3.32384 23.344C2.38706 25.1011 3.06856 27.2421 4.78352 28.1952C6.49636 29.1468 8.71611 28.6229 9.76962 26.9186L10.4087 25.9478C10.6993 25.522 10.8328 25.1002 10.8942 24.7827C10.9258 24.6189 10.9399 24.475 10.9455 24.3597C10.9484 24.3016 10.9491 24.2497 10.9487 24.2047C10.9486 24.1934 10.9478 24.1983 10.9469 24.2035C10.9461 24.2087 10.9452 24.2142 10.9449 24.2047C10.9439 24.1893 10.9428 24.1653 10.9416 24.1373C10.9382 24.0636 10.9336 23.9627 10.9278 23.9225ZM8.08043 25.8472L8.74962 24.8306C8.96695 24.5197 8.94841 24.2089 8.94841 24.2089C8.81172 23.2641 6.92288 23.0668 6.92288 23.0668C6.12023 22.9938 5.71898 23.382 5.55639 23.6069L5.13174 24.2089C4.66162 24.9925 4.94075 25.9945 5.75488 26.4469C6.56915 26.8993 7.61032 26.6308 8.08043 25.8472ZM23.6152 18.2165H27.6312C28.5715 18.2165 29.3337 18.9499 29.3337 19.8547C29.3337 20.7596 28.5715 21.4931 27.6312 21.4931H25.6026C25.2964 21.4938 25.3467 21.6575 25.3757 21.7178L26.8688 24.2066C27.339 24.9902 27.0599 25.9922 26.2458 26.4446C25.4314 26.8972 24.3902 26.6286 23.9202 25.8451L18.6727 17.3648C18.3539 16.7557 17.4389 14.7409 18.2401 12.9686C18.2401 12.9686 18.9111 11.3781 19.3337 12L23.1723 18.0452L23.1753 18.0501C23.2223 18.1048 23.3417 18.1988 23.6152 18.2165ZM17.3451 21.4932C18.1745 21.4932 17.9602 20.4438 17.9602 20.4438C17.6339 18.2913 15.2447 18.2168 15.2447 18.2168L12.9645 18.2164C12.7389 18.197 12.7482 18.0865 12.7785 18.0162L19.7114 6.45996C20.1815 5.67634 19.9026 4.6745 19.0883 4.22208C18.274 3.76951 17.2328 4.03813 16.7627 4.82162L16.001 6.09137L15.2379 4.81936C14.7678 4.03573 13.7266 3.76739 12.9124 4.21981C12.0981 4.67209 11.8191 5.67421 12.2892 6.4577L13.9347 9.2004C13.9478 9.22433 14.0249 9.37599 13.9341 9.53642L8.95194 17.8414L8.94841 17.8397C8.94841 17.8397 8.80245 18.1821 8.18622 18.2164H4.3694C3.42918 18.2164 2.66699 18.9499 2.66699 19.8547C2.66699 20.7596 3.42918 21.4931 4.3694 21.4931L17.3451 21.4932Z" fill="white"/>
</svg>
