<svg width="16" height="16" viewBox="0 0 16 16" fill="none" xmlns="http://www.w3.org/2000/svg">
<path d="M7.33333 5.33366H8.66667V9.33366H7.33333V5.33366ZM8 13.3337C5.42 13.3337 3.33333 11.247 3.33333 8.66699C3.33333 6.08699 5.42 4.00033 8 4.00033C10.58 4.00033 12.6667 6.08699 12.6667 8.66699C13.1333 8.66699 13.5733 8.75366 14 8.90033V8.66699C14 7.25366 13.5067 5.95366 12.6867 4.92699L13.6333 3.98033C13.3333 3.64033 13.0333 3.33366 12.6933 3.04033L11.7467 4.00033C10.7133 3.16033 9.41333 2.66699 8 2.66699C6.4087 2.66699 4.88258 3.29913 3.75736 4.42435C2.63214 5.54957 2 7.07569 2 8.66699C2 10.2583 2.63214 11.7844 3.75736 12.9096C4.88258 14.0349 6.4087 14.667 8 14.667C8.39333 14.667 8.77333 14.627 9.14 14.5537C8.93333 14.167 8.78667 13.7337 8.72 13.2737C8.48 13.307 8.24667 13.3337 8 13.3337ZM10 0.666992H6V2.00033H10V0.666992ZM11 11.0003V14.3337H14.3333V11.0003H11Z" fill="#A19D9A"/>
</svg>
