<svg width="32" height="32" viewBox="0 0 32 32" fill="none" xmlns="http://www.w3.org/2000/svg">
<path fill-rule="evenodd" clip-rule="evenodd" d="M6.66667 1.66669C4.64162 1.66669 3 3.30831 3 5.33335C3 7.3584 4.64162 9.00002 6.66667 9.00002C8.69171 9.00002 10.3333 7.3584 10.3333 5.33335C10.3333 3.30831 8.69171 1.66669 6.66667 1.66669ZM5 5.33335C5 4.41288 5.74619 3.66669 6.66667 3.66669C7.58714 3.66669 8.33333 4.41288 8.33333 5.33335C8.33333 6.25383 7.58714 7.00002 6.66667 7.00002C5.74619 7.00002 5 6.25383 5 5.33335Z" fill="white"/>
<path fill-rule="evenodd" clip-rule="evenodd" d="M3 10.6667C3 10.1144 3.44772 9.66669 4 9.66669H9.33333C9.88562 9.66669 10.3333 10.1144 10.3333 10.6667V28C10.3333 28.5523 9.88562 29 9.33333 29H4C3.44772 29 3 28.5523 3 28V10.6667ZM5 11.6667V27H8.33333V11.6667H5Z" fill="white"/>
<path fill-rule="evenodd" clip-rule="evenodd" d="M12.3333 10.6667C12.3333 10.1144 12.781 9.66669 13.3333 9.66669H18.6667C19.219 9.66669 19.6667 10.1144 19.6667 10.6667V11.2454L20.247 10.9967C21.2448 10.569 22.3118 10.3009 23.391 10.2028C27.0909 9.86642 30.3333 12.7739 30.3333 16.507V28C30.3333 28.5523 29.8856 29 29.3333 29H24C23.4477 29 23 28.5523 23 28V18.6667C23 18.2247 22.8244 17.8007 22.5118 17.4882C22.1993 17.1756 21.7754 17 21.3333 17C20.8913 17 20.4674 17.1756 20.1548 17.4882C19.8423 17.8007 19.6667 18.2247 19.6667 18.6667V28C19.6667 28.5523 19.219 29 18.6667 29H13.3333C12.781 29 12.3333 28.5523 12.3333 28V10.6667ZM14.3333 11.6667V27H17.6667V18.6667C17.6667 17.6942 18.053 16.7616 18.7406 16.074C19.4282 15.3863 20.3609 15 21.3333 15C22.3058 15 23.2384 15.3863 23.9261 16.074C24.6137 16.7616 25 17.6942 25 18.6667V27H28.3333V16.507C28.3333 13.9678 26.1187 11.963 23.5721 12.1946C22.7 12.2738 21.8379 12.4908 21.0349 12.8349L19.0606 13.6811C18.7516 13.8135 18.3968 13.7818 18.1162 13.5968C17.8356 13.4117 17.6667 13.0981 17.6667 12.7619V11.6667H14.3333Z" fill="white"/>
</svg>
