<svg width="24" height="22" viewBox="0 0 24 22" fill="none" xmlns="http://www.w3.org/2000/svg">
<path d="M17.6458 4.10216e-05C14.1458 0.012541 11.3333 2.89587 11.3333 6.39587V9.33337H2C0.895833 9.33337 0 10.2292 0 11.3334V19.3334C0 20.4375 0.895833 21.3334 2 21.3334H16.6667C17.7708 21.3334 18.6667 20.4375 18.6667 19.3334V11.3334C18.6667 10.2292 17.7708 9.33337 16.6667 9.33337H14.6667V6.37087C14.6667 4.72087 15.9875 3.35004 17.6375 3.33337C19.3042 3.31671 20.6667 4.67087 20.6667 6.33337V9.66671C20.6667 10.2209 21.1125 10.6667 21.6667 10.6667H23C23.5542 10.6667 24 10.2209 24 9.66671V6.33337C24 2.83337 21.1458 -0.012459 17.6458 4.10216e-05Z" fill="#898989"/>
</svg>
