<svg width="32" height="32" viewBox="0 0 32 32" fill="none" xmlns="http://www.w3.org/2000/svg">
<path fill-rule="evenodd" clip-rule="evenodd" d="M13.8477 11.1425C13.5387 10.9571 13.154 10.9523 12.8405 11.1298C12.527 11.3073 12.3332 11.6397 12.3332 12V20C12.3332 20.3603 12.527 20.6927 12.8405 20.8702C13.154 21.0477 13.5387 21.0429 13.8477 20.8575L20.5143 16.8575C20.8155 16.6768 20.9998 16.3513 20.9998 16C20.9998 15.6487 20.8155 15.3232 20.5143 15.1425L13.8477 11.1425ZM18.0562 16L14.3332 18.2338V13.7662L18.0562 16Z" fill="white"/>
<path fill-rule="evenodd" clip-rule="evenodd" d="M22.7074 6.18837C18.2425 5.83906 13.7572 5.83906 9.29235 6.18837L6.30475 6.42211C4.48799 6.56424 3.00174 7.92585 2.70143 9.72324C2.00708 13.8789 2.00708 18.1211 2.70143 22.2768C3.00174 24.0741 4.48799 25.4358 6.30475 25.5779L9.29235 25.8116C13.7572 26.1609 18.2425 26.1609 22.7074 25.8116L25.695 25.5779C27.5118 25.4358 28.998 24.0741 29.2983 22.2768C29.9927 18.1211 29.9927 13.8789 29.2983 9.72324C28.998 7.92585 27.5118 6.56424 25.695 6.42211L22.7074 6.18837ZM9.44834 8.18228C13.8094 7.8411 18.1904 7.8411 22.5514 8.18228L25.539 8.41602C26.4398 8.48649 27.1768 9.16163 27.3257 10.0528C27.9836 13.9903 27.9836 18.0097 27.3257 21.9472C27.1768 22.8384 26.4398 23.5135 25.539 23.584L22.5514 23.8177C18.1904 24.1589 13.8094 24.1589 9.44834 23.8177L6.46074 23.584C5.55993 23.5135 4.82299 22.8384 4.67408 21.9472C4.01619 18.0097 4.01619 13.9903 4.67408 10.0528C4.82299 9.16163 5.55993 8.48649 6.46074 8.41602L9.44834 8.18228Z" fill="white"/>
</svg>
