<svg width="32" height="32" viewBox="0 0 32 32" fill="none" xmlns="http://www.w3.org/2000/svg">
<path fill-rule="evenodd" clip-rule="evenodd" d="M13.9833 5.05025C15.296 3.7375 17.0765 3 18.933 3H22.533C23.0853 3 23.533 3.44772 23.533 4V8.8C23.533 9.35228 23.0853 9.8 22.533 9.8H18.933C18.88 9.8 18.8291 9.82107 18.7916 9.85858C18.7541 9.89609 18.733 9.94696 18.733 10V12.6H22.533C22.8409 12.6 23.1317 12.7419 23.3212 12.9846C23.5107 13.2273 23.5778 13.5438 23.5031 13.8425L22.3032 18.6425C22.1919 19.0877 21.7919 19.4 21.333 19.4H18.733V28C18.733 28.5523 18.2853 29 17.733 29H12.933C12.3807 29 11.933 28.5523 11.933 28V19.4H9.33301C8.78072 19.4 8.33301 18.9523 8.33301 18.4V13.6C8.33301 13.0477 8.78072 12.6 9.33301 12.6H11.933V10C11.933 8.14348 12.6705 6.36301 13.9833 5.05025ZM18.933 5C17.6069 5 16.3352 5.52678 15.3975 6.46447C14.4598 7.40215 13.933 8.67392 13.933 10V13.6C13.933 14.1523 13.4853 14.6 12.933 14.6H10.333V17.4H12.933C13.4853 17.4 13.933 17.8477 13.933 18.4V27H16.733V18.4C16.733 17.8477 17.1807 17.4 17.733 17.4H20.5522L21.2522 14.6H17.733C17.1807 14.6 16.733 14.1523 16.733 13.6V10C16.733 9.41652 16.9648 8.85695 17.3774 8.44437C17.79 8.03179 18.3495 7.8 18.933 7.8H21.533V5H18.933Z" fill="white"/>
</svg>
