<svg width="266" height="266" viewBox="0 0 266 266" fill="none" xmlns="http://www.w3.org/2000/svg">
<path d="M152.897 75.411L152.099 81.263L156.887 82.859L157.419 79.933C157.403 79.9197 154.474 72.1099 152.897 75.411Z" fill="white" stroke="#070707" stroke-width="1.43" stroke-miterlimit="10"/>
<path d="M151.687 66.8671L153.695 79.933H157.685L156.089 68.761L151.687 66.8671Z" fill="white" stroke="#070707" stroke-width="1.43" stroke-miterlimit="10"/>
<path d="M114.715 114.175H161.462C161.462 114.175 153.694 130.582 134.199 132.633C114.704 134.684 114.704 153.838 114.704 153.838L114.715 114.175Z" fill="#BE7880" stroke="#070707" stroke-width="1.1" stroke-miterlimit="10"/>
<path d="M134.221 90.7805C134.221 90.7805 151.963 105.522 152.195 103.886C152.426 102.25 151.783 80.9597 151.783 80.9597L158.499 80.3134L163.133 118.947L132.011 108.065" fill="#56627B"/>
<path d="M134.221 90.7805C134.221 90.7805 151.963 105.522 152.195 103.886C152.426 102.25 151.783 80.9597 151.783 80.9597L158.499 80.3134L163.133 118.947L132.011 108.065" stroke="#070707" stroke-width="1.06" stroke-miterlimit="10"/>
<path d="M41.9752 177.23C45.3968 177.23 48.6782 178.59 51.0976 181.009C53.517 183.428 54.8762 186.71 54.8762 190.131V253.583H29.0742V190.131C29.0742 186.71 30.4334 183.428 32.8528 181.009C35.2722 178.59 38.5537 177.23 41.9752 177.23Z" fill="#BF6C2B" stroke="#070707" stroke-width="1.22" stroke-miterlimit="10"/>
<path d="M39.8472 177.289C39.8472 177.289 34.7932 179.417 39.0492 192.451C43.3052 205.485 38.2512 213.731 35.5912 220.115C32.9312 226.499 36.7616 253.655 36.7616 253.655L29.0742 253.498L29.1514 189.065C29.1514 189.065 28.4092 181.545 39.0492 177.289" fill="#070707"/>
<path d="M135.873 165.319C135.873 165.319 156.355 167.979 156.887 189.791C156.887 189.791 140.927 193.781 135.873 165.319Z" fill="white" stroke="#070707" stroke-width="1.1" stroke-miterlimit="10"/>
<path d="M156.621 189.525C156.621 189.525 172.581 193.515 177.635 165.053C177.635 165.053 157.153 167.713 156.621 189.525Z" fill="white" stroke="#070707" stroke-width="1.1" stroke-miterlimit="10"/>
<path d="M156.645 149.965V253.764" stroke="#070707" stroke-width="0.87" stroke-miterlimit="10"/>
<path d="M157.009 155.243C159.924 155.243 162.286 152.88 162.286 149.965C162.286 147.051 159.924 144.688 157.009 144.688C154.094 144.688 151.731 147.051 151.731 149.965C151.731 152.88 154.094 155.243 157.009 155.243Z" fill="#BF6C2B" stroke="#070707" stroke-width="1.1" stroke-miterlimit="10"/>
<path d="M157.009 159.933C162.514 159.933 166.976 155.47 166.976 149.966C166.976 144.461 162.514 139.998 157.009 139.998C151.504 139.998 147.042 144.461 147.042 149.966C147.042 155.47 151.504 159.933 157.009 159.933Z" stroke="#070707" stroke-miterlimit="10"/>
<path d="M155.467 144.983C155.467 144.983 152.365 153.083 159.015 154.679C159.015 154.679 155.804 156.892 151.955 151.929C151.955 151.929 150.322 146.989 155.467 144.983Z" fill="#070707"/>
<path d="M114.761 105.809V253.764" stroke="#070707" stroke-width="1.23" stroke-miterlimit="10"/>
<path d="M114.715 114.175H67.9551C67.9551 114.175 75.7223 130.582 95.2174 132.633C114.713 134.684 114.715 153.838 114.715 153.838V114.175Z" fill="#BE7880" stroke="#070707" stroke-width="1.1" stroke-miterlimit="10"/>
<path d="M82.46 116.657C82.46 116.657 82.8989 124.717 97.8507 126.765C112.803 128.813 114.71 140.501 114.71 140.501V114.167H82.7206L82.46 116.657Z" fill="#BF6C2B" stroke="#070707" stroke-width="1.1" stroke-miterlimit="10"/>
<path d="M146.962 116.657C146.962 116.657 146.523 124.717 131.571 126.765C116.619 128.813 114.715 140.501 114.715 140.501V114.167H146.701L146.962 116.657Z" fill="#BF6C2B" stroke="#070707" stroke-width="1.1" stroke-miterlimit="10"/>
<path d="M114.715 111.087C117.63 111.087 119.992 108.724 119.992 105.809C119.992 102.895 117.63 100.532 114.715 100.532C111.8 100.532 109.438 102.895 109.438 105.809C109.438 108.724 111.8 111.087 114.715 111.087Z" fill="#BF6C2B" stroke="#070707" stroke-width="1.1" stroke-miterlimit="10"/>
<path d="M114.715 115.777C120.22 115.777 124.682 111.314 124.682 105.809C124.682 100.305 120.22 95.8425 114.715 95.8425C109.21 95.8425 104.748 100.305 104.748 105.809C104.748 111.314 109.21 115.777 114.715 115.777Z" stroke="#070707" stroke-width="2.08" stroke-miterlimit="10"/>
<path d="M105.785 136.304C105.785 136.304 114.031 130.101 123.644 136.304C118.697 140.308 115.462 146.048 114.6 152.354C114.6 152.354 112.741 140.624 105.785 136.304Z" fill="#070707"/>
<path d="M110.201 103.072C110.201 103.072 111.837 111.755 119.777 107.312C119.777 107.312 118.774 111.01 114.763 111.124C114.758 111.124 107.134 110.148 110.201 103.072Z" fill="#070707"/>
<path d="M71.1016 41.363C79.7437 41.363 88.0318 44.796 94.1427 50.9069C100.254 57.0178 103.687 65.3059 103.687 73.948V253.631H38.5166V73.948C38.5166 65.3059 41.9497 57.0178 48.0605 50.9069C54.1714 44.796 62.4595 41.363 71.1016 41.363Z" fill="white" stroke="#070707" stroke-width="1.05" stroke-miterlimit="10"/>
<path d="M205.698 60.781C214.34 60.781 222.628 64.2141 228.739 70.3249C234.85 76.4358 238.283 84.7239 238.283 93.366V253.631H173.113V93.366C173.113 89.0869 173.956 84.8497 175.594 80.8963C177.231 76.9429 179.631 73.3507 182.657 70.3249C185.683 67.2991 189.275 64.8989 193.229 63.2614C197.182 61.6238 201.419 60.781 205.698 60.781Z" fill="white" stroke="#070707" stroke-miterlimit="10"/>
<path d="M37.04 253.692H237.713" stroke="#070707" stroke-width="1.1" stroke-miterlimit="10"/>
<path d="M231.67 253.764V141.251" stroke="#070707" stroke-width="1.23" stroke-miterlimit="10"/>
<path d="M209.911 127.582L231.321 156.232L231.853 178.638L213.481 156.608L209.911 127.582Z" fill="#BF6C2B" stroke="#070707" stroke-width="1.22" stroke-miterlimit="10"/>
<path d="M213.489 156.621C213.489 156.621 231.721 182.021 231.277 156.227L231.899 178.571L213.489 156.621Z" fill="#070707"/>
<path d="M185.048 253.812V181.766" stroke="#070707" stroke-width="1.1" stroke-miterlimit="10"/>
<path d="M166.316 171.36L185.048 197.614L185.08 217.825L168.955 197.598L166.316 171.36Z" fill="#BF6C2B" stroke="#070707" stroke-width="1.1" stroke-miterlimit="10"/>
<path d="M168.963 197.609C168.963 197.609 184.891 220.873 185.005 197.609L185.12 217.78L168.963 197.609Z" fill="#070707"/>
<path d="M221.171 91.2327V253.378" stroke="#070707" stroke-width="1.1" stroke-miterlimit="10"/>
<path d="M203.142 97.5342L221.171 120.256L244.185 97.2416" stroke="#070707" stroke-width="1.1" stroke-miterlimit="10"/>
<path d="M201.306 85.1519L221.171 105.017L241.035 85.1519" stroke="#070707" stroke-width="1.1" stroke-miterlimit="10"/>
<path d="M187.211 192.185C187.211 192.185 207.693 194.845 208.225 216.657C208.225 216.657 192.265 220.647 187.211 192.185Z" fill="white" stroke="#070707" stroke-width="1.1" stroke-miterlimit="10"/>
<path d="M207.959 216.391C207.959 216.391 223.919 220.381 228.973 191.919C228.973 191.919 208.491 194.579 207.959 216.391Z" fill="white" stroke="#070707" stroke-width="1.1" stroke-miterlimit="10"/>
<path d="M207.9 176.831V254.296" stroke="#070707" stroke-width="1.1" stroke-miterlimit="10"/>
<path d="M208.347 182.109C211.261 182.109 213.624 179.746 213.624 176.832C213.624 173.917 211.261 171.554 208.347 171.554C205.432 171.554 203.069 173.917 203.069 176.832C203.069 179.746 205.432 182.109 208.347 182.109Z" fill="#BF6C2B" stroke="#070707" stroke-width="1.1" stroke-miterlimit="10"/>
<path d="M208.347 186.798C213.852 186.798 218.314 182.336 218.314 176.831C218.314 171.327 213.852 166.864 208.347 166.864C202.842 166.864 198.38 171.327 198.38 176.831C198.38 182.336 202.842 186.798 208.347 186.798Z" stroke="#070707" stroke-miterlimit="10"/>
<path d="M206.804 171.849C206.804 171.849 203.703 179.949 210.353 181.545C210.353 181.545 207.142 183.758 203.293 178.795C203.293 178.795 201.66 173.855 206.804 171.849Z" fill="#070707"/>
<path d="M108.818 221.115C108.818 221.115 108.645 233.511 113.375 238.272C118.104 243.034 117.913 247.649 114.226 246.542C110.539 245.436 94.0498 229.412 94.0498 229.412C94.0498 229.412 95.151 223.863 97.9706 223.068C100.79 222.272 105.996 219.463 103.088 215.088L108.818 221.115Z" fill="#ECE856" stroke="#070707" stroke-width="1.08" stroke-linejoin="bevel"/>
<path d="M94.0282 228.313C94.0282 228.313 112.914 245.505 116.447 245.93C116.447 245.93 115.992 248.215 112.896 246.462C109.799 244.709 93.6318 229.824 93.6318 229.824L94.0282 228.313Z" fill="white" stroke="#070707" stroke-width="1.07" stroke-miterlimit="10"/>
<path d="M146.034 149.359C145.541 161.92 109.624 222.826 109.624 222.826L101.537 219.184C101.537 219.184 105.915 200.266 108.147 197.72C113.023 192.166 120.099 190.711 118.561 185.043C117.159 179.88 118.912 170.022 119.019 167.71C119.019 167.71 111.972 146.018 131.555 131.037L146.034 149.359Z" fill="#ECE856" stroke="#070707" stroke-width="1.08" stroke-linejoin="bevel"/>
<path d="M102.33 219.591L108.85 222.578L109.089 226.794L102.139 219.945L102.33 219.591Z" fill="#070707"/>
<path d="M143.877 232.598C143.877 232.598 149.689 243.369 156.055 244.93C162.42 246.492 164.473 250.575 160.765 251.596C157.057 252.618 135.147 247.667 135.147 247.667C135.147 247.667 133.429 242.297 135.474 240.1C137.52 237.902 140.65 232.691 136.041 230.476L143.877 232.598Z" fill="#ECE856" stroke="#070707" stroke-width="1.08" stroke-linejoin="bevel"/>
<path d="M135.075 247.513C135.075 247.513 159.281 252.471 162.712 250.944C162.712 250.944 163.459 253.158 159.743 253.296C156.027 253.434 134.809 249.375 134.809 249.375L135.075 247.513Z" fill="white" stroke="#070707" stroke-width="1.1" stroke-miterlimit="10"/>
<path d="M146.355 149.053C151.973 160.135 145.906 233.375 145.906 233.375L137.184 234.588C137.184 234.588 131.864 215.944 132.555 212.555C134.08 205.155 139.471 200.104 135.423 196.047C131.733 192.355 128.116 177.749 127.094 175.701C127.094 175.701 114.858 167.189 120.641 142.56L146.355 149.053Z" fill="#ECE856" stroke="#070707" stroke-width="1.08" stroke-linejoin="bevel"/>
<path d="M138.399 234.346L144.251 233.548L146.842 237.344L138.399 235.144V234.346Z" fill="#070707"/>
<path d="M125.445 83.931L125.499 89.243L133.213 89.509V83.125H125.765L125.445 83.931Z" fill="white" stroke="#070707" stroke-width="1.04" stroke-miterlimit="10"/>
<path d="M124.884 88.578L126.081 85.4578L134.726 87.78L144.302 107.996L148.292 155.876L116.106 148.96L124.884 88.578Z" fill="#56627B" stroke="#070707" stroke-width="1.1" stroke-miterlimit="10"/>
<path d="M117.194 149.239L148.241 155.876L148.595 161.752L116.891 150.178L117.194 149.239Z" fill="#070707"/>
<path d="M133.532 66.766L134.111 68.4923C134.158 68.6237 134.229 68.7448 134.322 68.8487L137.78 72.6446C138.312 73.2324 137.995 74.1714 137.165 74.4507C136.904 74.5283 136.676 74.6912 136.518 74.9134C136.359 75.1357 136.28 75.4045 136.293 75.677C136.466 77.4465 136.038 79.2228 135.078 80.719C134.117 82.2152 132.68 83.344 130.999 83.923L125.397 85.8062C125.107 85.9218 124.783 85.9179 124.496 85.7953C124.209 85.6726 123.982 85.4413 123.865 85.1519L119.277 71.554C119.196 71.2524 119.237 70.9312 119.392 70.6602C119.547 70.3891 119.803 70.1903 120.104 70.1069L131.986 66.1169C132.13 66.0579 132.285 66.0278 132.44 66.0285C132.596 66.0291 132.75 66.0605 132.894 66.1208C133.037 66.1811 133.167 66.2691 133.277 66.3798C133.386 66.4905 133.473 66.6217 133.532 66.766Z" fill="white" stroke="#070707" stroke-width="1.04" stroke-miterlimit="10"/>
<path d="M185.08 192.1L193.289 177.076L204.575 175.611V185.431L185.08 192.1Z" fill="white" stroke="#070707" stroke-width="1.1" stroke-miterlimit="10"/>
<path d="M193.257 176.983C193.318 176.885 185.12 192.108 185.12 192.108L204.602 185.458C204.602 185.458 182.476 193.943 193.257 176.983Z" fill="#070707"/>
<path d="M232.351 152.955L241.456 136.293L253.971 134.668V145.561L232.351 152.955Z" fill="white" stroke="#070707" stroke-width="1.22" stroke-miterlimit="10"/>
<path d="M241.419 136.192C241.488 136.083 232.396 152.966 232.396 152.966L254.001 145.595C254.001 145.595 229.476 154.998 241.419 136.192Z" fill="#070707"/>
<path d="M73.2032 80.5342C80.4163 80.5342 86.2638 74.6867 86.2638 67.4736C86.2638 60.2604 80.4163 54.413 73.2032 54.413C65.99 54.413 60.1426 60.2604 60.1426 67.4736C60.1426 74.6867 65.99 80.5342 73.2032 80.5342Z" fill="white" stroke="#070707" stroke-width="1.05" stroke-miterlimit="10"/>
<path d="M65.8485 56.7298C65.8485 56.7298 58.2143 77.4512 83.5056 75.4988C83.5056 75.4988 75.3979 84.9418 64.7659 77.4432C64.7659 77.4432 53.2348 68.4418 65.8485 56.7298Z" fill="#070707"/>
<path d="M66.3169 227.151C69.0699 227.151 71.3017 224.919 71.3017 222.166C71.3017 219.413 69.0699 217.181 66.3169 217.181C63.5638 217.181 61.332 219.413 61.332 222.166C61.332 224.919 63.5638 227.151 66.3169 227.151Z" fill="#BF6C2B" stroke="#070707" stroke-width="1.1" stroke-miterlimit="10"/>
<path d="M63.5098 218.067C63.5098 218.067 60.5971 225.972 70.2476 225.227C70.2476 225.227 67.154 228.832 63.0975 225.97C63.0975 225.97 58.6979 222.536 63.5098 218.067Z" fill="#070707"/>
<path d="M66.6494 253.764V227.164" stroke="#070707" stroke-width="1.2" stroke-miterlimit="10"/>
<path d="M39.5803 235.011H58.4663C58.4663 235.011 66.7123 235.277 66.7123 253.365C66.7123 253.365 46.4963 253.897 47.0283 245.385C47.0283 245.385 35.8563 243.257 39.5803 235.011Z" fill="#BF6C2B" stroke="#070707" stroke-width="1.1" stroke-miterlimit="10"/>
<path d="M93.8976 235.011H75.0116C75.0116 235.011 66.7656 235.277 66.7656 253.365C66.7656 253.365 86.9816 253.897 86.4496 245.385C86.4496 245.385 97.6216 243.257 93.8976 235.011Z" fill="white" stroke="#070707" stroke-width="1.1" stroke-miterlimit="10"/>
<path d="M53.4797 103.599C53.7076 103.798 53.9234 104.01 54.1261 104.235C55.1852 105.405 55.8738 106.862 56.1046 108.423C56.3355 109.984 56.0983 111.579 55.4231 113.005C54.7479 114.431 53.6649 115.626 52.3112 116.436C50.9574 117.247 49.3936 117.639 47.8175 117.561C46.2414 117.483 44.7236 116.94 43.4562 116C42.1888 115.06 41.2286 113.765 40.697 112.279C40.1653 110.793 40.0861 109.183 40.4694 107.652C40.8527 106.122 41.6813 104.739 42.8504 103.679C42.9781 103.562 43.1164 103.453 43.2414 103.346C43.2275 103.337 43.2141 103.326 43.2015 103.314C42.3402 102.554 41.6535 101.617 41.1885 100.567C40.7234 99.5162 40.491 98.3777 40.5072 97.2291C40.5233 96.0805 40.7877 94.949 41.2822 93.9121C41.7766 92.8753 42.4894 91.9576 43.3717 91.2221C43.3132 91.1768 43.2574 91.129 43.2015 91.0784C41.985 89.9949 41.1293 88.5651 40.7493 86.981C40.3692 85.3969 40.4831 83.7344 41.0756 82.217C41.6681 80.6995 42.7109 79.3997 44.0637 78.4922C45.4166 77.5848 47.0148 77.1131 48.6436 77.1405C50.2724 77.168 51.8538 77.6933 53.1753 78.6459C54.4968 79.5985 55.4952 80.9327 56.0362 82.4692C56.5772 84.0058 56.6349 85.6712 56.2017 87.2416C55.7685 88.8119 54.8651 90.2121 53.6127 91.254C53.6713 91.2992 53.7271 91.3471 53.783 91.3976C54.6531 92.1686 55.3443 93.1203 55.8082 94.1863C56.2721 95.2522 56.4975 96.4067 56.4686 97.5688C56.4397 98.731 56.1573 99.8729 55.641 100.914C55.1247 101.956 54.3871 102.872 53.4797 103.599Z" fill="#BE7880" stroke="#070707" stroke-width="1.1" stroke-miterlimit="10"/>
<path d="M47.7549 117.74V253.764" stroke="#070707" stroke-width="1.13" stroke-miterlimit="10"/>
<path d="M40.6978 83.3218C40.6978 83.3218 43.3179 90.839 47.5739 90.573C47.5739 90.573 38.2639 97.755 45.9779 103.075C45.9779 103.075 40.5249 112.952 46.1774 117.322C46.1774 117.322 41.2724 116.939 40.3015 110.14C40.3015 110.14 39.8599 105.735 43.3179 103.341C43.3179 103.341 40.2217 101.516 40.5728 96.0446C40.5728 96.0446 40.6579 93.765 43.3179 91.105C43.3046 91.105 40.1898 89.642 40.6978 83.3218Z" fill="#070707"/>
<path d="M77.632 188.094C80.6847 188.094 83.1595 185.619 83.1595 182.566C83.1595 179.514 80.6847 177.039 77.632 177.039C74.5792 177.039 72.1045 179.514 72.1045 182.566C72.1045 185.619 74.5792 188.094 77.632 188.094Z" fill="#BE7880" stroke="#070707" stroke-width="1.22" stroke-miterlimit="10"/>
<path d="M74.5197 178.018C74.5197 178.018 71.2905 186.796 81.9916 185.961C81.9916 185.961 78.5602 189.951 74.0622 186.785C74.0622 186.785 69.1837 182.976 74.5197 178.018Z" fill="#070707"/>
<path d="M165.146 228.792C168.198 228.792 170.673 226.317 170.673 223.264C170.673 220.212 168.198 217.737 165.146 217.737C162.093 217.737 159.618 220.212 159.618 223.264C159.618 226.317 162.093 228.792 165.146 228.792Z" fill="#BE7880" stroke="#070707" stroke-width="1.22" stroke-miterlimit="10"/>
<path d="M162.034 218.716C162.034 218.716 158.805 227.494 169.506 226.659C169.506 226.659 166.075 230.649 161.577 227.483C161.577 227.483 156.698 223.674 162.034 218.716Z" fill="#070707"/>
<path d="M152.896 57.589L178.964 34.979L191.466 68.761L159.014 70.623L152.896 57.589Z" fill="white" stroke="#070707" stroke-width="1.43" stroke-miterlimit="10"/>
<path d="M153.695 59.451L148.641 62.111L153.163 71.687L158.368 69.3914L153.695 59.451Z" fill="white" stroke="#070707" stroke-width="1.43" stroke-miterlimit="10"/>
<path d="M156.977 72.618L154.072 75.3232C154.072 75.3232 152.62 78.9302 155.16 78.329C157.701 77.7278 161.332 75.6238 159.882 74.4215C158.999 73.6928 158.022 73.0862 156.977 72.618Z" fill="white" stroke="#070707" stroke-width="1.78" stroke-miterlimit="10"/>
<path d="M78.4835 119.814L181.324 106.568L202.721 121.621L189.302 145.446L84.4286 158.294L62.9385 139.956C62.9385 139.956 78.6883 121.413 78.4835 119.814Z" fill="white" stroke="#070707" stroke-width="1.76" stroke-miterlimit="10"/>
<path d="M175.148 136.724L190.225 131.848C190.225 131.848 193.826 127.278 186.823 128.568L180.082 129.789L174.496 133.069L175.148 136.724Z" fill="white" stroke="#070707" stroke-width="1.48" stroke-miterlimit="10"/>
<path d="M138.001 99.085C138.001 99.085 148.289 130.872 149.986 131.151C151.684 131.431 177.733 130.156 177.733 130.156L178.752 136.274L143.991 140.073L122.854 109.116" fill="#56627B"/>
<path d="M138.001 99.085C138.001 99.085 148.289 130.872 149.986 131.151C151.684 131.431 177.733 130.156 177.733 130.156L178.752 136.274L143.991 140.073L122.854 109.116" stroke="#070707" stroke-width="1.1" stroke-miterlimit="10"/>
<path d="M125.632 69.426C125.632 69.426 135.74 71.82 137.07 68.096C138.4 64.372 134.144 57.988 126.164 61.978C118.184 65.968 110.47 79.8 117.12 89.376C123.77 98.952 102.756 128.212 113.662 130.606C124.568 133 139.73 128.212 135.74 119.7C131.75 111.188 129.622 100.548 132.282 97.09C134.942 93.632 137.868 71.82 125.632 69.426Z" fill="#202124"/>
</svg>
