<svg width="25" height="25" viewBox="0 0 25 25" fill="none" xmlns="http://www.w3.org/2000/svg">
<path d="M17.1875 7.8125C17.1875 9.0557 16.6936 10.248 15.8146 11.1271C14.9355 12.0061 13.7432 12.5 12.5 12.5C11.2568 12.5 10.0645 12.0061 9.18544 11.1271C8.30636 10.248 7.8125 9.0557 7.8125 7.8125C7.8125 6.5693 8.30636 5.37701 9.18544 4.49794C10.0645 3.61886 11.2568 3.125 12.5 3.125C13.7432 3.125 14.9355 3.61886 15.8146 4.49794C16.6936 5.37701 17.1875 6.5693 17.1875 7.8125V7.8125ZM12.5 10.9375C13.3288 10.9375 14.1237 10.6083 14.7097 10.0222C15.2958 9.43616 15.625 8.6413 15.625 7.8125C15.625 6.9837 15.2958 6.18884 14.7097 5.60279C14.1237 5.01674 13.3288 4.6875 12.5 4.6875C11.6712 4.6875 10.8763 5.01674 10.2903 5.60279C9.70424 6.18884 9.375 6.9837 9.375 7.8125C9.375 8.6413 9.70424 9.43616 10.2903 10.0222C10.8763 10.6083 11.6712 10.9375 12.5 10.9375V10.9375ZM12.9 21.875C12.7207 21.3676 12.6007 20.8412 12.5422 20.3063H4.6875C4.68906 19.9219 4.92813 18.7656 5.9875 17.7062C7.00625 16.6875 8.92344 15.625 12.5 15.625C12.9062 15.625 13.2922 15.6391 13.6562 15.6641C14.0094 15.1312 14.4312 14.6484 14.9125 14.2297C14.1828 14.1219 13.3813 14.0625 12.5 14.0625C4.6875 14.0625 3.125 18.75 3.125 20.3125C3.125 21.875 4.6875 21.875 4.6875 21.875H12.9ZM18.5719 14.7813C18.8531 13.8234 20.2094 13.8234 20.4922 14.7813L20.5594 15.0125C20.6013 15.1559 20.6749 15.2882 20.7747 15.3994C20.8745 15.5107 20.998 15.5982 21.136 15.6554C21.2741 15.7127 21.4232 15.7383 21.5725 15.7303C21.7217 15.7223 21.8673 15.681 21.9984 15.6094L22.2109 15.4938C23.0875 15.0156 24.0469 15.975 23.5703 16.8516L23.4531 17.0641C23.3818 17.1952 23.3407 17.3406 23.3329 17.4897C23.3251 17.6387 23.3507 17.7876 23.408 17.9255C23.4652 18.0633 23.5526 18.1866 23.6637 18.2863C23.7748 18.386 23.9068 18.4595 24.05 18.5016L24.2828 18.5719C25.2391 18.8531 25.2391 20.2094 24.2828 20.4922L24.0484 20.5594C23.9053 20.6017 23.7734 20.6755 23.6625 20.7755C23.5516 20.8754 23.4644 20.9989 23.4075 21.1369C23.3506 21.275 23.3252 21.424 23.3334 21.573C23.3416 21.7221 23.383 21.8675 23.4547 21.9984L23.5703 22.2109C24.0469 23.0875 23.0875 24.0469 22.2109 23.5703L21.9984 23.4531C21.8673 23.3818 21.7219 23.3407 21.5728 23.3329C21.4238 23.3251 21.2749 23.3507 21.137 23.408C20.9992 23.4652 20.8759 23.5526 20.7762 23.6637C20.6765 23.7748 20.603 23.9068 20.5609 24.05L20.4906 24.2828C20.2094 25.2391 18.8531 25.2391 18.5703 24.2828L18.5031 24.0484C18.4608 23.9053 18.387 23.7734 18.287 23.6625C18.1871 23.5516 18.0636 23.4644 17.9256 23.4075C17.7875 23.3506 17.6385 23.3252 17.4895 23.3334C17.3404 23.3416 17.195 23.383 17.0641 23.4547L16.8516 23.5703C15.975 24.0469 15.0156 23.0875 15.4922 22.2109L15.6094 21.9984C15.6807 21.8673 15.7218 21.7219 15.7296 21.5728C15.7374 21.4238 15.7118 21.2749 15.6545 21.137C15.5973 20.9992 15.5099 20.8759 15.3988 20.7762C15.2877 20.6765 15.1557 20.603 15.0125 20.5609L14.7813 20.4906C13.8234 20.2094 13.8234 18.8531 14.7813 18.5703L15.0125 18.5031C15.1559 18.4612 15.2882 18.3876 15.3994 18.2878C15.5107 18.188 15.5982 18.0645 15.6554 17.9265C15.7127 17.7884 15.7383 17.6393 15.7303 17.49C15.7223 17.3408 15.681 17.1952 15.6094 17.0641L15.4938 16.8516C15.0156 15.975 15.975 15.0156 16.8516 15.4922L17.0641 15.6094C17.1952 15.6807 17.3406 15.7218 17.4897 15.7296C17.6387 15.7374 17.7876 15.7118 17.9255 15.6545C18.0633 15.5973 18.1866 15.5099 18.2863 15.3988C18.386 15.2877 18.4595 15.1557 18.5016 15.0125L18.5719 14.7813V14.7813ZM21.875 19.5312C21.875 19.2235 21.8144 18.9187 21.6966 18.6343C21.5788 18.35 21.4062 18.0916 21.1885 17.874C20.9709 17.6563 20.7125 17.4837 20.4282 17.3659C20.1438 17.2481 19.839 17.1875 19.5312 17.1875C19.2235 17.1875 18.9187 17.2481 18.6343 17.3659C18.35 17.4837 18.0916 17.6563 17.874 17.874C17.6563 18.0916 17.4837 18.35 17.3659 18.6343C17.2481 18.9187 17.1875 19.2235 17.1875 19.5312C17.1875 20.1529 17.4344 20.749 17.874 21.1885C18.3135 21.6281 18.9096 21.875 19.5312 21.875C20.1529 21.875 20.749 21.6281 21.1885 21.1885C21.6281 20.749 21.875 20.1529 21.875 19.5312V19.5312Z" fill="#898989"/>
</svg>
