<svg width="18" height="15" viewBox="0 0 18 15" fill="none" xmlns="http://www.w3.org/2000/svg">
<path d="M5 5.50028C4.30964 5.50028 3.75 6.05993 3.75 6.75028C3.75 7.44064 4.30964 8.00028 5 8.00028C5.69036 8.00028 6.25 7.44064 6.25 6.75028C6.25 6.05993 5.69036 5.50028 5 5.50028Z" fill="#898989"/>
<path d="M9 5.50028C8.30964 5.50028 7.75 6.05993 7.75 6.75028C7.75 7.44064 8.30964 8.00028 9 8.00028C9.69036 8.00028 10.25 7.44064 10.25 6.75028C10.25 6.05993 9.69036 5.50028 9 5.50028Z" fill="#898989"/>
<path d="M11.75 6.75028C11.75 6.05993 12.3096 5.50028 13 5.50028C13.6904 5.50028 14.25 6.05993 14.25 6.75028C14.25 7.44064 13.6904 8.00028 13 8.00028C12.3096 8.00028 11.75 7.44064 11.75 6.75028Z" fill="#898989"/>
<path fill-rule="evenodd" clip-rule="evenodd" d="M13.1007 0.593073C10.4065 0.363314 7.69826 0.34998 5.00194 0.5532L4.80871 0.567764C2.23741 0.761562 0.25 2.90439 0.25 5.48299V14.0003C0.25 14.2642 0.388666 14.5086 0.615148 14.644C0.841631 14.7794 1.12261 14.7858 1.35504 14.6609L5.26583 12.5592C5.44774 12.4615 5.65104 12.4103 5.85756 12.4103H14.834C15.9661 12.4103 16.9362 11.6009 17.1392 10.4871C17.5505 8.22991 17.5829 5.91994 17.2353 3.65203L17.1329 2.98371C16.9464 1.76696 15.951 0.836141 14.7245 0.731545L13.1007 0.593073ZM5.11468 2.04896C7.73103 1.85176 10.359 1.8647 12.9733 2.08765L14.597 2.22612C15.1334 2.27186 15.5686 2.6789 15.6502 3.21097L15.7526 3.8793C16.075 5.98259 16.0449 8.12488 15.6635 10.2183C15.5904 10.619 15.2413 10.9103 14.834 10.9103H5.85756C5.40322 10.9103 4.95596 11.0229 4.55575 11.2379L1.75 12.7458V5.48299C1.75 3.68909 3.13262 2.19834 4.92144 2.06352L5.11468 2.04896Z" fill="#898989"/>
</svg>
