<svg width="11" height="16" viewBox="0 0 11 16" fill="none" xmlns="http://www.w3.org/2000/svg">
<path d="M0 2.00003C0 1.46959 0.191047 0.960875 0.531113 0.585796C0.871179 0.210717 1.33241 0 1.81333 0L9.06667 0C9.54759 0 10.0088 0.210717 10.3489 0.585796C10.689 0.960875 10.88 1.46959 10.88 2.00003V15.5003C10.88 15.5907 10.8577 15.6794 10.8155 15.757C10.7734 15.8346 10.7129 15.8981 10.6406 15.9408C10.5683 15.9835 10.4869 16.0038 10.405 15.9994C10.3231 15.9951 10.2438 15.9664 10.1755 15.9163L5.44 13.1012L0.70448 15.9163C0.636213 15.9664 0.556902 15.9951 0.474995 15.9994C0.393088 16.0038 0.311651 15.9835 0.23936 15.9408C0.167068 15.8981 0.106628 15.8346 0.0644768 15.757C0.0223258 15.6794 4.23598e-05 15.5907 0 15.5003V2.00003ZM1.81333 1.00002C1.57287 1.00002 1.34226 1.10537 1.17222 1.29291C1.00219 1.48045 0.906667 1.73481 0.906667 2.00003V14.5662L5.18885 12.0842C5.26326 12.0296 5.35063 12.0005 5.44 12.0005C5.52937 12.0005 5.61675 12.0296 5.69115 12.0842L9.97333 14.5662V2.00003C9.97333 1.73481 9.87781 1.48045 9.70778 1.29291C9.53774 1.10537 9.30713 1.00002 9.06667 1.00002H1.81333Z" fill="#898989"/>
</svg>
