<svg width="25" height="25" viewBox="0 0 25 25" fill="none" xmlns="http://www.w3.org/2000/svg">
<path d="M24.6343 12.0659L0.663873 0.0477776C0.566444 -0.000936883 0.454687 -0.012399 0.348662 0.013391C0.105089 0.0735678 -0.0467858 0.320006 0.0133909 0.566444L2.4835 10.6589C2.52076 10.8108 2.63251 10.934 2.78152 10.9828L7.01395 12.4356L2.78439 13.8884C2.63538 13.94 2.52362 14.0604 2.48923 14.2122L0.0133909 24.3191C-0.0123991 24.4251 -0.000936726 24.5369 0.0477778 24.6314C0.159535 24.8578 0.434628 24.9495 0.663873 24.8377L24.6343 12.8884C24.7231 12.8454 24.7948 12.7709 24.8406 12.6849C24.9524 12.4557 24.8607 12.1806 24.6343 12.0659ZM2.83883 21.4478L4.28021 15.5562L12.7393 12.6534C12.8052 12.6305 12.8597 12.5789 12.8826 12.5101C12.9227 12.3897 12.8597 12.2608 12.7393 12.2178L4.28021 9.31786L2.84456 3.4492L20.8403 12.4728L2.83883 21.4478Z" fill="#898989"/>
</svg>
