<svg width="1164" height="445" viewBox="0 0 1164 445" fill="none" xmlns="http://www.w3.org/2000/svg">
<path d="M387.265 28.8418L380.742 39.9306L387.265 50.3672H399.006L406.181 39.9306L399.006 28.8418H387.265Z" stroke="#46BCB2" stroke-width="1.30457"/>
<circle cx="577.731" cy="212.786" r="208.079" stroke="#46BCB2" stroke-width="1.30457"/>
<rect x="786.652" y="39.6523" width="19.5686" height="90.0154" stroke="#46BCB2" stroke-width="1.30457"/>
<g filter="url(#filter0_d_1402_2461)">
<circle cx="577.33" cy="213.33" r="151.33" fill="#F7F7F7"/>
</g>
<path d="M528.406 219.201L555.802 239.421L632.12 157.233" stroke="#194667" stroke-width="3"/>
<path d="M447.275 170.279L431.219 197.833L447.275 223.767H476.176L493.838 197.833L476.176 170.279H447.275Z" fill="#FFA947"/>
<rect x="632.125" y="298.127" width="96.5382" height="27.396" fill="#98CBEB"/>
<rect x="616.469" y="65.9141" width="39.1371" height="39.1371" fill="#F8A3AA"/>
<circle cx="547.979" cy="279.211" r="12.3934" fill="#3FA9F4"/>
<circle cx="465.538" cy="430.65" r="13.698" stroke="#46BCB2" stroke-width="1.30457"/>
<path d="M577.079 0.141783C543.16 -1.4237 508.154 10.3609 494.891 16.4489L498.804 24.9283C517.59 13.448 558.815 9.27341 577.079 8.62112V0.793699V0.141783Z" fill="#194667"/>
<path d="M2.72656 200.489L2.84633 208.622L32.1684 193.057L2.72656 200.489Z" fill="#023047"/>
<path opacity="0.2" d="M2.72656 200.489L2.84633 208.622L32.1684 193.057L2.72656 200.489Z" fill="#0A0A0A"/>
<path d="M4.25442 202.891L2.85156 208.622L25.2857 196.265L4.25442 202.891Z" fill="#023047"/>
<path opacity="0.1" d="M4.25442 202.891L2.85156 208.622L25.2857 196.265L4.25442 202.891Z" fill="#0A0A0A"/>
<path d="M0 196.092L32.1741 193.057L9.58993 212.776L4.25486 202.891L32.1741 193.057L2.73224 200.489L0 196.092Z" fill="#023047"/>
<path d="M1014.83 277.458L1007.68 290.288L973.981 239.009L1014.83 277.458Z" fill="#0990AD"/>
<path opacity="0.2" d="M1014.83 277.458L1007.68 290.288L973.981 239.009L1014.83 277.458Z" fill="#0A0A0A"/>
<path d="M1010.31 279.902L1007.65 290.288L982.255 250.338L1010.31 279.902Z" fill="#0990AD"/>
<path opacity="0.1" d="M1010.31 279.902L1007.65 290.288L982.255 250.338L1010.31 279.902Z" fill="#0A0A0A"/>
<path d="M1022.97 272.948L973.96 239.009L993.301 290.822L1010.32 279.919L973.96 239.009L1014.82 277.474L1022.97 272.948Z" fill="#0990AD"/>
<path d="M262.469 100.186L266.435 95.875L270.089 100.186L266.435 103.495L262.469 100.186Z" stroke="black" stroke-width="1.69337"/>
<circle cx="171.027" cy="281.299" r="9.31356" stroke="black" stroke-width="1.69337"/>
<circle cx="318.351" cy="271.14" r="3.38675" stroke="black" stroke-width="1.69337"/>
<circle cx="169.332" cy="160.223" r="9.31356" stroke="black" stroke-width="1.69337"/>
<path d="M313.683 133.129C306.91 130.871 293.278 130.081 292.94 144.983V176.31C292.234 181.39 294.548 190.873 309.45 188.164" stroke="black" stroke-width="1.69337" stroke-dasharray="3.39 3.39"/>
<path d="M292.526 160.223H179.07" stroke="black" stroke-width="1.69337" stroke-dasharray="3.39 3.39"/>
<path d="M306.497 281.3H181.188" stroke="black" stroke-width="1.69337"/>
<path d="M56.393 295.993V286.51H58.1542V294.503H63.1124V295.993H56.393ZM67.9859 296.129C67.164 296.129 66.428 295.957 65.7777 295.614C65.1365 295.262 64.6308 294.783 64.2605 294.178C63.8902 293.573 63.705 292.886 63.705 292.119C63.705 291.351 63.8902 290.669 64.2605 290.073C64.6308 289.468 65.1365 288.994 65.7777 288.651C66.428 288.298 67.1595 288.122 67.9723 288.122C68.7942 288.122 69.5257 288.298 70.167 288.651C70.8172 288.994 71.3275 289.468 71.6978 290.073C72.0681 290.669 72.2532 291.351 72.2532 292.119C72.2532 292.886 72.0681 293.573 71.6978 294.178C71.3275 294.783 70.8172 295.262 70.167 295.614C69.5257 295.957 68.7987 296.129 67.9859 296.129ZM67.9723 294.679C68.4691 294.679 68.9071 294.571 69.2864 294.354C69.6748 294.128 69.9773 293.821 70.1941 293.433C70.4108 293.044 70.5192 292.606 70.5192 292.119C70.5192 291.622 70.4063 291.184 70.1805 290.805C69.9638 290.416 69.6657 290.114 69.2864 289.897C68.9071 289.68 68.4736 289.572 67.9859 289.572C67.4982 289.572 67.0602 289.68 66.6718 289.897C66.2835 290.114 65.9764 290.416 65.7506 290.805C65.5339 291.184 65.4255 291.622 65.4255 292.119C65.4255 292.606 65.5339 293.044 65.7506 293.433C65.9764 293.821 66.2835 294.128 66.6718 294.354C67.0602 294.571 67.4937 294.679 67.9723 294.679ZM73.9596 295.993V288.244H77.3057C78.0011 288.244 78.6017 288.357 79.1075 288.583C79.6132 288.8 80.0016 289.116 80.2725 289.531C80.5525 289.947 80.6925 290.448 80.6925 291.035C80.6925 291.613 80.5525 292.11 80.2725 292.525C80.0016 292.941 79.6132 293.257 79.1075 293.473C78.6017 293.69 78.0011 293.799 77.3057 293.799H74.9079L75.6665 293.053V295.993H73.9596ZM78.9991 295.993L77.0077 293.175H78.8501L80.8415 295.993H78.9991ZM75.6665 293.257L75.0434 292.457H77.1838C77.7798 292.457 78.2269 292.335 78.5249 292.092C78.823 291.839 78.972 291.487 78.972 291.035C78.972 290.583 78.823 290.236 78.5249 289.992C78.2269 289.748 77.7798 289.626 77.1838 289.626H75.0434L75.6665 288.84V293.257ZM84.0618 291.401H87.9905V292.728H84.0618V291.401ZM84.2921 294.625H88.6001V295.993H82.5852V288.244H88.4511V289.626H84.2921V294.625ZM90.3642 295.993V288.244H91.8272L95.1192 293.663H94.4283L97.666 288.244H99.1291L99.1426 295.993H97.517L97.5034 290.805H97.7608L95.1327 295.126H94.3605L91.6511 290.805H91.9898V295.993H90.3642ZM105.342 295.993V286.51H107.103V295.993H105.342ZM109.573 295.993V288.244H112.919C113.615 288.244 114.215 288.357 114.721 288.583C115.227 288.8 115.615 289.116 115.886 289.531C116.166 289.947 116.306 290.448 116.306 291.035C116.306 291.622 116.166 292.128 115.886 292.552C115.615 292.968 115.227 293.288 114.721 293.514C114.215 293.731 113.615 293.839 112.919 293.839H110.522L111.28 293.053V295.993H109.573ZM111.28 293.257L110.657 292.457H112.798C113.394 292.457 113.841 292.335 114.139 292.092C114.437 291.839 114.586 291.487 114.586 291.035C114.586 290.583 114.437 290.236 114.139 289.992C113.841 289.748 113.394 289.626 112.798 289.626H110.657L111.28 288.84V293.257ZM123.824 293.704C123.824 294.191 123.688 294.616 123.417 294.977C123.155 295.338 122.78 295.623 122.293 295.831C121.805 296.029 121.209 296.129 120.505 296.129C119.899 296.129 119.303 296.047 118.716 295.885C118.138 295.722 117.673 295.51 117.321 295.248L117.958 293.92C118.283 294.164 118.68 294.358 119.15 294.503C119.619 294.647 120.098 294.72 120.586 294.72C121.164 294.72 121.566 294.634 121.792 294.462C122.017 294.291 122.13 294.088 122.13 293.853C122.13 293.636 122.044 293.464 121.873 293.338C121.71 293.212 121.489 293.112 121.209 293.04C120.938 292.959 120.64 292.886 120.315 292.823C119.99 292.751 119.665 292.67 119.339 292.579C119.014 292.489 118.716 292.363 118.445 292.2C118.174 292.037 117.953 291.821 117.782 291.55C117.619 291.279 117.538 290.936 117.538 290.52C117.538 290.042 117.673 289.622 117.944 289.26C118.215 288.899 118.594 288.619 119.082 288.42C119.579 288.222 120.161 288.122 120.83 288.122C121.308 288.122 121.787 288.177 122.266 288.285C122.753 288.384 123.178 288.551 123.539 288.786L122.957 290.114C122.613 289.888 122.252 289.734 121.873 289.653C121.503 289.563 121.137 289.518 120.775 289.518C120.234 289.518 119.841 289.603 119.597 289.775C119.362 289.947 119.245 290.163 119.245 290.425C119.245 290.642 119.326 290.814 119.489 290.94C119.66 291.067 119.881 291.17 120.152 291.252C120.423 291.324 120.721 291.392 121.046 291.455C121.381 291.518 121.706 291.599 122.022 291.699C122.347 291.789 122.645 291.916 122.916 292.078C123.196 292.232 123.417 292.439 123.58 292.701C123.742 292.963 123.824 293.297 123.824 293.704ZM128.877 296.129C128.136 296.129 127.5 295.993 126.967 295.722C126.443 295.442 126.041 295.045 125.761 294.53C125.481 294.006 125.341 293.388 125.341 292.674V288.244H127.048V292.62C127.048 293.288 127.206 293.799 127.522 294.151C127.838 294.503 128.294 294.679 128.89 294.679C129.477 294.679 129.924 294.508 130.232 294.164C130.548 293.812 130.706 293.297 130.706 292.62V288.244H132.385V292.674C132.385 293.388 132.245 294.006 131.966 294.53C131.695 295.045 131.297 295.442 130.773 295.722C130.25 295.993 129.617 296.129 128.877 296.129ZM134.67 295.993V288.244H136.133L139.425 293.663H138.734L141.972 288.244H143.435L143.448 295.993H141.823L141.809 290.805H142.066L139.438 295.126H138.666L135.957 290.805H136.295V295.993H134.67Z" fill="black"/>
<path d="M56.393 164.756V155.273H58.1542V163.266H63.1124V164.756H56.393ZM67.9859 164.891C67.164 164.891 66.428 164.72 65.7777 164.377C65.1365 164.024 64.6308 163.546 64.2605 162.941C63.8902 162.335 63.705 161.649 63.705 160.881C63.705 160.114 63.8902 159.432 64.2605 158.836C64.6308 158.231 65.1365 157.757 65.7777 157.413C66.428 157.061 67.1595 156.885 67.9723 156.885C68.7942 156.885 69.5257 157.061 70.167 157.413C70.8172 157.757 71.3275 158.231 71.6978 158.836C72.0681 159.432 72.2532 160.114 72.2532 160.881C72.2532 161.649 72.0681 162.335 71.6978 162.941C71.3275 163.546 70.8172 164.024 70.167 164.377C69.5257 164.72 68.7987 164.891 67.9859 164.891ZM67.9723 163.442C68.4691 163.442 68.9071 163.333 69.2864 163.117C69.6748 162.891 69.9773 162.584 70.1941 162.195C70.4108 161.807 70.5192 161.369 70.5192 160.881C70.5192 160.385 70.4063 159.947 70.1805 159.567C69.9638 159.179 69.6657 158.876 69.2864 158.66C68.9071 158.443 68.4736 158.335 67.9859 158.335C67.4982 158.335 67.0602 158.443 66.6718 158.66C66.2835 158.876 65.9764 159.179 65.7506 159.567C65.5339 159.947 65.4255 160.385 65.4255 160.881C65.4255 161.369 65.5339 161.807 65.7506 162.195C65.9764 162.584 66.2835 162.891 66.6718 163.117C67.0602 163.333 67.4937 163.442 67.9723 163.442ZM73.9596 164.756V157.007H77.3057C78.0011 157.007 78.6017 157.12 79.1075 157.346C79.6132 157.562 80.0016 157.878 80.2725 158.294C80.5525 158.709 80.6925 159.211 80.6925 159.798C80.6925 160.376 80.5525 160.872 80.2725 161.288C80.0016 161.703 79.6132 162.019 79.1075 162.236C78.6017 162.453 78.0011 162.561 77.3057 162.561H74.9079L75.6665 161.816V164.756H73.9596ZM78.9991 164.756L77.0077 161.938H78.8501L80.8415 164.756H78.9991ZM75.6665 162.019L75.0434 161.22H77.1838C77.7798 161.22 78.2269 161.098 78.5249 160.854C78.823 160.601 78.972 160.249 78.972 159.798C78.972 159.346 78.823 158.998 78.5249 158.755C78.2269 158.511 77.7798 158.389 77.1838 158.389H75.0434L75.6665 157.603V162.019ZM84.0618 160.163H87.9905V161.491H84.0618V160.163ZM84.2921 163.388H88.6001V164.756H82.5852V157.007H88.4511V158.389H84.2921V163.388ZM90.3642 164.756V157.007H91.8272L95.1192 162.426H94.4283L97.666 157.007H99.1291L99.1426 164.756H97.517L97.5034 159.567H97.7608L95.1327 163.889H94.3605L91.6511 159.567H91.9898V164.756H90.3642ZM105.342 164.756V155.273H107.103V164.756H105.342ZM109.573 164.756V157.007H112.919C113.615 157.007 114.215 157.12 114.721 157.346C115.227 157.562 115.615 157.878 115.886 158.294C116.166 158.709 116.306 159.211 116.306 159.798C116.306 160.385 116.166 160.89 115.886 161.315C115.615 161.73 115.227 162.051 114.721 162.277C114.215 162.494 113.615 162.602 112.919 162.602H110.522L111.28 161.816V164.756H109.573ZM111.28 162.019L110.657 161.22H112.798C113.394 161.22 113.841 161.098 114.139 160.854C114.437 160.601 114.586 160.249 114.586 159.798C114.586 159.346 114.437 158.998 114.139 158.755C113.841 158.511 113.394 158.389 112.798 158.389H110.657L111.28 157.603V162.019ZM123.824 162.466C123.824 162.954 123.688 163.379 123.417 163.74C123.155 164.101 122.78 164.386 122.293 164.593C121.805 164.792 121.209 164.891 120.505 164.891C119.899 164.891 119.303 164.81 118.716 164.647C118.138 164.485 117.673 164.273 117.321 164.011L117.958 162.683C118.283 162.927 118.68 163.121 119.15 163.266C119.619 163.41 120.098 163.482 120.586 163.482C121.164 163.482 121.566 163.397 121.792 163.225C122.017 163.053 122.13 162.85 122.13 162.615C122.13 162.399 122.044 162.227 121.873 162.101C121.71 161.974 121.489 161.875 121.209 161.803C120.938 161.721 120.64 161.649 120.315 161.586C119.99 161.514 119.665 161.432 119.339 161.342C119.014 161.252 118.716 161.125 118.445 160.963C118.174 160.8 117.953 160.583 117.782 160.312C117.619 160.042 117.538 159.698 117.538 159.283C117.538 158.804 117.673 158.384 117.944 158.023C118.215 157.662 118.594 157.382 119.082 157.183C119.579 156.984 120.161 156.885 120.83 156.885C121.308 156.885 121.787 156.939 122.266 157.048C122.753 157.147 123.178 157.314 123.539 157.549L122.957 158.876C122.613 158.651 122.252 158.497 121.873 158.416C121.503 158.326 121.137 158.28 120.775 158.28C120.234 158.28 119.841 158.366 119.597 158.538C119.362 158.709 119.245 158.926 119.245 159.188C119.245 159.405 119.326 159.576 119.489 159.703C119.66 159.829 119.881 159.933 120.152 160.014C120.423 160.087 120.721 160.154 121.046 160.218C121.381 160.281 121.706 160.362 122.022 160.461C122.347 160.552 122.645 160.678 122.916 160.841C123.196 160.994 123.417 161.202 123.58 161.464C123.742 161.726 123.824 162.06 123.824 162.466ZM128.877 164.891C128.136 164.891 127.5 164.756 126.967 164.485C126.443 164.205 126.041 163.808 125.761 163.293C125.481 162.769 125.341 162.15 125.341 161.437V157.007H127.048V161.383C127.048 162.051 127.206 162.561 127.522 162.913C127.838 163.266 128.294 163.442 128.89 163.442C129.477 163.442 129.924 163.27 130.232 162.927C130.548 162.575 130.706 162.06 130.706 161.383V157.007H132.385V161.437C132.385 162.15 132.245 162.769 131.966 163.293C131.695 163.808 131.297 164.205 130.773 164.485C130.25 164.756 129.617 164.891 128.877 164.891ZM134.67 164.756V157.007H136.133L139.425 162.426H138.734L141.972 157.007H143.435L143.448 164.756H141.823L141.809 159.567H142.066L139.438 163.889H138.666L135.957 159.567H136.295V164.756H134.67Z" fill="black"/>
<path d="M829.164 233.583L833.131 229.271L836.784 233.583L833.131 236.892L829.164 233.583Z" stroke="black" stroke-width="1.69337"/>
<path d="M808 131.479C815.197 135.853 829.929 149.174 831.284 167.463H1041.26" stroke="black" stroke-width="1.69337"/>
<circle cx="1051.85" cy="167.463" r="9.31356" stroke="black" stroke-width="1.69337"/>
<circle cx="935.004" cy="333.414" r="9.31356" stroke="black" stroke-width="1.69337"/>
<circle cx="859.648" cy="47.2334" r="3.38675" stroke="black" stroke-width="1.69337"/>
<path d="M843.566 263.337H904.859C915.709 262.295 936.901 264.848 934.872 283.396V323.254" stroke="black" stroke-width="1.69337"/>
<path d="M1075.22 170.303V160.82H1076.98V168.813H1081.94V170.303H1075.22ZM1086.81 170.438C1085.99 170.438 1085.26 170.267 1084.61 169.923C1083.96 169.571 1083.46 169.093 1083.09 168.487C1082.72 167.882 1082.53 167.196 1082.53 166.428C1082.53 165.661 1082.72 164.979 1083.09 164.383C1083.46 163.778 1083.96 163.303 1084.61 162.96C1085.26 162.608 1085.99 162.432 1086.8 162.432C1087.62 162.432 1088.35 162.608 1089 162.96C1089.65 163.303 1090.16 163.778 1090.53 164.383C1090.9 164.979 1091.08 165.661 1091.08 166.428C1091.08 167.196 1090.9 167.882 1090.53 168.487C1090.16 169.093 1089.65 169.571 1089 169.923C1088.35 170.267 1087.63 170.438 1086.81 170.438ZM1086.8 168.989C1087.3 168.989 1087.74 168.88 1088.11 168.664C1088.5 168.438 1088.81 168.131 1089.02 167.742C1089.24 167.354 1089.35 166.916 1089.35 166.428C1089.35 165.932 1089.23 165.494 1089.01 165.114C1088.79 164.726 1088.49 164.423 1088.11 164.207C1087.74 163.99 1087.3 163.881 1086.81 163.881C1086.33 163.881 1085.89 163.99 1085.5 164.207C1085.11 164.423 1084.8 164.726 1084.58 165.114C1084.36 165.494 1084.25 165.932 1084.25 166.428C1084.25 166.916 1084.36 167.354 1084.58 167.742C1084.8 168.131 1085.11 168.438 1085.5 168.664C1085.89 168.88 1086.32 168.989 1086.8 168.989ZM1092.79 170.303V162.554H1096.13C1096.83 162.554 1097.43 162.667 1097.94 162.893C1098.44 163.109 1098.83 163.425 1099.1 163.841C1099.38 164.256 1099.52 164.757 1099.52 165.345C1099.52 165.923 1099.38 166.419 1099.1 166.835C1098.83 167.25 1098.44 167.566 1097.94 167.783C1097.43 168 1096.83 168.108 1096.13 168.108H1093.74L1094.49 167.363V170.303H1092.79ZM1097.83 170.303L1095.84 167.485H1097.68L1099.67 170.303H1097.83ZM1094.49 167.566L1093.87 166.767H1096.01C1096.61 166.767 1097.06 166.645 1097.35 166.401C1097.65 166.148 1097.8 165.796 1097.8 165.345C1097.8 164.893 1097.65 164.545 1097.35 164.301C1097.06 164.058 1096.61 163.936 1096.01 163.936H1093.87L1094.49 163.15V167.566ZM1102.89 165.71H1106.82V167.038H1102.89V165.71ZM1103.12 168.934H1107.43V170.303H1101.41V162.554H1107.28V163.936H1103.12V168.934ZM1109.19 170.303V162.554H1110.66L1113.95 167.973H1113.26L1116.49 162.554H1117.96L1117.97 170.303H1116.35L1116.33 165.114H1116.59L1113.96 169.436H1113.19L1110.48 165.114H1110.82V170.303H1109.19ZM1124.17 170.303V160.82H1125.93V170.303H1124.17ZM1128.4 170.303V162.554H1131.75C1132.44 162.554 1133.04 162.667 1133.55 162.893C1134.06 163.109 1134.44 163.425 1134.71 163.841C1134.99 164.256 1135.13 164.757 1135.13 165.345C1135.13 165.932 1134.99 166.437 1134.71 166.862C1134.44 167.277 1134.06 167.598 1133.55 167.824C1133.04 168.04 1132.44 168.149 1131.75 168.149H1129.35L1130.11 167.363V170.303H1128.4ZM1130.11 167.566L1129.49 166.767H1131.63C1132.22 166.767 1132.67 166.645 1132.97 166.401C1133.26 166.148 1133.41 165.796 1133.41 165.345C1133.41 164.893 1133.26 164.545 1132.97 164.301C1132.67 164.058 1132.22 163.936 1131.63 163.936H1129.49L1130.11 163.15V167.566ZM1142.65 168.013C1142.65 168.501 1142.52 168.925 1142.25 169.287C1141.98 169.648 1141.61 169.932 1141.12 170.14C1140.63 170.339 1140.04 170.438 1139.33 170.438C1138.73 170.438 1138.13 170.357 1137.54 170.194C1136.97 170.032 1136.5 169.82 1136.15 169.558L1136.79 168.23C1137.11 168.474 1137.51 168.668 1137.98 168.813C1138.45 168.957 1138.93 169.029 1139.41 169.029C1139.99 169.029 1140.39 168.944 1140.62 168.772C1140.85 168.6 1140.96 168.397 1140.96 168.162C1140.96 167.946 1140.87 167.774 1140.7 167.648C1140.54 167.521 1140.32 167.422 1140.04 167.349C1139.77 167.268 1139.47 167.196 1139.14 167.133C1138.82 167.06 1138.49 166.979 1138.17 166.889C1137.84 166.799 1137.54 166.672 1137.27 166.51C1137 166.347 1136.78 166.13 1136.61 165.859C1136.45 165.588 1136.37 165.245 1136.37 164.83C1136.37 164.351 1136.5 163.931 1136.77 163.57C1137.04 163.209 1137.42 162.929 1137.91 162.73C1138.41 162.531 1138.99 162.432 1139.66 162.432C1140.14 162.432 1140.62 162.486 1141.09 162.594C1141.58 162.694 1142.01 162.861 1142.37 163.096L1141.78 164.423C1141.44 164.198 1141.08 164.044 1140.7 163.963C1140.33 163.872 1139.96 163.827 1139.6 163.827C1139.06 163.827 1138.67 163.913 1138.43 164.085C1138.19 164.256 1138.07 164.473 1138.07 164.735C1138.07 164.952 1138.15 165.123 1138.32 165.25C1138.49 165.376 1138.71 165.48 1138.98 165.561C1139.25 165.634 1139.55 165.701 1139.87 165.764C1140.21 165.828 1140.53 165.909 1140.85 166.008C1141.18 166.099 1141.47 166.225 1141.74 166.388C1142.02 166.541 1142.25 166.749 1142.41 167.011C1142.57 167.273 1142.65 167.607 1142.65 168.013ZM1147.7 170.438C1146.96 170.438 1146.33 170.303 1145.79 170.032C1145.27 169.752 1144.87 169.354 1144.59 168.84C1144.31 168.316 1144.17 167.697 1144.17 166.984V162.554H1145.88V166.93C1145.88 167.598 1146.03 168.108 1146.35 168.46C1146.67 168.813 1147.12 168.989 1147.72 168.989C1148.31 168.989 1148.75 168.817 1149.06 168.474C1149.38 168.122 1149.53 167.607 1149.53 166.93V162.554H1151.21V166.984C1151.21 167.697 1151.07 168.316 1150.79 168.84C1150.52 169.354 1150.13 169.752 1149.6 170.032C1149.08 170.303 1148.45 170.438 1147.7 170.438ZM1153.5 170.303V162.554H1154.96L1158.25 167.973H1157.56L1160.8 162.554H1162.26L1162.28 170.303H1160.65L1160.64 165.114H1160.89L1158.27 169.436H1157.49L1154.78 165.114H1155.12V170.303H1153.5Z" fill="black"/>
<path d="M900.807 370.121V360.638H902.568V368.631H907.526V370.121H900.807ZM912.4 370.257C911.578 370.257 910.842 370.085 910.192 369.742C909.551 369.39 909.045 368.911 908.675 368.306C908.304 367.701 908.119 367.014 908.119 366.247C908.119 365.479 908.304 364.797 908.675 364.201C909.045 363.596 909.551 363.122 910.192 362.779C910.842 362.426 911.574 362.25 912.386 362.25C913.208 362.25 913.94 362.426 914.581 362.779C915.231 363.122 915.742 363.596 916.112 364.201C916.482 364.797 916.667 365.479 916.667 366.247C916.667 367.014 916.482 367.701 916.112 368.306C915.742 368.911 915.231 369.39 914.581 369.742C913.94 370.085 913.213 370.257 912.4 370.257ZM912.386 368.807C912.883 368.807 913.321 368.699 913.7 368.482C914.089 368.256 914.391 367.949 914.608 367.561C914.825 367.172 914.933 366.734 914.933 366.247C914.933 365.75 914.82 365.312 914.595 364.933C914.378 364.544 914.08 364.242 913.7 364.025C913.321 363.808 912.888 363.7 912.4 363.7C911.912 363.7 911.474 363.808 911.086 364.025C910.698 364.242 910.39 364.544 910.165 364.933C909.948 365.312 909.84 365.75 909.84 366.247C909.84 366.734 909.948 367.172 910.165 367.561C910.39 367.949 910.698 368.256 911.086 368.482C911.474 368.699 911.908 368.807 912.386 368.807ZM918.374 370.121V362.372H921.72C922.415 362.372 923.016 362.485 923.522 362.711C924.027 362.928 924.416 363.244 924.687 363.659C924.967 364.075 925.107 364.576 925.107 365.163C925.107 365.741 924.967 366.238 924.687 366.653C924.416 367.069 924.027 367.385 923.522 367.601C923.016 367.818 922.415 367.926 921.72 367.926H919.322L920.081 367.181V370.121H918.374ZM923.413 370.121L921.422 367.303H923.264L925.256 370.121H923.413ZM920.081 367.385L919.457 366.585H921.598C922.194 366.585 922.641 366.463 922.939 366.22C923.237 365.967 923.386 365.614 923.386 365.163C923.386 364.711 923.237 364.364 922.939 364.12C922.641 363.876 922.194 363.754 921.598 363.754H919.457L920.081 362.968V367.385ZM928.476 365.529H932.405V366.856H928.476V365.529ZM928.706 368.753H933.014V370.121H926.999V362.372H932.865V363.754H928.706V368.753ZM934.778 370.121V362.372H936.241L939.533 367.791H938.842L942.08 362.372H943.543L943.557 370.121H941.931L941.917 364.933H942.175L939.547 369.254H938.775L936.065 364.933H936.404V370.121H934.778ZM949.756 370.121V360.638H951.517V370.121H949.756ZM953.987 370.121V362.372H957.334C958.029 362.372 958.63 362.485 959.135 362.711C959.641 362.928 960.029 363.244 960.3 363.659C960.58 364.075 960.72 364.576 960.72 365.163C960.72 365.75 960.58 366.256 960.3 366.68C960.029 367.096 959.641 367.416 959.135 367.642C958.63 367.859 958.029 367.967 957.334 367.967H954.936L955.694 367.181V370.121H953.987ZM955.694 367.385L955.071 366.585H957.212C957.808 366.585 958.255 366.463 958.553 366.22C958.851 365.967 959 365.614 959 365.163C959 364.711 958.851 364.364 958.553 364.12C958.255 363.876 957.808 363.754 957.212 363.754H955.071L955.694 362.968V367.385ZM968.238 367.832C968.238 368.319 968.102 368.744 967.831 369.105C967.569 369.466 967.194 369.751 966.707 369.959C966.219 370.157 965.623 370.257 964.919 370.257C964.314 370.257 963.717 370.175 963.13 370.013C962.552 369.85 962.087 369.638 961.735 369.376L962.372 368.048C962.697 368.292 963.094 368.486 963.564 368.631C964.034 368.775 964.512 368.848 965 368.848C965.578 368.848 965.98 368.762 966.206 368.59C966.431 368.419 966.544 368.215 966.544 367.981C966.544 367.764 966.458 367.592 966.287 367.466C966.124 367.339 965.903 367.24 965.623 367.168C965.352 367.087 965.054 367.014 964.729 366.951C964.404 366.879 964.079 366.798 963.754 366.707C963.428 366.617 963.13 366.49 962.859 366.328C962.589 366.165 962.367 365.949 962.196 365.678C962.033 365.407 961.952 365.064 961.952 364.648C961.952 364.169 962.087 363.749 962.358 363.388C962.629 363.027 963.008 362.747 963.496 362.548C963.993 362.35 964.575 362.25 965.244 362.25C965.722 362.25 966.201 362.304 966.68 362.413C967.167 362.512 967.592 362.679 967.953 362.914L967.371 364.242C967.027 364.016 966.666 363.862 966.287 363.781C965.917 363.691 965.551 363.646 965.19 363.646C964.648 363.646 964.255 363.731 964.011 363.903C963.776 364.075 963.659 364.291 963.659 364.553C963.659 364.77 963.74 364.942 963.903 365.068C964.074 365.195 964.295 365.298 964.566 365.38C964.837 365.452 965.135 365.52 965.46 365.583C965.795 365.646 966.12 365.727 966.436 365.827C966.761 365.917 967.059 366.043 967.33 366.206C967.61 366.36 967.831 366.567 967.994 366.829C968.156 367.091 968.238 367.425 968.238 367.832ZM973.291 370.257C972.55 370.257 971.914 370.121 971.381 369.85C970.857 369.57 970.455 369.173 970.175 368.658C969.895 368.134 969.755 367.516 969.755 366.802V362.372H971.462V366.748C971.462 367.416 971.62 367.926 971.936 368.279C972.252 368.631 972.708 368.807 973.304 368.807C973.891 368.807 974.339 368.635 974.646 368.292C974.962 367.94 975.12 367.425 975.12 366.748V362.372H976.8V366.802C976.8 367.516 976.66 368.134 976.38 368.658C976.109 369.173 975.711 369.57 975.187 369.85C974.664 370.121 974.031 370.257 973.291 370.257ZM979.084 370.121V362.372H980.547L983.839 367.791H983.148L986.386 362.372H987.849L987.862 370.121H986.237L986.223 364.933H986.48L983.852 369.254H983.08L980.371 364.933H980.709V370.121H979.084Z" fill="black"/>
<line x1="1048.11" y1="162.723" x2="1055.73" y2="170.342" stroke="#0CBC8B" stroke-width="1.42961"/>
<line x1="1075.14" y1="155.326" x2="1055.67" y2="170.564" stroke="#0CBC8B" stroke-width="1.42961"/>
<line x1="932.13" y1="329.521" x2="939.75" y2="337.14" stroke="#0CBC8B" stroke-width="1.42961"/>
<line x1="959.159" y1="322.123" x2="939.688" y2="337.362" stroke="#0CBC8B" stroke-width="1.42961"/>
<defs>
<filter id="filter0_d_1402_2461" x="389.472" y="33.2994" width="380.938" height="380.934" filterUnits="userSpaceOnUse" color-interpolation-filters="sRGB">
<feFlood flood-opacity="0" result="BackgroundImageFix"/>
<feColorMatrix in="SourceAlpha" type="matrix" values="0 0 0 0 0 0 0 0 0 0 0 0 0 0 0 0 0 0 127 0" result="hardAlpha"/>
<feMorphology radius="15.6548" operator="dilate" in="SourceAlpha" result="effect1_dropShadow_1402_2461"/>
<feOffset dx="2.60914" dy="10.4366"/>
<feGaussianBlur stdDeviation="11.7411"/>
<feComposite in2="hardAlpha" operator="out"/>
<feColorMatrix type="matrix" values="0 0 0 0 0 0 0 0 0 0 0 0 0 0 0 0 0 0 0.1 0"/>
<feBlend mode="normal" in2="BackgroundImageFix" result="effect1_dropShadow_1402_2461"/>
<feBlend mode="normal" in="SourceGraphic" in2="effect1_dropShadow_1402_2461" result="shape"/>
</filter>
</defs>
</svg>
