<svg width="15" height="16" viewBox="0 0 15 16" fill="none" xmlns="http://www.w3.org/2000/svg">
<path fill-rule="evenodd" clip-rule="evenodd" d="M14.3832 3.07192C14.521 3.28993 14.4981 3.58619 14.3143 3.77811L7.72331 10.6621C7.65575 10.7326 7.5714 10.7831 7.47896 10.8083L4.73395 11.5572C4.64442 11.5816 4.55214 11.5811 4.46543 11.5581C4.37324 11.5336 4.28737 11.4836 4.21781 11.4109C4.08281 11.2699 4.02951 11.0647 4.07776 10.8718L4.79476 8.00482C4.81589 7.92034 4.85554 7.8369 4.91038 7.77145L11.5258 0.865677C11.5837 0.805195 11.6535 0.759929 11.7294 0.732348C11.7857 0.711899 11.8453 0.701172 11.9061 0.701172C12.0487 0.701172 12.1855 0.760346 12.2863 0.865677L14.3143 2.98381C14.3406 3.01123 14.3635 3.04078 14.3832 3.07192ZM13.1736 3.38096L11.9061 2.05713L5.79848 8.43616L5.35036 10.228L7.06599 9.75999L13.1736 3.38096Z" fill="#706666"/>
<path d="M13.0829 11.8671C13.279 10.1165 13.3413 8.35375 13.27 6.5954C13.2666 6.51121 13.2969 6.42929 13.354 6.36971L14.059 5.63332C14.1457 5.54278 14.2939 5.60026 14.302 5.72802C14.4346 7.81712 14.3843 9.91571 14.1511 11.9976C13.9815 13.5122 12.8169 14.6992 11.3742 14.8676C8.88866 15.1577 6.31939 15.1577 3.83383 14.8676C2.39117 14.6992 1.22651 13.5122 1.0569 11.9976C0.759678 9.34337 0.759678 6.662 1.0569 4.00777C1.22651 2.49315 2.39117 1.30618 3.83383 1.13777C5.71938 0.91767 7.6531 0.864538 9.56191 0.978376C9.68493 0.985713 9.74102 1.14119 9.65389 1.23219L8.94222 1.97549C8.88579 2.03442 8.80842 2.06607 8.72867 2.06326C7.13231 2.00703 5.5251 2.07065 3.95329 2.25413C2.9996 2.36546 2.23563 3.15149 2.12513 4.13826C1.83762 6.7058 1.83762 9.29958 2.12513 11.8671C2.23563 12.8539 2.99959 13.6399 3.95329 13.7512C6.35946 14.0321 8.8486 14.0321 11.2548 13.7512C12.2085 13.6399 12.9724 12.8539 13.0829 11.8671Z" fill="#706666"/>
</svg>
