<svg width="11" height="16" viewBox="0 0 11 16" fill="none" xmlns="http://www.w3.org/2000/svg">
<path fill-rule="evenodd" clip-rule="evenodd" d="M4.53382 0.97058C4.66411 0.813998 4.86644 0.745181 5.06003 0.791601C7.64759 1.41205 8.95551 4.37356 8.64792 7.02317C8.52835 8.05316 8.23297 8.86064 7.79799 9.50308C7.79533 9.50701 7.79267 9.51093 7.79 9.51484C7.8888 9.46411 7.97995 9.40939 8.06525 9.35157C8.48966 9.06387 8.80116 8.68417 9.20674 8.18978C9.25576 8.13002 9.30616 8.06859 9.3583 8.00545C9.47547 7.86354 9.65267 7.792 9.83076 7.81473C10.0089 7.83745 10.1644 7.95144 10.2454 8.11864C10.6021 8.85494 10.8028 9.68735 10.8028 10.5671C10.8028 13.5656 8.47549 15.9964 5.60455 15.9964C2.73361 15.9964 0.40625 13.5656 0.40625 10.5671C0.40625 8.66717 1.34102 6.99562 2.75396 6.02624L2.80239 5.97526C2.82728 5.94907 2.85457 5.92551 2.88388 5.90491C3.50471 5.46859 3.9505 5.11172 4.25063 4.69203C4.53415 4.29556 4.70829 3.81193 4.70829 3.07836C4.70829 2.53522 4.61227 2.01682 4.43747 1.53976C4.36648 1.34601 4.40352 1.12716 4.53382 0.97058ZM5.72731 2.2757C5.76453 2.53779 5.7838 2.80583 5.7838 3.07836C5.7838 4.02825 5.54883 4.75382 5.11231 5.36423C4.70236 5.93749 4.13488 6.37777 3.52857 6.8057L3.47673 6.86026C3.44896 6.88949 3.41819 6.91545 3.38498 6.93765C2.23926 7.70377 1.48176 9.04323 1.48176 10.5671C1.48176 12.9453 3.3276 14.8731 5.60455 14.8731C7.8815 14.8731 9.72734 12.9453 9.72734 10.5671C9.72734 10.1778 9.678 9.80107 9.5856 9.44305C9.31299 9.75137 9.01208 10.0489 8.65077 10.2938C7.98879 10.7426 7.1604 10.9987 5.96305 10.9987C5.71765 10.9987 5.50338 10.8252 5.44225 10.577C5.38112 10.3288 5.48863 10.0688 5.70357 9.94513C6.19028 9.66508 6.60286 9.32271 6.91987 8.8545C7.23622 8.38726 7.4786 7.7634 7.58023 6.88796C7.80024 4.99276 7.04927 3.12212 5.72731 2.2757Z" fill="#706666"/>
</svg>
