<svg width="20" height="21" viewBox="0 0 20 21" fill="none" xmlns="http://www.w3.org/2000/svg">
<path fill-rule="evenodd" clip-rule="evenodd" d="M19.4548 3.41186C19.647 3.71591 19.615 4.1291 19.3587 4.39678L10.1663 13.9977C10.0721 14.0961 9.95445 14.1665 9.82552 14.2017L5.99709 15.2462C5.87223 15.2802 5.74352 15.2795 5.62259 15.2474C5.49402 15.2132 5.37425 15.1435 5.27723 15.0422C5.08896 14.8455 5.01462 14.5594 5.08191 14.2903L6.08191 10.2917C6.11138 10.1739 6.16667 10.0575 6.24316 9.96623L15.4696 0.334841C15.5504 0.250487 15.6477 0.187355 15.7535 0.148889C15.832 0.120369 15.9152 0.105408 15.9999 0.105408C16.1989 0.105408 16.3896 0.187937 16.5303 0.334841L19.3587 3.28898C19.3953 3.32721 19.4273 3.36842 19.4548 3.41186ZM17.7677 3.84288L15.9999 1.99654L7.48178 10.8933L6.85679 13.3924L9.24955 12.7396L17.7677 3.84288Z" fill="#D40000"/>
<path d="M17.6413 15.6784C17.9147 13.2369 18.0017 10.7784 17.9023 8.32601C17.8975 8.2086 17.9398 8.09434 18.0194 8.01125L19.0027 6.98421C19.1236 6.85794 19.3302 6.9381 19.3415 7.11628C19.5264 10.0299 19.4563 12.9568 19.1311 15.8604C18.8946 17.9728 17.2703 19.6283 15.2582 19.8631C11.7916 20.2678 8.20828 20.2678 4.74171 19.8631C2.72965 19.6283 1.10532 17.9728 0.868765 15.8604C0.454227 12.1586 0.454227 8.4189 0.868765 4.71708C1.10532 2.60466 2.72965 0.949203 4.74171 0.714331C7.37146 0.407355 10.0684 0.333252 12.7306 0.492021C12.9022 0.502253 12.9804 0.719097 12.8589 0.846016L11.8663 1.88269C11.7876 1.96488 11.6797 2.00902 11.5685 2.0051C9.34205 1.92667 7.10049 2.01541 4.90832 2.2713C3.57821 2.42657 2.51272 3.52283 2.35861 4.89907C1.95761 8.47998 1.95761 12.0975 2.35861 15.6784C2.51272 17.0546 3.57821 18.1509 4.90832 18.3062C8.26417 18.6979 11.7357 18.6979 15.0916 18.3062C16.4217 18.1509 17.4872 17.0546 17.6413 15.6784Z" fill="#D40000"/>
</svg>
