<svg width="13" height="14" viewBox="0 0 13 14" fill="none" xmlns="http://www.w3.org/2000/svg">
<path fill-rule="evenodd" clip-rule="evenodd" d="M8.31404 9.80536C6.41378 11.395 3.6322 11.2699 1.87067 9.43003C-0.0193894 7.45597 -0.0193894 4.25539 1.87067 2.28133C3.76073 0.307266 6.82512 0.307266 8.71517 2.28133C10.4767 4.12115 10.5965 7.02635 9.07454 9.01106L12.7712 12.872C12.9812 13.0913 12.9812 13.4469 12.7712 13.6663C12.5612 13.8856 12.2207 13.8856 12.0107 13.6663L8.31404 9.80536ZM2.63117 8.63573C1.16112 7.10035 1.16112 4.61101 2.63117 3.07563C4.10121 1.54025 6.48463 1.54025 7.95467 3.07563C9.42364 4.60988 9.42472 7.0967 7.95791 8.63235C7.95682 8.63346 7.95574 8.63459 7.95466 8.63571C7.95358 8.63684 7.95251 8.63797 7.95144 8.6391C6.48113 10.1711 4.10014 10.17 2.63117 8.63573Z" fill="#706666"/>
</svg>
