<svg width="16" height="22" viewBox="0 0 16 22" fill="#D40000" xmlns="http://www.w3.org/2000/svg">
<path fill-rule="evenodd" clip-rule="evenodd" d="M6.50666 0.574192C6.68839 0.355808 6.97057 0.259831 7.24057 0.324572C10.8494 1.18991 12.6735 5.32029 12.2445 9.01567C12.0778 10.4522 11.6658 11.5784 11.0592 12.4744C11.0555 12.4798 11.0517 12.4853 11.048 12.4908C11.1858 12.42 11.3129 12.3437 11.4319 12.263C12.0238 11.8618 12.4583 11.3322 13.0239 10.6427C13.0923 10.5594 13.1626 10.4737 13.2353 10.3856C13.3987 10.1877 13.6459 10.0879 13.8942 10.1196C14.1426 10.1513 14.3595 10.3103 14.4725 10.5435C14.97 11.5704 15.25 12.7314 15.25 13.9583C15.25 18.1404 12.0041 21.5306 8 21.5306C3.99594 21.5306 0.75 18.1404 0.75 13.9583C0.75 11.3085 2.05371 8.97724 4.02431 7.62526L4.09187 7.55416C4.12658 7.51763 4.16464 7.48476 4.20552 7.45603C5.07138 6.8475 5.69312 6.34978 6.11171 5.76445C6.50713 5.2115 6.75 4.53698 6.75 3.51389C6.75 2.75638 6.61608 2.03337 6.37229 1.36802C6.27327 1.0978 6.32494 0.792575 6.50666 0.574192ZM8.17122 2.39442C8.22313 2.75996 8.25 3.13379 8.25 3.51389C8.25 4.83868 7.92229 5.85063 7.31349 6.70196C6.74173 7.50148 5.95028 8.11553 5.10466 8.71236L5.03236 8.78845C4.99362 8.82922 4.95071 8.86542 4.90439 8.89639C3.30648 9.96489 2.25 11.833 2.25 13.9583C2.25 17.2751 4.82436 19.9639 8 19.9639C11.1756 19.9639 13.75 17.2751 13.75 13.9583C13.75 13.4154 13.6812 12.89 13.5523 12.3906C13.1721 12.8206 12.7524 13.2356 12.2485 13.5772C11.3253 14.203 10.1699 14.5603 8.5 14.5603C8.15775 14.5603 7.85891 14.3183 7.77364 13.9721C7.68838 13.6259 7.83833 13.2634 8.13811 13.0909C8.81692 12.7003 9.39232 12.2228 9.83445 11.5698C10.2757 10.9181 10.6137 10.048 10.7555 8.82709C11.0623 6.18387 10.0149 3.57491 8.17122 2.39442Z" fill="#D40000"/>
</svg>
