<svg width="17" height="17" viewBox="0 0 17 17" fill="none" xmlns="http://www.w3.org/2000/svg">
<path d="M8.5 17C8.29506 17 8.09851 16.9186 7.9536 16.7737C7.80868 16.6288 7.72727 16.4322 7.72727 16.2273V13.9091H4.63636C4.22648 13.9091 3.83339 13.7463 3.54356 13.4564C3.25373 13.1666 3.09091 12.7735 3.09091 12.3636V4.63636C3.09091 4.22648 3.25373 3.83339 3.54356 3.54356C3.83339 3.25373 4.22648 3.09091 4.63636 3.09091H15.4545C15.8644 3.09091 16.2575 3.25373 16.5473 3.54356C16.8372 3.83339 17 4.22648 17 4.63636V12.3636C17 12.7735 16.8372 13.1666 16.5473 13.4564C16.2575 13.7463 15.8644 13.9091 15.4545 13.9091H12.2864L9.42727 16.7759C9.27273 16.915 9.08727 17 8.88636 17H8.5ZM9.27273 12.3636V14.7436L11.6527 12.3636H15.4545V4.63636H4.63636V12.3636H9.27273ZM1.54545 10.8182H0V1.54545C0 1.13557 0.162824 0.742482 0.452653 0.452653C0.742482 0.162824 1.13557 0 1.54545 0H13.9091V1.54545H1.54545V10.8182ZM6.18182 6.18182H13.9091V7.72727H6.18182V6.18182ZM6.18182 9.27273H12.3636V10.8182H6.18182V9.27273Z" fill="#8ECAE6"/>
</svg>
