<svg width="32" height="27" viewBox="0 0 32 27" fill="none" xmlns="http://www.w3.org/2000/svg">
<path fill-rule="evenodd" clip-rule="evenodd" d="M10.9288 21.9216C10.9069 21.7701 10.8736 21.6271 10.8314 21.4923L17.3461 21.4924C18.0151 21.4924 20.114 21.4924 20.114 21.4924L22.2145 24.887C23.2607 26.6139 25.4957 27.1492 27.2182 26.192C28.9325 25.2394 29.6141 23.0997 28.6787 21.3429C30.1781 20.9063 31.3346 19.5551 31.3346 17.8539C31.3346 15.7726 29.6038 14.2157 27.6322 14.2157H24.3812L21.023 8.92704C21.0119 8.90955 21.0005 8.89224 20.9889 8.8751C20.7892 8.5812 20.4457 8.21272 19.9165 8.00654L21.4274 5.48802C22.4986 3.70245 21.8296 1.45596 20.0606 0.472948C18.7554 -0.252339 17.1563 -0.120573 16.0029 0.736786C14.8491 -0.122761 13.248 -0.25481 11.942 0.470682C10.1727 1.45358 9.50406 3.70052 10.5752 5.48587L11.7039 7.3671L7.5955 14.2155H4.37038C2.39859 14.2155 0.667969 15.7728 0.667969 17.8539C0.667969 19.5554 1.82498 20.9069 3.32482 21.3431C2.38803 23.1002 3.06954 25.2413 4.78449 26.1943C6.49733 27.146 8.71709 26.622 9.7706 24.9177L10.4097 23.9469C10.7003 23.5211 10.8338 23.0994 10.8952 22.7818C10.9268 22.6181 10.9409 22.4741 10.9465 22.3588C10.9493 22.3008 10.9501 22.2488 10.9497 22.2039C10.9496 22.1925 10.9488 22.1974 10.9479 22.2027C10.9471 22.2079 10.9462 22.2134 10.9458 22.2039C10.9449 22.1885 10.9438 22.1644 10.9426 22.1365C10.9392 22.0627 10.9346 21.9619 10.9288 21.9216ZM8.08141 23.8464L8.7506 22.8298C8.96793 22.5188 8.94939 22.208 8.94939 22.208C8.81269 21.2632 6.92385 21.066 6.92385 21.066C6.1212 20.9929 5.71995 21.3812 5.55736 21.6061L5.13271 22.208C4.6626 22.9916 4.94173 23.9936 5.75585 24.446C6.57013 24.8985 7.61129 24.63 8.08141 23.8464ZM23.6162 16.2157H27.6322C28.5724 16.2157 29.3346 16.949 29.3346 17.8539C29.3346 18.7587 28.5724 19.4922 27.6322 19.4922H25.6036C25.2974 19.4929 25.3477 19.6566 25.3767 19.7169L26.8697 22.2057C27.34 22.9894 27.0609 23.9914 26.2468 24.4438C25.4323 24.8963 24.3912 24.6277 23.9212 23.8442L18.6737 15.3639C18.3548 14.7549 17.4399 12.74 18.2411 10.9677C18.2411 10.9677 18.912 9.37723 19.3346 9.99915L23.1733 16.0443L23.1762 16.0493C23.2233 16.1039 23.3426 16.198 23.6162 16.2157ZM17.3461 19.4924C18.1755 19.4924 17.9611 18.4429 17.9611 18.4429C17.6349 16.2904 15.2457 16.216 15.2457 16.216L12.9654 16.2155C12.7399 16.1961 12.7491 16.0857 12.7794 16.0153L19.7124 4.45911C20.1825 3.67548 19.9035 2.67364 19.0893 2.22122C18.275 1.76866 17.2338 2.03728 16.7637 2.82077L16.002 4.09052L15.2389 2.8185C14.7688 2.03487 13.7276 1.76653 12.9133 2.21896C12.0991 2.67123 11.8201 3.67336 12.2902 4.45684L13.9357 7.19954C13.9488 7.22348 14.0259 7.37513 13.9351 7.53557L8.95292 15.8406L8.94939 15.8389C8.94939 15.8389 8.80342 16.1813 8.1872 16.2155H4.37038C3.43016 16.2155 2.66797 16.949 2.66797 17.8539C2.66797 18.7587 3.43016 19.4922 4.37038 19.4922L17.3461 19.4924Z" fill="white"/>
</svg>
