<svg width="16" height="26" viewBox="0 0 16 26" fill="none" xmlns="http://www.w3.org/2000/svg">
<path fill-rule="evenodd" clip-rule="evenodd" d="M5.98228 2.05025C7.29504 0.737498 9.07552 0 10.932 0H14.532C15.0843 0 15.532 0.447715 15.532 1V5.8C15.532 6.35228 15.0843 6.8 14.532 6.8H10.932C10.879 6.8 10.8281 6.82107 10.7906 6.85858C10.7531 6.89609 10.732 6.94696 10.732 7V9.6H14.532C14.84 9.6 15.1307 9.74187 15.3202 9.98459C15.5097 10.2273 15.5769 10.5438 15.5022 10.8425L14.3022 15.6425C14.1909 16.0877 13.7909 16.4 13.332 16.4H10.732V25C10.732 25.5523 10.2843 26 9.73203 26H4.93203C4.37975 26 3.93203 25.5523 3.93203 25V16.4H1.33203C0.779747 16.4 0.332031 15.9523 0.332031 15.4V10.6C0.332031 10.0477 0.779747 9.6 1.33203 9.6H3.93203V7C3.93203 5.14348 4.66953 3.36301 5.98228 2.05025ZM10.932 2C9.60595 2 8.33418 2.52678 7.3965 3.46447C6.45882 4.40215 5.93203 5.67392 5.93203 7V10.6C5.93203 11.1523 5.48432 11.6 4.93203 11.6H2.33203V14.4H4.93203C5.48432 14.4 5.93203 14.8477 5.93203 15.4V24H8.73203V15.4C8.73203 14.8477 9.17975 14.4 9.73203 14.4H12.5513L13.2513 11.6H9.73203C9.17975 11.6 8.73203 11.1523 8.73203 10.6V7C8.73203 6.41652 8.96382 5.85695 9.3764 5.44437C9.78898 5.03179 10.3486 4.8 10.932 4.8H13.532V2H10.932Z" fill="white"/>
</svg>
