<svg width="86" height="48" viewBox="0 0 86 48" fill="none" xmlns="http://www.w3.org/2000/svg">
<path d="M39.8798 41.2991C38.1034 39.8022 50.4336 42.9358 49.2001 36.8621C48.0095 31.0114 36.2248 38.0956 23.3221 37.4936C17.6112 37.2249 12.3759 35.5882 9.04344 31.5166C12.5291 35.4914 19.4306 34.5374 17.6407 31.8095C13.4268 25.4375 5.53356 30.0331 0.00269071 17.5577C0.661128 18.9982 2.45369 21.8389 10.1937 23.0295C15.8777 23.9002 25.2974 23.0859 28.3047 18.3855C31.6077 13.204 14.8269 13.7925 24.1203 12.7417C36.9988 11.2878 46.6846 0.887173 59.2836 0.887175C75.5913 0.887178 85.8791 9.19962 86.0054 22.9032C86.2284 47.7061 53.3899 52.7049 39.8852 41.2964L39.8798 41.2991ZM64.1345 14.2279C59.8533 14.3569 55.513 16.0635 52.0837 17.7432C43.602 21.8846 40.1163 23.3144 40.1163 23.5079C40.1163 23.747 45.2118 21.7744 53.7796 26.3351C58.7353 28.9689 58.9154 31.2613 64.1345 31.7236C70.3372 32.2718 74.7447 27.6789 74.7447 22.8521C74.7447 18.0066 70.3802 14.0613 64.1345 14.2279Z" fill="url(#paint0_linear_571_881)"/>
<defs>
<linearGradient id="paint0_linear_571_881" x1="86" y1="23.9996" x2="8.06257" y2="23.9996" gradientUnits="userSpaceOnUse">
<stop stop-color="#FD1919"/>
<stop offset="1" stop-color="#FFBA07"/>
</linearGradient>
</defs>
</svg>
