<svg width="266" height="266" viewBox="0 0 266 266" fill="none" xmlns="http://www.w3.org/2000/svg">
<path d="M152.951 49.3438H153.086C157.357 49.3424 161.587 50.1824 165.534 51.816C169.48 53.4496 173.066 55.8447 176.087 58.8644C179.108 61.8842 181.504 65.4695 183.139 69.4155C184.774 73.3615 185.615 77.591 185.615 81.8622V241.396H120.445V81.8622C120.445 73.2401 123.87 64.9709 129.965 58.8729C136.061 52.7749 144.328 49.3473 152.951 49.3438Z" fill="white" stroke="#070707" stroke-width="1.26" stroke-miterlimit="10"/>
<path d="M112.579 151.655C105.187 153.011 87.2776 153.567 80.0716 148.274C74.8022 144.403 80.1461 120.801 83.4019 108.374C76.3556 94.7439 85.8811 75.8632 90.7063 74.2273C96.4652 72.2722 102.009 76.8341 102.009 76.8341C102.009 76.8341 106.898 92.2621 114.178 96.0686C115.564 96.7921 116.155 98.412 116.085 100.476L116.194 100.54C116.194 100.54 114.133 105.982 124.358 112.454C134.583 118.926 127.348 133.037 132.072 141.579C138.001 152.288 119.913 150.311 112.579 151.655Z" fill="#202124"/>
<path d="M31.6672 93.2253C31.8951 93.4242 32.1109 93.6365 32.3136 93.861C33.3727 95.0308 34.0613 96.4884 34.2921 98.0495C34.523 99.6106 34.2858 101.205 33.6106 102.631C32.9354 104.058 31.8524 105.252 30.4987 106.063C29.1449 106.874 27.5811 107.265 26.005 107.187C24.4289 107.11 22.9111 106.566 21.6437 105.626C20.3763 104.686 19.4161 103.391 18.8845 101.905C18.3528 100.419 18.2736 98.8094 18.6569 97.2786C19.0402 95.7478 19.8688 94.365 21.0379 93.3051C21.1656 93.188 21.3039 93.079 21.4289 92.9726C21.415 92.9627 21.4016 92.9521 21.389 92.9406C20.5277 92.1805 19.841 91.2432 19.376 90.1928C18.9109 89.1425 18.6785 88.0039 18.6947 86.8553C18.7108 85.7067 18.9752 84.5752 19.4696 83.5384C19.9641 82.5015 20.6769 81.5838 21.5592 80.8483C21.5007 80.8031 21.4449 80.7552 21.389 80.7046C20.1725 79.6212 19.3168 78.1913 18.9368 76.6072C18.5567 75.0231 18.6706 73.3607 19.2631 71.8432C19.8556 70.3257 20.8984 69.0259 22.2512 68.1185C23.6041 67.211 25.2023 66.7393 26.8311 66.7668C28.4599 66.7942 30.0413 67.3195 31.3628 68.2721C32.6843 69.2247 33.6827 70.5589 34.2237 72.0955C34.7647 73.632 34.8224 75.2974 34.3892 76.8678C33.956 78.4382 33.0526 79.8383 31.8002 80.8802C31.8588 80.9254 31.9146 80.9733 31.9705 81.0238C32.8406 81.7948 33.5318 82.7465 33.9957 83.8125C34.4596 84.8784 34.685 86.0329 34.6561 87.1951C34.6272 88.3572 34.3448 89.4991 33.8285 90.5407C33.3122 91.5823 32.5746 92.4985 31.6672 93.2253Z" fill="#BE7880" stroke="#070707" stroke-width="1.1" stroke-miterlimit="10"/>
<path d="M25.8984 107.365V241.528" stroke="#070707" stroke-width="1.02" stroke-miterlimit="10"/>
<path d="M18.8849 72.9473C18.8849 72.9473 21.4917 80.4644 25.7477 80.1984C25.7477 80.1984 16.4377 87.3804 24.1517 92.7004C24.1517 92.7004 18.6987 102.577 24.3512 106.947C24.3512 106.947 19.4462 106.564 18.4753 99.7654C18.4753 99.7654 18.0337 95.3604 21.4917 92.9664C21.4917 92.9664 18.3955 91.1417 18.7466 85.6701C18.7466 85.6701 18.8317 83.3904 21.4917 80.7304C21.4917 80.7304 18.3769 79.2674 18.8849 72.9473Z" fill="#070707"/>
<path d="M88.0078 42.5332V222.339" stroke="#070707" stroke-width="1.22" stroke-miterlimit="10"/>
<path d="M68.0117 49.5237L88.0043 74.7166L113.524 49.1992" stroke="#070707" stroke-width="1.22" stroke-miterlimit="10"/>
<path d="M65.9805 35.791L88.0079 57.8211L110.038 35.791" stroke="#070707" stroke-width="1.22" stroke-miterlimit="10"/>
<path d="M153.589 99.6301C164.885 99.6301 174.042 90.4731 174.042 79.1773C174.042 67.8816 164.885 58.7246 153.589 58.7246C142.294 58.7246 133.137 67.8816 133.137 79.1773C133.137 90.4731 142.294 99.6301 153.589 99.6301Z" fill="white" stroke="#070707" stroke-width="1.08" stroke-miterlimit="10"/>
<path d="M142.073 62.3496C142.073 62.3496 130.116 94.8016 169.724 91.7453C169.724 91.7453 157.028 106.532 140.379 94.7883C140.379 94.7883 122.32 80.693 142.073 62.3496Z" fill="#070707"/>
<path d="M207.441 61.6855V241.491" stroke="#070707" stroke-width="1.22" stroke-miterlimit="10"/>
<path d="M187.449 68.6768L207.442 93.8697L232.962 68.3496" stroke="#070707" stroke-width="1.22" stroke-miterlimit="10"/>
<path d="M185.414 54.9414L207.442 76.9715L229.472 54.9414" stroke="#070707" stroke-width="1.22" stroke-miterlimit="10"/>
<path d="M213.293 102.975C216.346 102.975 218.821 100.5 218.821 97.4474C218.821 94.3947 216.346 91.9199 213.293 91.9199C210.24 91.9199 207.766 94.3947 207.766 97.4474C207.766 100.5 210.24 102.975 213.293 102.975Z" fill="#BE7880" stroke="#070707" stroke-width="1.22" stroke-miterlimit="10"/>
<path d="M210.18 92.8984C210.18 92.8984 206.951 101.676 217.652 100.841C217.652 100.841 214.22 104.831 209.722 101.666C209.722 101.666 204.844 97.8567 210.18 92.8984Z" fill="#070707"/>
<path d="M142.399 215.484C142.399 215.484 153.837 220.272 160.111 217.413C166.386 214.553 170.6 216.463 168.121 219.661C165.642 222.858 144.284 233.051 144.284 233.051C144.284 233.051 139.571 229.902 139.943 226.843C140.316 223.784 139.23 218.977 134.02 220.193L142.399 215.484Z" fill="#ECE856" stroke="#070707" stroke-width="1.11" stroke-linecap="round" stroke-linejoin="round"/>
<path d="M143.258 232.66C143.258 232.66 166.645 220.56 168.429 217.256C168.429 217.256 170.371 218.554 167.512 220.929C164.652 223.305 144.497 233.599 144.497 233.599L143.258 232.66Z" fill="white" stroke="#070707" stroke-width="1.1" stroke-miterlimit="10"/>
<path d="M93.2525 148.221C104.714 153.384 144.309 215.325 144.309 215.325L137.749 221.903C137.749 221.903 122.571 210.805 120.443 207.081C116.687 200.506 118.632 193.1 112.766 192.496C107.425 191.946 98.9662 186.551 96.8648 185.58C96.8648 185.58 67.3201 173.062 61.125 148.287L93.2525 148.221Z" fill="#56627B" stroke="#070707" stroke-width="0.96" stroke-miterlimit="10"/>
<path d="M106.203 190.486L119.62 178.582L111.252 192.361L106.203 190.486Z" fill="#070707"/>
<path d="M138.434 221.275L143.775 216L147.778 217.335L138.689 221.594L138.434 221.275Z" fill="#070707"/>
<path d="M97.1054 168.652H49.8398V241.395H97.1054V168.652Z" fill="white" stroke="#070707" stroke-width="1.49" stroke-miterlimit="10"/>
<path d="M49.8549 168.131C49.8549 168.131 51.1849 237.895 97.0885 241.262H49.8203L49.8549 168.131Z" fill="#070707"/>
<path d="M67.6453 106.818C67.6453 106.818 64.7432 95.077 75.2396 95.3403C75.2396 95.3403 102.31 115.067 103.984 115.463C105.657 115.86 131.831 117.014 131.831 117.014L132.382 123.183L100.752 124.489L67.6453 106.818Z" fill="white" stroke="#070707" stroke-width="1.04" stroke-miterlimit="10"/>
<path d="M131.961 117.838L147.788 118.561C147.788 118.561 152.47 122.019 145.373 122.623L138.544 123.232L132.291 121.541L131.961 117.838Z" fill="white" stroke="#070707" stroke-width="1.48" stroke-miterlimit="10"/>
<path d="M86.785 94.8546C86.785 94.8546 85.6705 91.3594 88.3225 89.774L89.0566 88.71L84.8006 86.582L82.1406 89.508L86.785 94.8546Z" fill="white" stroke="#070707" stroke-width="1.04" stroke-miterlimit="10"/>
<path d="M84.6427 118.985C87.2549 117.389 89.9787 114.838 89.0105 111.334C87.2841 105.073 88.9972 97.2817 89.0105 97.1833C89.3474 96.4012 89.7074 95.613 90.0904 94.8185L77.5884 84.8223C77.5884 84.8223 54.3347 100.577 59.9872 151.322H97.0516C97.0516 151.322 85.1189 138.416 84.6427 118.985Z" fill="white" stroke="#070707" stroke-width="1.04" stroke-miterlimit="10"/>
<path d="M22.5508 241.4H247.683H22.5508Z" fill="white"/>
<path d="M22.5508 241.4H247.683" stroke="#070707" stroke-width="1.52" stroke-miterlimit="10"/>
<path d="M103.883 134.25H201.037" stroke="#070707" stroke-width="1.26" stroke-miterlimit="10"/>
<path d="M152.457 134.25V241.528" stroke="#070707" stroke-width="1.25" stroke-miterlimit="10"/>
<path d="M169.973 103.973L153.388 132.542H120.332V129.129H150.441L168.598 98.8633C169.025 99.1068 169.4 99.4326 169.701 99.8219C170.002 100.211 170.223 100.656 170.351 101.131C170.479 101.607 170.511 102.102 170.446 102.59C170.381 103.078 170.221 103.548 169.973 103.973Z" fill="white" stroke="#070707" stroke-width="1.04" stroke-miterlimit="10"/>
<path d="M76.5157 94.9277C76.5157 94.9277 101.786 117.429 103.419 117.971C105.052 118.514 130.953 121.562 130.953 121.562V127.755L100.493 128.611L66.7109 109.991" fill="white"/>
<path d="M76.5157 94.9277C76.5157 94.9277 101.786 117.429 103.419 117.971C105.052 118.514 130.953 121.562 130.953 121.562V127.755L100.493 128.611L66.7109 109.991" stroke="#070707" stroke-width="1.04" stroke-miterlimit="10"/>
<path d="M131.012 122.381L146.706 124.509C146.706 124.509 151.06 128.369 143.939 128.339H137.09L131.012 126.1V122.381Z" fill="white" stroke="#070707" stroke-width="1.48" stroke-miterlimit="10"/>
<path d="M69.6372 218.251C69.6372 218.251 65.1152 229.79 68.1157 236.001C71.1162 242.212 69.3047 246.465 66.0489 244.061C62.793 241.656 52.1211 220.536 52.1211 220.536C52.1211 220.536 55.1588 215.748 58.2391 216.054C61.3194 216.36 66.4638 216.783 65.1285 211.604L69.6372 218.251Z" fill="#ECE856" stroke="#070707" stroke-width="1.11" stroke-miterlimit="10"/>
<path d="M52.4852 219.5C52.4852 219.5 65.1175 242.605 68.4611 244.312C68.4611 244.312 67.2083 246.284 64.7664 243.48C62.3245 240.676 51.5781 220.761 51.5781 220.761L52.4852 219.5Z" fill="white" stroke="#070707" stroke-width="1.1" stroke-miterlimit="10"/>
<path d="M127.642 147.275L84.6461 147.326L84.67 147.374L84.6115 147.355H60.1741C60.1741 147.355 58.2003 182.874 101.292 167.18C100.473 169.343 90.3863 182.342 89.4367 187.928C88.4499 193.74 81.9089 194.214 75.2243 197.77C71.2343 199.898 61.802 214.845 61.802 214.845L68.8111 220.941C68.8111 220.941 130.488 173.186 134.862 161.4C139.235 149.614 127.642 147.275 127.642 147.275Z" fill="#56627B" stroke="#070707" stroke-width="0.96" stroke-miterlimit="10"/>
<path d="M94.1054 147.321L59.4297 147.135C59.4297 147.135 59.8473 153.367 60.8342 156.011L94.1054 147.321Z" fill="#070707"/>
<path d="M62.528 215.41C62.528 215.41 61.4933 215.924 60.9453 215.897C60.9453 215.897 68.2231 220.927 67.6538 224.922L68.795 220.932L62.528 215.41Z" fill="#070707"/>
<path d="M77.2187 115.71C77.2187 115.71 62.0727 111.105 59.6016 126.134C59.6016 126.134 60.9927 110.922 65.2487 102.676L77.2187 115.71Z" fill="#202124"/>
<path d="M131.089 124.629L137.789 127.379L147.897 126.81C147.853 127.128 147.706 127.422 147.477 127.647C147.249 127.872 146.952 128.016 146.634 128.055C145.45 128.278 137.13 128.523 137.13 128.523L131.012 126.076L131.089 124.629Z" fill="#202124"/>
<path d="M132.409 120.122L138.362 121.997L149.047 121.263C148.804 121.571 148.522 121.846 148.207 122.08C147.824 122.322 138.772 123.301 138.772 123.301L132.326 121.508L132.098 120.104L132.409 120.122Z" fill="#202124"/>
<path d="M106.75 116.132C106.75 116.132 107.492 118.343 115.528 119.771L103.355 117.872C103.355 117.872 106.09 115.957 106.75 116.132Z" fill="#202124"/>
<path d="M120.635 129.313C120.635 129.313 135.427 132.518 146.847 132.518H120.34V129.092L120.635 129.313Z" fill="#202124"/>
<path d="M177.5 241.254V184.357V162.531" stroke="#070707" stroke-width="1.13" stroke-miterlimit="10"/>
<path d="M160.397 162.207L195.775 162.526L177.833 184.072C177.833 184.072 160.014 162.574 160.397 162.207Z" fill="#BF6C2B" stroke="#070707" stroke-width="1.22" stroke-miterlimit="10"/>
<path d="M168.373 162.288L177.835 184.065L160.383 162.205L168.373 162.288Z" fill="#BE7880" stroke="#070707" stroke-width="1.22" stroke-linejoin="bevel"/>
<path d="M184.036 162.369L177.594 184.064L195.78 162.531L184.036 162.369Z" fill="#BE7880" stroke="#070707" stroke-width="1.22" stroke-linejoin="bevel"/>
<path d="M41.207 241.398V29.5312" stroke="#070707" stroke-miterlimit="10"/>
<path d="M19.1875 15.8613L40.5978 44.5122L41.1298 66.9147L22.7572 44.8872L19.1875 15.8613Z" fill="#BF6C2B" stroke="#070707" stroke-width="1.22" stroke-miterlimit="10"/>
<path d="M41.6289 41.2348L50.7314 24.5725L63.2494 22.9473V33.84L41.6289 41.2348Z" fill="white" stroke="#070707" stroke-width="1.22" stroke-miterlimit="10"/>
<path d="M22.7656 44.9015C22.7656 44.9015 40.9973 70.3018 40.553 44.5078L41.1755 66.8651L22.7656 44.9015Z" fill="#070707"/>
<path d="M50.6985 24.4712C50.7677 24.3622 41.6758 41.2452 41.6758 41.2452L63.2803 33.8743C63.2803 33.8743 38.7551 43.2774 50.6985 24.4712Z" fill="#070707"/>
<path d="M47.0783 95.8772C50.131 95.8772 52.6057 93.4025 52.6057 90.3497C52.6057 87.297 50.131 84.8223 47.0783 84.8223C44.0255 84.8223 41.5508 87.297 41.5508 90.3497C41.5508 93.4025 44.0255 95.8772 47.0783 95.8772Z" fill="#BE7880" stroke="#070707" stroke-width="1.22" stroke-miterlimit="10"/>
<path d="M43.9662 85.8027C43.9662 85.8027 40.7369 94.5807 51.4381 93.7455C51.4381 93.7455 48.0067 97.7355 43.5087 94.5674C43.5087 94.5674 38.6276 90.7583 43.9662 85.8027Z" fill="#070707"/>
<path d="M47.4845 118.145C50.5373 118.145 53.012 115.67 53.012 112.617C53.012 109.565 50.5373 107.09 47.4845 107.09C44.4318 107.09 41.957 109.565 41.957 112.617C41.957 115.67 44.4318 118.145 47.4845 118.145Z" fill="#BE7880" stroke="#070707" stroke-width="1.22" stroke-miterlimit="10"/>
<path d="M44.3752 108.068C44.3752 108.068 41.1459 116.846 51.8471 116.011C51.8471 116.011 48.4157 120.001 43.9176 116.833C43.9176 116.833 39.0392 113.027 44.3752 108.068Z" fill="#070707"/>
<path d="M197.088 214.404C199.052 214.404 200.644 212.812 200.644 210.847C200.644 208.883 199.052 207.291 197.088 207.291C195.124 207.291 193.531 208.883 193.531 210.847C193.531 212.812 195.124 214.404 197.088 214.404Z" fill="#BE7880" stroke="#070707" stroke-width="0.79" stroke-miterlimit="10"/>
<path d="M195.087 207.924C195.087 207.924 193.007 213.566 199.894 213.034C199.894 213.034 197.686 215.603 194.792 213.566C194.792 213.563 191.653 211.111 195.087 207.924Z" fill="#070707"/>
<path d="M41.1779 200.964C41.1779 200.964 41.9759 184.472 29.0749 180.615C14.0752 176.13 14.7109 151.887 14.7109 151.887H41.0981L41.1779 200.964Z" fill="white" stroke="#070707" stroke-miterlimit="10"/>
<path d="M41.3707 133.176L41.0781 172.568C41.0781 172.568 46.8955 147.098 51.9495 145.768C57.0035 144.438 55.1415 133 55.1415 133L41.3707 133.176Z" fill="white" stroke="#070707" stroke-miterlimit="10"/>
<path d="M223.385 164.994C226.807 164.994 230.088 166.353 232.508 168.773C234.927 171.192 236.286 174.474 236.286 177.895V241.347H210.484V177.895C210.484 174.474 211.844 171.192 214.263 168.773C216.682 166.353 219.964 164.994 223.385 164.994Z" fill="#BF6C2B" stroke="#070707" stroke-width="1.22" stroke-miterlimit="10"/>
<path d="M221.257 165.053C221.257 165.053 216.203 167.181 220.459 180.215C224.715 193.249 219.661 201.495 217.001 207.879C214.341 214.263 218.172 241.419 218.172 241.419L210.484 241.262L210.562 176.829C210.562 176.829 209.819 169.309 220.459 165.053" fill="#070707"/>
<path d="M231.223 139.018C234.137 139.018 236.5 136.655 236.5 133.74C236.5 130.826 234.137 128.463 231.223 128.463C228.308 128.463 225.945 130.826 225.945 133.74C225.945 136.655 228.308 139.018 231.223 139.018Z" fill="#BF6C2B" stroke="#070707" stroke-width="1.1" stroke-miterlimit="10"/>
<path d="M231.225 143.707C236.729 143.707 241.192 139.245 241.192 133.74C241.192 128.236 236.729 123.773 231.225 123.773C225.72 123.773 221.258 128.236 221.258 133.74C221.258 139.245 225.72 143.707 231.225 143.707Z" stroke="#070707" stroke-width="1.22" stroke-miterlimit="10"/>
<path d="M226.708 131.002C226.708 131.002 228.344 139.684 236.284 135.242C236.284 135.242 235.281 138.939 231.27 139.054C231.264 139.054 223.641 138.078 226.708 131.002Z" fill="#070707"/>
<path d="M127.484 45.6506C130.399 45.6506 132.762 43.2878 132.762 40.3731C132.762 37.4585 130.399 35.0957 127.484 35.0957C124.57 35.0957 122.207 37.4585 122.207 40.3731C122.207 43.2878 124.57 45.6506 127.484 45.6506Z" fill="#BF6C2B" stroke="#070707" stroke-width="1.1" stroke-miterlimit="10"/>
<path d="M127.483 50.3403C132.987 50.3403 137.45 45.8779 137.45 40.3733C137.45 34.8686 132.987 30.4062 127.483 30.4062C121.978 30.4062 117.516 34.8686 117.516 40.3733C117.516 45.8779 121.978 50.3403 127.483 50.3403Z" stroke="#070707" stroke-width="1.22" stroke-miterlimit="10"/>
<path d="M122.97 37.6367C122.97 37.6367 124.605 46.319 132.546 41.8768C132.546 41.8768 131.543 45.5742 127.531 45.6885C127.526 45.6885 119.903 44.7123 122.97 37.6367Z" fill="#070707"/>
<path d="M21.3478 141.145C24.2624 141.145 26.6252 138.782 26.6252 135.867C26.6252 132.953 24.2624 130.59 21.3478 130.59C18.4331 130.59 16.0703 132.953 16.0703 135.867C16.0703 138.782 18.4331 141.145 21.3478 141.145Z" fill="#BF6C2B" stroke="#070707" stroke-width="1.1" stroke-miterlimit="10"/>
<path d="M21.3498 145.834C26.8545 145.834 31.3169 141.372 31.3169 135.867C31.3169 130.363 26.8545 125.9 21.3498 125.9C15.8452 125.9 11.3828 130.363 11.3828 135.867C11.3828 141.372 15.8452 145.834 21.3498 145.834Z" stroke="#070707" stroke-width="1.22" stroke-miterlimit="10"/>
<path d="M16.8368 133.131C16.8368 133.131 18.4727 141.813 26.4128 137.371C26.4128 137.371 25.4099 141.068 21.3987 141.183C21.3933 141.183 13.7698 140.206 16.8368 133.131Z" fill="#070707"/>
<path d="M119.25 214.382C122.004 214.382 124.235 212.15 124.235 209.397C124.235 206.644 122.004 204.412 119.25 204.412C116.497 204.412 114.266 206.644 114.266 209.397C114.266 212.15 116.497 214.382 119.25 214.382Z" fill="#BF6C2B" stroke="#070707" stroke-width="1.1" stroke-miterlimit="10"/>
<path d="M116.442 205.299C116.442 205.299 113.53 213.204 123.18 212.46C123.18 212.46 120.087 216.064 116.03 213.202C116.03 213.202 111.63 209.768 116.442 205.299Z" fill="#070707"/>
<path d="M119.582 240.996V214.396" stroke="#070707" stroke-width="1.2" stroke-miterlimit="10"/>
<path d="M92.5139 222.242H111.4C111.4 222.242 119.646 222.508 119.646 240.596C119.646 240.596 99.4299 241.128 99.9619 232.616C99.9619 232.616 88.7899 230.488 92.5139 222.242Z" fill="#BF6C2B" stroke="#070707" stroke-width="1.1" stroke-miterlimit="10"/>
<path d="M146.831 222.242H127.945C127.945 222.242 119.699 222.508 119.699 240.596C119.699 240.596 139.915 241.128 139.383 232.616C139.383 232.616 150.555 230.488 146.831 222.242Z" fill="white" stroke="#070707" stroke-width="1.1" stroke-miterlimit="10"/>
<path d="M97.1094 168.77V173.504C97.1094 173.504 101.025 168.512 101.291 167.182L97.1094 168.77Z" fill="#070707"/>
<path d="M99.4845 77.2672L98.8993 79.0016C98.8546 79.1341 98.8374 79.2744 98.8487 79.4138L99.285 84.5317C99.3515 85.3297 98.5295 85.875 97.689 85.5957C97.434 85.4977 97.1535 85.4882 96.8926 85.5688C96.6316 85.6494 96.4053 85.8153 96.2499 86.0399C95.3122 87.5524 93.8916 88.7042 92.218 89.309C90.5444 89.9139 88.7157 89.9364 87.0277 89.3729L81.4417 87.4577C81.1412 87.3727 80.8866 87.1722 80.7336 86.9001C80.5806 86.6279 80.5415 86.3062 80.6251 86.0053L85.2694 72.426C85.3875 72.1369 85.6152 71.9063 85.9028 71.7847C86.1905 71.663 86.5146 71.6603 86.8042 71.777L98.6705 75.8096C98.9717 75.895 99.2266 76.0966 99.3792 76.3699C99.5318 76.6432 99.5697 76.966 99.4845 77.2672Z" fill="white" stroke="#070707" stroke-width="1.04" stroke-miterlimit="10"/>
<path d="M98.3553 80.5056C97.299 80.9137 96.1697 81.0994 95.0383 81.0509C93.8254 80.9445 92.9609 80.2317 91.8277 79.8353C91.0962 79.5866 90.3138 79.5261 89.5528 79.6595C88.7917 79.7929 88.0765 80.116 87.4733 80.5987C87.2727 80.7495 87.1105 80.9454 86.9998 81.1706C86.3215 82.7666 88.8937 84.3227 87.6409 86.1688C86.8429 87.3525 85.2894 87.935 84.3558 89.0575C84.3558 89.398 83.4407 90.3131 83.2465 90.6535C82.9313 91.2308 82.6687 91.8353 82.4618 92.4597C81.9298 93.967 81.3978 95.4743 80.8658 96.9817C80.8446 97.0402 80.8233 97.1014 80.7993 97.1626C80.7535 98.1265 80.6558 99.0872 80.5067 100.041C78.4266 113.764 67.8239 108.287 64.6425 104.603C61.5463 101.025 65.7916 94.2951 66.4087 93.6726C67.9702 90.5046 77.9265 83.4237 80.1077 73.9408C82.6081 63.0747 92.6097 65.1388 101.188 71.0148C105.899 74.2467 102.678 78.9682 98.3553 80.5056Z" fill="#202124"/>
</svg>
