<svg width="266" height="266" viewBox="0 0 266 266" fill="none" xmlns="http://www.w3.org/2000/svg">
<path d="M152.896 75.4112L152.098 81.2632L156.886 82.8592L157.418 79.9332C157.402 79.9199 154.473 72.1102 152.896 75.4112Z" fill="white" stroke="#070707" stroke-width="1.43" stroke-miterlimit="10"/>
<path d="M151.688 66.8672L153.696 79.9331H157.686L156.09 68.7611L151.688 66.8672Z" fill="white" stroke="#070707" stroke-width="1.43" stroke-miterlimit="10"/>
<path d="M114.714 114.176H161.461C161.461 114.176 153.693 130.583 134.198 132.634C114.703 134.684 114.703 153.839 114.703 153.839L114.714 114.176Z" fill="#BE7880" stroke="#070707" stroke-width="1.1" stroke-miterlimit="10"/>
<path d="M134.222 90.7796C134.222 90.7796 151.964 105.521 152.196 103.885C152.427 102.25 151.783 80.9589 151.783 80.9589L158.5 80.3125L163.134 118.946L132.012 108.064" fill="#56627B"/>
<path d="M134.222 90.7796C134.222 90.7796 151.964 105.521 152.196 103.885C152.427 102.25 151.783 80.9589 151.783 80.9589L158.5 80.3125L163.134 118.946L132.012 108.064" stroke="#070707" stroke-width="1.06" stroke-miterlimit="10"/>
<path d="M41.9752 177.23C45.3968 177.23 48.6782 178.59 51.0976 181.009C53.517 183.428 54.8762 186.71 54.8762 190.131V253.583H29.0742V190.131C29.0742 186.71 30.4334 183.428 32.8528 181.009C35.2722 178.59 38.5537 177.23 41.9752 177.23Z" fill="#BF6C2B" stroke="#070707" stroke-width="1.22" stroke-miterlimit="10"/>
<path d="M39.8472 177.289C39.8472 177.289 34.7932 179.417 39.0492 192.451C43.3052 205.485 38.2512 213.731 35.5912 220.115C32.9312 226.499 36.7616 253.655 36.7616 253.655L29.0742 253.498L29.1514 189.065C29.1514 189.065 28.4092 181.545 39.0492 177.289" fill="#070707"/>
<path d="M135.871 165.318C135.871 165.318 156.353 167.978 156.885 189.79C156.885 189.79 140.925 193.78 135.871 165.318Z" fill="white" stroke="#070707" stroke-width="1.1" stroke-miterlimit="10"/>
<path d="M156.621 189.525C156.621 189.525 172.581 193.515 177.635 165.053C177.635 165.053 157.153 167.713 156.621 189.525Z" fill="white" stroke="#070707" stroke-width="1.1" stroke-miterlimit="10"/>
<path d="M156.645 149.965V253.763" stroke="#070707" stroke-width="0.87" stroke-miterlimit="10"/>
<path d="M157.008 155.242C159.923 155.242 162.285 152.88 162.285 149.965C162.285 147.05 159.923 144.688 157.008 144.688C154.093 144.688 151.73 147.05 151.73 149.965C151.73 152.88 154.093 155.242 157.008 155.242Z" fill="#BF6C2B" stroke="#070707" stroke-width="1.1" stroke-miterlimit="10"/>
<path d="M157.01 159.932C162.515 159.932 166.977 155.47 166.977 149.965C166.977 144.46 162.515 139.998 157.01 139.998C151.505 139.998 147.043 144.46 147.043 149.965C147.043 155.47 151.505 159.932 157.01 159.932Z" stroke="#070707" stroke-miterlimit="10"/>
<path d="M155.465 144.982C155.465 144.982 152.363 153.082 159.013 154.678C159.013 154.678 155.802 156.891 151.953 151.928C151.953 151.928 150.32 146.988 155.465 144.982Z" fill="#070707"/>
<path d="M114.762 105.809V253.763" stroke="#070707" stroke-width="1.23" stroke-miterlimit="10"/>
<path d="M114.713 114.176H67.9531C67.9531 114.176 75.7203 130.583 95.2155 132.634C114.711 134.684 114.713 153.839 114.713 153.839V114.176Z" fill="#BE7880" stroke="#070707" stroke-width="1.1" stroke-miterlimit="10"/>
<path d="M82.4609 116.658C82.4609 116.658 82.8998 124.718 97.8517 126.766C112.804 128.814 114.711 140.502 114.711 140.502V114.168H82.7216L82.4609 116.658Z" fill="#BF6C2B" stroke="#070707" stroke-width="1.1" stroke-miterlimit="10"/>
<path d="M146.962 116.658C146.962 116.658 146.523 124.718 131.571 126.766C116.619 128.814 114.715 140.502 114.715 140.502V114.168H146.701L146.962 116.658Z" fill="#BF6C2B" stroke="#070707" stroke-width="1.1" stroke-miterlimit="10"/>
<path d="M114.715 111.086C117.63 111.086 119.992 108.723 119.992 105.809C119.992 102.894 117.63 100.531 114.715 100.531C111.8 100.531 109.438 102.894 109.438 105.809C109.438 108.723 111.8 111.086 114.715 111.086Z" fill="#BF6C2B" stroke="#070707" stroke-width="1.1" stroke-miterlimit="10"/>
<path d="M114.717 115.776C120.222 115.776 124.684 111.313 124.684 105.809C124.684 100.304 120.222 95.8418 114.717 95.8418C109.212 95.8418 104.75 100.304 104.75 105.809C104.75 111.313 109.212 115.776 114.717 115.776Z" stroke="#070707" stroke-width="2.08" stroke-miterlimit="10"/>
<path d="M105.785 136.304C105.785 136.304 114.031 130.101 123.644 136.304C118.697 140.308 115.462 146.048 114.6 152.354C114.6 152.354 112.741 140.624 105.785 136.304Z" fill="#070707"/>
<path d="M110.2 103.072C110.2 103.072 111.836 111.755 119.776 107.312C119.776 107.312 118.773 111.01 114.762 111.124C114.757 111.124 107.133 110.148 110.2 103.072Z" fill="#070707"/>
<path d="M71.1006 41.3633C79.7427 41.3633 88.0308 44.7963 94.1417 50.9072C100.253 57.0181 103.686 65.3062 103.686 73.9483V253.631H38.5156V73.9483C38.5156 65.3062 41.9487 57.0181 48.0595 50.9072C54.1704 44.7963 62.4585 41.3633 71.1006 41.3633Z" fill="white" stroke="#070707" stroke-width="1.05" stroke-miterlimit="10"/>
<path d="M205.698 60.7812C214.34 60.7813 222.628 64.2143 228.739 70.3252C234.85 76.436 238.283 84.7242 238.283 93.3662V253.631H173.113V93.3662C173.113 89.0871 173.956 84.8499 175.594 80.8965C177.231 76.9431 179.631 73.351 182.657 70.3252C185.683 67.2994 189.275 64.8992 193.229 63.2616C197.182 61.6241 201.419 60.7812 205.698 60.7812Z" fill="white" stroke="#070707" stroke-miterlimit="10"/>
<path d="M37.0391 253.691H237.712" stroke="#070707" stroke-width="1.1" stroke-miterlimit="10"/>
<path d="M231.672 253.765V141.252" stroke="#070707" stroke-width="1.23" stroke-miterlimit="10"/>
<path d="M209.91 127.582L231.32 156.233L231.852 178.638L213.48 156.608L209.91 127.582Z" fill="#BF6C2B" stroke="#070707" stroke-width="1.22" stroke-miterlimit="10"/>
<path d="M213.488 156.62C213.488 156.62 231.72 182.021 231.276 156.227L231.898 178.571L213.488 156.62Z" fill="#070707"/>
<path d="M185.047 253.812V181.766" stroke="#070707" stroke-width="1.1" stroke-miterlimit="10"/>
<path d="M166.316 171.359L185.048 197.614L185.08 217.824L168.955 197.598L166.316 171.359Z" fill="#BF6C2B" stroke="#070707" stroke-width="1.1" stroke-miterlimit="10"/>
<path d="M168.965 197.609C168.965 197.609 184.893 220.874 185.007 197.609L185.122 217.78L168.965 197.609Z" fill="#070707"/>
<path d="M221.172 91.2324V253.378" stroke="#070707" stroke-width="1.1" stroke-miterlimit="10"/>
<path d="M203.141 97.5348L221.17 120.257L244.184 97.2422" stroke="#070707" stroke-width="1.1" stroke-miterlimit="10"/>
<path d="M201.305 85.1523L221.17 105.017L241.034 85.1523" stroke="#070707" stroke-width="1.1" stroke-miterlimit="10"/>
<path d="M187.211 192.186C187.211 192.186 207.693 194.846 208.225 216.658C208.225 216.658 192.265 220.648 187.211 192.186Z" fill="white" stroke="#070707" stroke-width="1.1" stroke-miterlimit="10"/>
<path d="M207.957 216.392C207.957 216.392 223.917 220.382 228.971 191.92C228.971 191.92 208.489 194.58 207.957 216.392Z" fill="white" stroke="#070707" stroke-width="1.1" stroke-miterlimit="10"/>
<path d="M207.898 176.832V254.297" stroke="#070707" stroke-width="1.1" stroke-miterlimit="10"/>
<path d="M208.348 182.11C211.262 182.11 213.625 179.747 213.625 176.832C213.625 173.917 211.262 171.555 208.348 171.555C205.433 171.555 203.07 173.917 203.07 176.832C203.07 179.747 205.433 182.11 208.348 182.11Z" fill="#BF6C2B" stroke="#070707" stroke-width="1.1" stroke-miterlimit="10"/>
<path d="M208.346 186.799C213.851 186.799 218.313 182.337 218.313 176.832C218.313 171.328 213.851 166.865 208.346 166.865C202.841 166.865 198.379 171.328 198.379 176.832C198.379 182.337 202.841 186.799 208.346 186.799Z" stroke="#070707" stroke-miterlimit="10"/>
<path d="M206.804 171.85C206.804 171.85 203.703 179.949 210.353 181.545C210.353 181.545 207.142 183.758 203.293 178.795C203.293 178.795 201.66 173.855 206.804 171.85Z" fill="#070707"/>
<path d="M108.819 221.115C108.819 221.115 108.646 233.511 113.376 238.272C118.105 243.034 117.914 247.649 114.227 246.542C110.54 245.436 94.0508 229.412 94.0508 229.412C94.0508 229.412 95.152 223.863 97.9716 223.068C100.791 222.273 105.997 219.464 103.089 215.088L108.819 221.115Z" fill="#ECE856" stroke="#070707" stroke-width="1.08" stroke-linejoin="bevel"/>
<path d="M94.0291 228.312C94.0291 228.312 112.915 245.504 116.448 245.93C116.448 245.93 115.993 248.215 112.897 246.462C109.8 244.709 93.6328 229.823 93.6328 229.823L94.0291 228.312Z" fill="white" stroke="#070707" stroke-width="1.07" stroke-miterlimit="10"/>
<path d="M146.036 149.359C145.543 161.92 109.625 222.826 109.625 222.826L101.539 219.184C101.539 219.184 105.917 200.266 108.149 197.721C113.025 192.167 120.101 190.712 118.563 185.043C117.161 179.88 118.914 170.022 119.021 167.711C119.021 167.711 111.974 146.018 131.557 131.037L146.036 149.359Z" fill="#ECE856" stroke="#070707" stroke-width="1.08" stroke-linejoin="bevel"/>
<path d="M102.332 219.592L108.852 222.579L109.091 226.795L102.141 219.946L102.332 219.592Z" fill="#070707"/>
<path d="M143.878 232.599C143.878 232.599 149.69 243.37 156.056 244.931C162.421 246.492 164.474 250.576 160.766 251.597C157.058 252.618 135.148 247.668 135.148 247.668C135.148 247.668 133.43 242.298 135.475 240.1C137.521 237.903 140.651 232.692 136.042 230.477L143.878 232.599Z" fill="#ECE856" stroke="#070707" stroke-width="1.08" stroke-linejoin="bevel"/>
<path d="M135.075 247.514C135.075 247.514 159.281 252.472 162.712 250.945C162.712 250.945 163.459 253.158 159.743 253.297C156.027 253.435 134.809 249.376 134.809 249.376L135.075 247.514Z" fill="white" stroke="#070707" stroke-width="1.1" stroke-miterlimit="10"/>
<path d="M146.356 149.054C151.974 160.135 145.907 233.376 145.907 233.376L137.185 234.589C137.185 234.589 131.865 215.945 132.556 212.556C134.081 205.156 139.472 200.104 135.424 196.048C131.734 192.356 128.117 177.75 127.095 175.701C127.095 175.701 114.859 167.189 120.642 142.561L146.356 149.054Z" fill="#ECE856" stroke="#070707" stroke-width="1.08" stroke-linejoin="bevel"/>
<path d="M138.398 234.347L144.25 233.549L146.841 237.345L138.398 235.145V234.347Z" fill="#070707"/>
<path d="M125.445 83.931L125.499 89.243L133.213 89.509V83.125H125.765L125.445 83.931Z" fill="white" stroke="#070707" stroke-width="1.04" stroke-miterlimit="10"/>
<path d="M124.883 88.5772L126.08 85.457L134.725 87.7792L144.301 107.995L148.291 155.875L116.105 148.959L124.883 88.5772Z" fill="#56627B" stroke="#070707" stroke-width="1.1" stroke-miterlimit="10"/>
<path d="M117.194 149.24L148.241 155.877L148.595 161.753L116.891 150.179L117.194 149.24Z" fill="#070707"/>
<path d="M133.534 66.7668L134.113 68.4932C134.159 68.6246 134.231 68.7457 134.324 68.8496L137.782 72.6454C138.314 73.2333 137.997 74.1723 137.167 74.4516C136.906 74.5291 136.678 74.692 136.519 74.9143C136.361 75.1365 136.282 75.4053 136.295 75.6778C136.468 77.4473 136.04 79.2236 135.08 80.7199C134.119 82.2161 132.682 83.3448 131.001 83.9238L125.399 85.8071C125.109 85.9227 124.785 85.9187 124.498 85.7961C124.211 85.6735 123.984 85.4422 123.867 85.1527L119.279 71.5548C119.198 71.2533 119.239 70.932 119.394 70.661C119.549 70.39 119.805 70.1912 120.106 70.1078L131.988 66.1178C132.132 66.0587 132.286 66.0286 132.442 66.0293C132.598 66.03 132.752 66.0613 132.895 66.1216C133.039 66.1819 133.169 66.2699 133.279 66.3807C133.388 66.4914 133.475 66.6226 133.534 66.7668Z" fill="white" stroke="#070707" stroke-width="1.04" stroke-miterlimit="10"/>
<path d="M185.082 192.101L193.291 177.077L204.577 175.611V185.432L185.082 192.101Z" fill="white" stroke="#070707" stroke-width="1.1" stroke-miterlimit="10"/>
<path d="M193.258 176.983C193.319 176.884 185.121 192.108 185.121 192.108L204.603 185.458C204.603 185.458 182.477 193.943 193.258 176.983Z" fill="#070707"/>
<path d="M232.352 152.955L241.457 136.293L253.972 134.668V145.561L232.352 152.955Z" fill="white" stroke="#070707" stroke-width="1.22" stroke-miterlimit="10"/>
<path d="M241.417 136.192C241.486 136.083 232.395 152.966 232.395 152.966L253.999 145.595C253.999 145.595 229.474 154.998 241.417 136.192Z" fill="#070707"/>
<path d="M73.2051 80.5333C80.4183 80.5333 86.2657 74.6859 86.2657 67.4727C86.2657 60.2595 80.4183 54.4121 73.2051 54.4121C65.992 54.4121 60.1445 60.2595 60.1445 67.4727C60.1445 74.6859 65.992 80.5333 73.2051 80.5333Z" fill="white" stroke="#070707" stroke-width="1.05" stroke-miterlimit="10"/>
<path d="M65.8465 56.7305C65.8465 56.7305 58.2123 77.4519 83.5036 75.4994C83.5036 75.4994 75.3959 84.9424 64.7639 77.4439C64.7639 77.4439 53.2328 68.4424 65.8465 56.7305Z" fill="#070707"/>
<path d="M66.3169 227.151C69.0699 227.151 71.3017 224.92 71.3017 222.166C71.3017 219.413 69.0699 217.182 66.3169 217.182C63.5638 217.182 61.332 219.413 61.332 222.166C61.332 224.92 63.5638 227.151 66.3169 227.151Z" fill="#BF6C2B" stroke="#070707" stroke-width="1.1" stroke-miterlimit="10"/>
<path d="M63.5088 218.066C63.5088 218.066 60.5961 225.972 70.2466 225.227C70.2466 225.227 67.153 228.831 63.0965 225.969C63.0965 225.969 58.6969 222.535 63.5088 218.066Z" fill="#070707"/>
<path d="M66.6484 253.764V227.164" stroke="#070707" stroke-width="1.2" stroke-miterlimit="10"/>
<path d="M39.5803 235.012H58.4663C58.4663 235.012 66.7123 235.278 66.7123 253.366C66.7123 253.366 46.4963 253.898 47.0283 245.386C47.0283 245.386 35.8563 243.258 39.5803 235.012Z" fill="#BF6C2B" stroke="#070707" stroke-width="1.1" stroke-miterlimit="10"/>
<path d="M93.8976 235.012H75.0116C75.0116 235.012 66.7656 235.278 66.7656 253.366C66.7656 253.366 86.9816 253.898 86.4496 245.386C86.4496 245.386 97.6216 243.258 93.8976 235.012Z" fill="white" stroke="#070707" stroke-width="1.1" stroke-miterlimit="10"/>
<path d="M53.4797 103.598C53.7076 103.797 53.9234 104.01 54.1261 104.234C55.1852 105.404 55.8738 106.861 56.1046 108.423C56.3355 109.984 56.0983 111.578 55.4231 113.004C54.7479 114.431 53.6649 115.625 52.3112 116.436C50.9574 117.247 49.3936 117.638 47.8175 117.56C46.2414 117.483 44.7236 116.939 43.4562 115.999C42.1888 115.059 41.2286 113.764 40.697 112.278C40.1653 110.793 40.0861 109.182 40.4694 107.652C40.8527 106.121 41.6813 104.738 42.8504 103.678C42.9781 103.561 43.1164 103.452 43.2414 103.346C43.2275 103.336 43.2141 103.325 43.2015 103.314C42.3402 102.554 41.6535 101.616 41.1885 100.566C40.7234 99.5155 40.491 98.377 40.5072 97.2284C40.5233 96.0798 40.7877 94.9483 41.2822 93.9114C41.7766 92.8746 42.4894 91.9569 43.3717 91.2213C43.3132 91.1761 43.2574 91.1282 43.2015 91.0777C41.985 89.9942 41.1293 88.5644 40.7493 86.9803C40.3692 85.3962 40.4831 83.7337 41.0756 82.2162C41.6681 80.6988 42.7109 79.399 44.0637 78.4915C45.4166 77.584 47.0148 77.1123 48.6436 77.1398C50.2724 77.1673 51.8538 77.6926 53.1753 78.6451C54.4968 79.5977 55.4952 80.9319 56.0362 82.4685C56.5772 84.0051 56.6349 85.6705 56.2017 87.2408C55.7685 88.8112 54.8651 90.2114 53.6127 91.2533C53.6713 91.2985 53.7271 91.3464 53.783 91.3969C54.6531 92.1678 55.3443 93.1196 55.8082 94.1855C56.2721 95.2515 56.4975 96.4059 56.4686 97.5681C56.4397 98.7303 56.1573 99.8721 55.641 100.914C55.1247 101.955 54.3871 102.872 53.4797 103.598Z" fill="#BE7880" stroke="#070707" stroke-width="1.1" stroke-miterlimit="10"/>
<path d="M47.7539 117.74V253.765" stroke="#070707" stroke-width="1.13" stroke-miterlimit="10"/>
<path d="M40.6998 83.3223C40.6998 83.3223 43.3199 90.8394 47.5759 90.5734C47.5759 90.5734 38.2659 97.7554 45.9799 103.075C45.9799 103.075 40.5269 112.952 46.1794 117.322C46.1794 117.322 41.2743 116.939 40.3034 110.14C40.3034 110.14 39.8619 105.735 43.3199 103.341C43.3199 103.341 40.2236 101.517 40.5748 96.0451C40.5748 96.0451 40.6599 93.7654 43.3199 91.1054C43.3066 91.1054 40.1917 89.6424 40.6998 83.3223Z" fill="#070707"/>
<path d="M77.6329 188.094C80.6857 188.094 83.1604 185.619 83.1604 182.567C83.1604 179.514 80.6857 177.039 77.6329 177.039C74.5802 177.039 72.1055 179.514 72.1055 182.567C72.1055 185.619 74.5802 188.094 77.6329 188.094Z" fill="#BE7880" stroke="#070707" stroke-width="1.22" stroke-miterlimit="10"/>
<path d="M74.5197 178.018C74.5197 178.018 71.2905 186.796 81.9916 185.96C81.9916 185.96 78.5602 189.95 74.0622 186.785C74.0622 186.785 69.1837 182.976 74.5197 178.018Z" fill="#070707"/>
<path d="M165.145 228.791C168.197 228.791 170.672 226.317 170.672 223.264C170.672 220.211 168.197 217.736 165.145 217.736C162.092 217.736 159.617 220.211 159.617 223.264C159.617 226.317 162.092 228.791 165.145 228.791Z" fill="#BE7880" stroke="#070707" stroke-width="1.22" stroke-miterlimit="10"/>
<path d="M162.035 218.717C162.035 218.717 158.806 227.495 169.507 226.66C169.507 226.66 166.076 230.65 161.578 227.484C161.578 227.484 156.699 223.675 162.035 218.717Z" fill="#070707"/>
<path d="M152.898 57.5885L178.966 34.9785L191.468 68.7605L159.016 70.6225L152.898 57.5885Z" fill="white" stroke="#070707" stroke-width="1.43" stroke-miterlimit="10"/>
<path d="M153.695 59.4512L148.641 62.1112L153.163 71.6872L158.368 69.3916L153.695 59.4512Z" fill="white" stroke="#070707" stroke-width="1.43" stroke-miterlimit="10"/>
<path d="M156.978 72.6172L154.073 75.3224C154.073 75.3224 152.621 78.9294 155.161 78.3282C157.702 77.727 161.333 75.623 159.883 74.4207C159 73.692 158.023 73.0854 156.978 72.6172Z" fill="white" stroke="#070707" stroke-width="1.78" stroke-miterlimit="10"/>
<path d="M78.4825 119.815L181.323 106.568L202.721 121.621L189.301 145.447L84.4276 158.295L62.9375 139.957C62.9375 139.957 78.6874 121.414 78.4825 119.815Z" fill="white" stroke="#070707" stroke-width="1.76" stroke-miterlimit="10"/>
<path d="M175.148 136.725L190.225 131.849C190.225 131.849 193.826 127.279 186.823 128.569L180.082 129.79L174.496 133.07L175.148 136.725Z" fill="white" stroke="#070707" stroke-width="1.48" stroke-miterlimit="10"/>
<path d="M138.002 99.0859C138.002 99.0859 148.29 130.873 149.987 131.152C151.685 131.432 177.734 130.157 177.734 130.157L178.753 136.275L143.992 140.074L122.855 109.117" fill="#56627B"/>
<path d="M138.002 99.0859C138.002 99.0859 148.29 130.873 149.987 131.152C151.685 131.432 177.734 130.157 177.734 130.157L178.753 136.275L143.992 140.074L122.855 109.117" stroke="#070707" stroke-width="1.1" stroke-miterlimit="10"/>
<path d="M125.631 69.4251C125.631 69.4251 135.739 71.8191 137.069 68.0951C138.399 64.3711 134.143 57.9871 126.163 61.9771C118.183 65.9671 110.469 79.7991 117.119 89.3751C123.769 98.9511 102.755 128.211 113.661 130.605C124.567 132.999 139.729 128.211 135.739 119.699C131.749 111.187 129.621 100.547 132.281 97.0891C134.941 93.6311 137.867 71.8191 125.631 69.4251Z" fill="#202124"/>
</svg>
