<svg width="26" height="26" viewBox="0 0 26 26" fill="none" xmlns="http://www.w3.org/2000/svg">
<path d="M18.3329 6.33404C18.3329 5.59767 18.9299 5.00071 19.6663 5.00071C20.4026 5.00071 20.9996 5.59767 20.9996 6.33404C20.9996 7.07042 20.4026 7.66738 19.6663 7.66738C18.9299 7.66738 18.3329 7.07042 18.3329 6.33404Z" fill="white"/>
<path fill-rule="evenodd" clip-rule="evenodd" d="M12.9996 6.66738C9.50179 6.66738 6.66626 9.50291 6.66626 13.0007C6.66626 16.4985 9.50179 19.334 12.9996 19.334C16.4974 19.334 19.3329 16.4985 19.3329 13.0007C19.3329 9.50291 16.4974 6.66738 12.9996 6.66738ZM8.66626 13.0007C8.66626 10.6075 10.6064 8.66738 12.9996 8.66738C15.3928 8.66738 17.3329 10.6075 17.3329 13.0007C17.3329 15.3939 15.3928 17.334 12.9996 17.334C10.6064 17.334 8.66626 15.3939 8.66626 13.0007Z" fill="white"/>
<path fill-rule="evenodd" clip-rule="evenodd" d="M20.0106 0.778066C15.3885 0.261478 10.6107 0.261478 5.98862 0.778066C3.30588 1.0779 1.1401 3.19125 0.824694 5.88795C0.271977 10.6137 0.271977 15.3877 0.824694 20.1135C1.1401 22.8102 3.30588 24.9235 5.98862 25.2234C10.6107 25.7399 15.3885 25.7399 20.0106 25.2234C22.6933 24.9235 24.8591 22.8102 25.1745 20.1135C25.7272 15.3877 25.7272 10.6137 25.1745 5.88795C24.8591 3.19125 22.6933 1.0779 20.0106 0.778066ZM6.21076 2.76569C10.6852 2.2656 15.314 2.2656 19.7885 2.76569C21.5619 2.9639 22.9826 4.36339 23.1881 6.12029C23.7227 10.6917 23.7227 15.3098 23.1881 19.8811C22.9826 21.638 21.5619 23.0375 19.7885 23.2357C15.314 23.7358 10.6852 23.7358 6.21077 23.2357C4.43729 23.0375 3.01664 21.638 2.81115 19.8811C2.27649 15.3098 2.27649 10.6917 2.81115 6.12029C3.01664 4.36339 4.43729 2.9639 6.21076 2.76569Z" fill="white"/>
</svg>
