<svg width="28" height="28" viewBox="0 0 28 28" fill="none" xmlns="http://www.w3.org/2000/svg">
<path fill-rule="evenodd" clip-rule="evenodd" d="M3.66667 0.666016C1.64162 0.666016 0 2.30764 0 4.33268C0 6.35773 1.64162 7.99935 3.66667 7.99935C5.69171 7.99935 7.33333 6.35773 7.33333 4.33268C7.33333 2.30764 5.69171 0.666016 3.66667 0.666016ZM2 4.33268C2 3.41221 2.74619 2.66602 3.66667 2.66602C4.58714 2.66602 5.33333 3.41221 5.33333 4.33268C5.33333 5.25316 4.58714 5.99935 3.66667 5.99935C2.74619 5.99935 2 5.25316 2 4.33268Z" fill="white"/>
<path fill-rule="evenodd" clip-rule="evenodd" d="M0 9.66602C0 9.11373 0.447715 8.66602 1 8.66602H6.33333C6.88562 8.66602 7.33333 9.11373 7.33333 9.66602V26.9993C7.33333 27.5516 6.88562 27.9993 6.33333 27.9993H1C0.447715 27.9993 0 27.5516 0 26.9993V9.66602ZM2 10.666V25.9993H5.33333V10.666H2Z" fill="white"/>
<path fill-rule="evenodd" clip-rule="evenodd" d="M9.33333 9.66602C9.33333 9.11373 9.78105 8.66602 10.3333 8.66602H15.6667C16.219 8.66602 16.6667 9.11373 16.6667 9.66602V10.2447L17.247 9.99599C18.2448 9.56837 19.3118 9.30021 20.391 9.2021C24.0909 8.86575 27.3333 11.7732 27.3333 15.5063V26.9993C27.3333 27.5516 26.8856 27.9993 26.3333 27.9993H21C20.4477 27.9993 20 27.5516 20 26.9993V17.666C20 17.224 19.8244 16.8001 19.5118 16.4875C19.1993 16.1749 18.7754 15.9993 18.3333 15.9993C17.8913 15.9993 17.4674 16.1749 17.1548 16.4875C16.8423 16.8001 16.6667 17.224 16.6667 17.666V26.9993C16.6667 27.5516 16.219 27.9993 15.6667 27.9993H10.3333C9.78105 27.9993 9.33333 27.5516 9.33333 26.9993V9.66602ZM11.3333 10.666V25.9993H14.6667V17.666C14.6667 16.6936 15.053 15.7609 15.7406 15.0733C16.4282 14.3857 17.3609 13.9993 18.3333 13.9993C19.3058 13.9993 20.2384 14.3857 20.9261 15.0733C21.6137 15.7609 22 16.6936 22 17.666V25.9993H25.3333V15.5063C25.3333 12.9672 23.1187 10.9624 20.5721 11.1939C19.7 11.2732 18.8379 11.4901 18.0349 11.8343L16.0606 12.6804C15.7516 12.8128 15.3968 12.7811 15.1162 12.5961C14.8356 12.4111 14.6667 12.0974 14.6667 11.7613V10.666H11.3333Z" fill="white"/>
</svg>
