<svg width="254" height="46" viewBox="0 0 254 46" fill="none" xmlns="http://www.w3.org/2000/svg">
<line y1="-0.5" x2="253.001" y2="-0.5" transform="matrix(0.999996 -0.00293109 0.00606317 0.999982 1 45.7417)" stroke="#6D6C6C"/>
<path d="M15.2748 15.6899H19.67V34.6816H15.2748V15.6899ZM6.6471 34.6816H2.25187V15.6899H6.6471V34.6816ZM15.6003 26.895H6.32152V23.1781H15.6003V26.895ZM33.3879 35.0072C31.8866 35.0072 30.4939 34.763 29.2097 34.2747C27.9436 33.7863 26.8403 33.099 25.8997 32.2127C24.9773 31.3264 24.2538 30.2864 23.7292 29.0927C23.2228 27.8989 22.9696 26.5966 22.9696 25.1858C22.9696 23.775 23.2228 22.4727 23.7292 21.2789C24.2538 20.0852 24.9863 19.0451 25.9269 18.1589C26.8674 17.2726 27.9707 16.5853 29.2368 16.0969C30.5029 15.6085 31.8776 15.3644 33.3607 15.3644C34.862 15.3644 36.2366 15.6085 37.4847 16.0969C38.7508 16.5853 39.8451 17.2726 40.7675 18.1589C41.7081 19.0451 42.4406 20.0852 42.9651 21.2789C43.4897 22.4546 43.7519 23.7569 43.7519 25.1858C43.7519 26.5966 43.4897 27.9079 42.9651 29.1198C42.4406 30.3135 41.7081 31.3536 40.7675 32.2399C39.8451 33.108 38.7508 33.7863 37.4847 34.2747C36.2366 34.763 34.871 35.0072 33.3879 35.0072ZM33.3607 31.2631C34.2109 31.2631 34.9886 31.1184 35.694 30.829C36.4175 30.5396 37.0506 30.1236 37.5932 29.581C38.1358 29.0384 38.5518 28.3963 38.8412 27.6547C39.1487 26.9131 39.3024 26.0902 39.3024 25.1858C39.3024 24.2814 39.1487 23.4584 38.8412 22.7169C38.5518 21.9753 38.1358 21.3332 37.5932 20.7906C37.0686 20.2479 36.4446 19.8319 35.7211 19.5425C34.9976 19.2531 34.2109 19.1084 33.3607 19.1084C32.5106 19.1084 31.7238 19.2531 31.0003 19.5425C30.2949 19.8319 29.6709 20.2479 29.1283 20.7906C28.5857 21.3332 28.1606 21.9753 27.8532 22.7169C27.5638 23.4584 27.4191 24.2814 27.4191 25.1858C27.4191 26.0721 27.5638 26.895 27.8532 27.6547C28.1606 28.3963 28.5766 29.0384 29.1012 29.581C29.6438 30.1236 30.2769 30.5396 31.0003 30.829C31.7238 31.1184 32.5106 31.2631 33.3607 31.2631ZM50.7242 34.6816V19.2712H44.6468V15.6899H61.1967V19.2712H55.1194V34.6816H50.7242ZM80.4426 35.0072C78.9594 35.0072 77.5757 34.763 76.2915 34.2747C75.0254 33.7863 73.9221 33.099 72.9815 32.2127C72.0591 31.3264 71.3356 30.2864 70.8111 29.0927C70.3046 27.8989 70.0514 26.5966 70.0514 25.1858C70.0514 23.775 70.3046 22.4727 70.8111 21.2789C71.3356 20.0852 72.0681 19.0451 73.0087 18.1589C73.9492 17.2726 75.0525 16.5853 76.3187 16.0969C77.5848 15.6085 78.9594 15.3644 80.4426 15.3644C81.9438 15.3644 83.3185 15.6085 84.5665 16.0969C85.8326 16.5853 86.9269 17.2726 87.8493 18.1589C88.7899 19.0271 89.5224 20.058 90.0469 21.2518C90.5715 22.4456 90.8337 23.7569 90.8337 25.1858C90.8337 26.5966 90.5715 27.9079 90.0469 29.1198C89.5224 30.3135 88.7899 31.3536 87.8493 32.2399C86.9269 33.108 85.8326 33.7863 84.5665 34.2747C83.3185 34.763 81.9438 35.0072 80.4426 35.0072ZM86.6556 39.0497C85.914 39.0497 85.2086 38.9683 84.5393 38.8056C83.8882 38.6428 83.2371 38.3805 82.5859 38.0188C81.9529 37.657 81.2836 37.1686 80.5782 36.5537C79.8909 35.9387 79.1403 35.179 78.3264 34.2747L82.9386 33.108C83.427 33.7773 83.8792 34.3109 84.2952 34.7088C84.7112 35.1067 85.1091 35.387 85.4889 35.5498C85.8869 35.7126 86.3029 35.794 86.737 35.794C87.8946 35.794 88.9255 35.3237 89.8299 34.3832L91.7833 36.7165C90.4991 38.272 88.7899 39.0497 86.6556 39.0497ZM80.4426 31.2631C81.2927 31.2631 82.0704 31.1184 82.7758 30.829C83.4993 30.5396 84.1324 30.1236 84.675 29.581C85.2176 29.0384 85.6336 28.3963 85.923 27.6547C86.2305 26.895 86.3843 26.0721 86.3843 25.1858C86.3843 24.2814 86.2305 23.4584 85.923 22.7169C85.6336 21.9753 85.2176 21.3332 84.675 20.7906C84.1324 20.2479 83.4993 19.8319 82.7758 19.5425C82.0704 19.2531 81.2927 19.1084 80.4426 19.1084C79.5925 19.1084 78.8057 19.2531 78.0822 19.5425C77.3587 19.8319 76.7256 20.2479 76.183 20.7906C75.6585 21.3332 75.2425 21.9753 74.935 22.7169C74.6456 23.4584 74.5009 24.2814 74.5009 25.1858C74.5009 26.0721 74.6456 26.895 74.935 27.6547C75.2425 28.3963 75.6585 29.0384 76.183 29.581C76.7256 30.1236 77.3587 30.5396 78.0822 30.829C78.8057 31.1184 79.5925 31.2631 80.4426 31.2631ZM102.575 35.0072C99.8797 35.0072 97.7725 34.2566 96.2532 32.7553C94.7338 31.2541 93.9742 29.1107 93.9742 26.3253V15.6899H98.3694V26.1625C98.3694 27.9712 98.7402 29.2735 99.4818 30.0694C100.223 30.8652 101.263 31.2631 102.602 31.2631C103.94 31.2631 104.98 30.8652 105.722 30.0694C106.463 29.2735 106.834 27.9712 106.834 26.1625V15.6899H111.175V26.3253C111.175 29.1107 110.416 31.2541 108.896 32.7553C107.377 34.2566 105.27 35.0072 102.575 35.0072ZM119.561 23.3409H128.704V26.7594H119.561V23.3409ZM119.887 31.1546H130.224V34.6816H115.519V15.6899H129.871V19.217H119.887V31.1546ZM139.961 35.0072C138.441 35.0072 136.985 34.8083 135.593 34.4103C134.2 33.9943 133.079 33.4607 132.228 32.8096L133.721 29.4996C134.535 30.0784 135.493 30.5577 136.597 30.9376C137.718 31.2993 138.848 31.4802 139.988 31.4802C140.856 31.4802 141.552 31.3988 142.077 31.236C142.62 31.0551 143.018 30.811 143.271 30.5035C143.524 30.196 143.651 29.8433 143.651 29.4454C143.651 28.9389 143.452 28.541 143.054 28.2516C142.656 27.9441 142.131 27.6999 141.48 27.5191C140.829 27.3201 140.105 27.1392 139.31 26.9764C138.532 26.7956 137.745 26.5785 136.949 26.3253C136.171 26.0721 135.457 25.7465 134.806 25.3486C134.155 24.9507 133.621 24.4261 133.205 23.775C132.807 23.1238 132.608 22.2918 132.608 21.2789C132.608 20.1937 132.898 19.2079 133.476 18.3216C134.073 17.4173 134.96 16.7028 136.135 16.1783C137.329 15.6357 138.821 15.3644 140.612 15.3644C141.806 15.3644 142.981 15.5091 144.139 15.7985C145.297 16.0698 146.318 16.4858 147.205 17.0465L145.848 20.3836C144.962 19.8772 144.076 19.5064 143.189 19.2712C142.303 19.018 141.435 18.8914 140.585 18.8914C139.735 18.8914 139.038 18.9909 138.496 19.1898C137.953 19.3888 137.564 19.6511 137.329 19.9766C137.094 20.2841 136.976 20.6459 136.976 21.0619C136.976 21.5502 137.175 21.9482 137.573 22.2556C137.971 22.545 138.496 22.7802 139.147 22.961C139.798 23.1419 140.512 23.3228 141.29 23.5037C142.086 23.6845 142.873 23.8925 143.651 24.1277C144.446 24.3628 145.17 24.6793 145.821 25.0773C146.472 25.4752 146.997 25.9997 147.395 26.6509C147.811 27.302 148.019 28.125 148.019 29.1198C148.019 30.1869 147.72 31.1637 147.123 32.0499C146.526 32.9362 145.631 33.6507 144.437 34.1933C143.262 34.7359 141.77 35.0072 139.961 35.0072ZM154.691 34.6816V19.2712H148.614V15.6899H165.164V19.2712H159.086V34.6816H154.691ZM167.528 34.6816V15.6899H171.924V34.6816H167.528ZM185.655 35.0072C184.154 35.0072 182.761 34.763 181.477 34.2747C180.211 33.7863 179.108 33.099 178.167 32.2127C177.245 31.3264 176.521 30.2864 175.997 29.0927C175.49 27.8989 175.237 26.5966 175.237 25.1858C175.237 23.775 175.49 22.4727 175.997 21.2789C176.521 20.0852 177.254 19.0451 178.194 18.1589C179.135 17.2726 180.238 16.5853 181.504 16.0969C182.77 15.6085 184.145 15.3644 185.628 15.3644C187.129 15.3644 188.504 15.6085 189.752 16.0969C191.018 16.5853 192.113 17.2726 193.035 18.1589C193.975 19.0451 194.708 20.0852 195.233 21.2789C195.757 22.4546 196.019 23.7569 196.019 25.1858C196.019 26.5966 195.757 27.9079 195.233 29.1198C194.708 30.3135 193.975 31.3536 193.035 32.2399C192.113 33.108 191.018 33.7863 189.752 34.2747C188.504 34.763 187.138 35.0072 185.655 35.0072ZM185.628 31.2631C186.478 31.2631 187.256 31.1184 187.961 30.829C188.685 30.5396 189.318 30.1236 189.861 29.581C190.403 29.0384 190.819 28.3963 191.109 27.6547C191.416 26.9131 191.57 26.0902 191.57 25.1858C191.57 24.2814 191.416 23.4584 191.109 22.7169C190.819 21.9753 190.403 21.3332 189.861 20.7906C189.336 20.2479 188.712 19.8319 187.989 19.5425C187.265 19.2531 186.478 19.1084 185.628 19.1084C184.778 19.1084 183.991 19.2531 183.268 19.5425C182.562 19.8319 181.938 20.2479 181.396 20.7906C180.853 21.3332 180.428 21.9753 180.121 22.7169C179.831 23.4584 179.687 24.2814 179.687 25.1858C179.687 26.0721 179.831 26.895 180.121 27.6547C180.428 28.3963 180.844 29.0384 181.369 29.581C181.911 30.1236 182.544 30.5396 183.268 30.829C183.991 31.1184 184.778 31.2631 185.628 31.2631ZM199.323 34.6816V15.6899H202.958L214.163 29.364H212.4V15.6899H216.741V34.6816H213.132L201.9 21.0076H203.664V34.6816H199.323ZM227.474 35.0072C225.955 35.0072 224.499 34.8083 223.106 34.4103C221.713 33.9943 220.592 33.4607 219.742 32.8096L221.234 29.4996C222.048 30.0784 223.007 30.5577 224.11 30.9376C225.231 31.2993 226.362 31.4802 227.501 31.4802C228.369 31.4802 229.066 31.3988 229.59 31.236C230.133 31.0551 230.531 30.811 230.784 30.5035C231.037 30.196 231.164 29.8433 231.164 29.4454C231.164 28.9389 230.965 28.541 230.567 28.2516C230.169 27.9441 229.645 27.6999 228.993 27.5191C228.342 27.3201 227.619 27.1392 226.823 26.9764C226.045 26.7956 225.258 26.5785 224.463 26.3253C223.685 26.0721 222.97 25.7465 222.319 25.3486C221.668 24.9507 221.135 24.4261 220.719 23.775C220.321 23.1238 220.122 22.2918 220.122 21.2789C220.122 20.1937 220.411 19.2079 220.99 18.3216C221.587 17.4173 222.473 16.7028 223.649 16.1783C224.842 15.6357 226.335 15.3644 228.125 15.3644C229.319 15.3644 230.495 15.5091 231.652 15.7985C232.81 16.0698 233.832 16.4858 234.718 17.0465L233.362 20.3836C232.475 19.8772 231.589 19.5064 230.703 19.2712C229.816 19.018 228.948 18.8914 228.098 18.8914C227.248 18.8914 226.552 18.9909 226.009 19.1898C225.466 19.3888 225.078 19.6511 224.842 19.9766C224.607 20.2841 224.49 20.6459 224.49 21.0619C224.49 21.5502 224.689 21.9482 225.087 22.2556C225.485 22.545 226.009 22.7802 226.66 22.961C227.311 23.1419 228.026 23.3228 228.804 23.5037C229.599 23.6845 230.386 23.8925 231.164 24.1277C231.96 24.3628 232.683 24.6793 233.334 25.0773C233.986 25.4752 234.51 25.9997 234.908 26.6509C235.324 27.302 235.532 28.125 235.532 29.1198C235.532 30.1869 235.234 31.1637 234.637 32.0499C234.04 32.9362 233.145 33.6507 231.951 34.1933C230.775 34.7359 229.283 35.0072 227.474 35.0072Z" fill="#070707"/>
<g clip-path="url(#clip0_3705_686)">
<path d="M44.1855 14.3141C42.8944 14.5715 41.7803 15.2318 41.2584 16.3706C40.944 17.0617 40.5045 18.8467 39.2988 18.3851C38.722 18.1668 38.7311 17.4086 38.7983 16.9358C38.9417 15.9649 39.4179 15.078 39.7445 14.1547C40.0802 13.1978 40.3702 12.2353 40.5777 11.2449C41.2736 7.96574 41.0813 4.1886 38.551 1.56698C38.1237 1.11932 37.0463 0.0841007 36.3351 0.0617176C35.8956 0.0505261 36.329 0.526166 36.4511 0.685646C36.6983 1.013 36.9059 1.36833 37.0646 1.74045C38.9356 6.11634 34.3237 9.44862 31.2928 12.0423C29.8399 13.2873 28.6801 14.6079 27.6362 16.1496C27.5324 16.2978 27.3035 16.7959 27.0075 16.6923C26.6565 16.5692 26.6198 15.8334 26.5099 15.5592C26.3024 15.0332 25.9819 14.4596 25.5699 14.0483C24.7732 13.2481 23.6592 12.7082 22.4535 12.7809C22.4077 12.7837 22.2765 12.8033 22.1147 12.8369C21.8614 12.8872 21.1838 12.9684 21.3669 13.3433C21.4615 13.5363 21.7393 13.5195 21.9377 13.5727C24.4833 14.289 24.4253 16.7343 24.0132 18.6984C23.2685 22.2741 21.2052 25.654 22.6702 29.3304C24.3978 33.6643 29.8064 36.3699 34.7144 35.6256C36.0543 35.4242 37.5987 35.0269 38.8013 34.4337C40.0802 33.8014 41.4812 32.9369 42.4793 31.9632C43.7642 30.7125 44.5822 29.1094 44.8234 27.411C45.1072 25.4469 44.4235 23.5947 43.8009 21.7397C43.05 19.5014 42.1862 15.8474 45.3056 14.7534C45.4582 14.6975 45.7635 14.6555 45.8703 14.5072C46.2671 13.9644 44.3625 14.2806 44.1855 14.3141Z" fill="#ED6C30"/>
<path d="M34.889 29.6772C35.5361 30.1752 36.4426 29.9318 37.053 29.5065C37.3796 29.2799 37.6604 28.9889 37.8435 28.6504C37.9198 28.5049 38.0084 28.3202 38.0084 28.1551C38.0084 27.9341 37.8649 27.7159 37.926 27.4892C38.4387 27.3969 39.0736 28.7483 39.1377 29.0616C39.6505 31.5322 37.111 33.569 34.6601 33.9635C30.5243 34.6266 28.1466 31.3055 28.6227 28.3566C28.9188 26.5212 30.2618 25.2593 31.6292 24.0003C32.7616 22.9567 33.8115 22.0613 34.1778 20.7044C34.2419 20.4637 34.2266 20.0944 34.1503 19.8566C34.0862 19.6524 33.9642 19.4649 33.958 19.2439C33.9397 18.7794 34.4311 19.3866 34.5441 19.5041C35.9054 20.9114 36.293 22.9902 35.9298 24.8089C35.6948 25.984 34.7791 26.8233 34.4586 27.9481C34.2724 28.5888 34.2907 29.2127 34.889 29.6772Z" fill="#FCC21B"/>
</g>
<defs>
<clipPath id="clip0_3705_686">
<rect width="39.0686" height="35.8129" fill="white" transform="translate(14.1016)"/>
</clipPath>
</defs>
</svg>
