<svg width="18" height="14" viewBox="0 0 18 14" fill="none" xmlns="http://www.w3.org/2000/svg">
<path d="M1.87987 1.25325C1.71368 1.25325 1.5543 1.31927 1.43678 1.43678C1.31927 1.5543 1.25325 1.71368 1.25325 1.87987V11.9058C1.25325 12.072 1.31927 12.2314 1.43678 12.3489C1.5543 12.4664 1.71368 12.5325 1.87987 12.5325H15.6656C15.8318 12.5325 15.9912 12.4664 16.1087 12.3489C16.2262 12.2314 16.2922 12.072 16.2922 11.9058V1.87987C16.2922 1.71368 16.2262 1.5543 16.1087 1.43678C15.9912 1.31927 15.8318 1.25325 15.6656 1.25325H1.87987ZM1.87987 0H15.6656C16.1642 0 16.6423 0.198057 16.9949 0.550601C17.3474 0.903145 17.5455 1.3813 17.5455 1.87987V11.9058C17.5455 12.4044 17.3474 12.8826 16.9949 13.2351C16.6423 13.5877 16.1642 13.7857 15.6656 13.7857H1.87987C1.3813 13.7857 0.903145 13.5877 0.550601 13.2351C0.198057 12.8826 0 12.4044 0 11.9058V1.87987C0 1.3813 0.198057 0.903145 0.550601 0.550601C0.903145 0.198057 1.3813 0 1.87987 0Z" fill="#8ECAE6"/>
<path d="M12.5325 3.13281C12.8649 3.13281 13.1836 3.26485 13.4187 3.49988C13.6537 3.73491 13.7857 4.05368 13.7857 4.38606C13.7857 4.71844 13.6537 5.03721 13.4187 5.27224C13.1836 5.50727 12.8649 5.63931 12.5325 5.63931C12.2001 5.63931 11.8813 5.50727 11.6463 5.27224C11.4113 5.03721 11.2792 4.71844 11.2792 4.38606C11.2792 4.05368 11.4113 3.73491 11.6463 3.49988C11.8813 3.26485 12.2001 3.13281 12.5325 3.13281ZM4.38639 5.63931H9.39938C9.81712 5.63931 10.026 5.84818 10.026 6.26593C10.026 6.68368 9.81712 6.89255 9.39938 6.89255H4.38639C3.96864 6.89255 3.75977 6.68368 3.75977 6.26593C3.75977 5.84818 3.96864 5.63931 4.38639 5.63931ZM4.38639 8.1458H9.39938C9.81712 8.1458 10.026 8.35467 10.026 8.77242C10.026 9.19017 9.81712 9.39905 9.39938 9.39905H4.38639C3.96864 9.39905 3.75977 9.19017 3.75977 8.77242C3.75977 8.35467 3.96864 8.1458 4.38639 8.1458Z" fill="#8ECAE6"/>
</svg>
