<svg width="28" height="22" viewBox="0 0 28 22" fill="none" xmlns="http://www.w3.org/2000/svg">
<path fill-rule="evenodd" clip-rule="evenodd" d="M11.8467 6.1419C11.5378 5.95654 11.153 5.95168 10.8395 6.12919C10.526 6.3067 10.3322 6.63912 10.3322 6.99939V14.9994C10.3322 15.3597 10.526 15.6921 10.8395 15.8696C11.153 16.0471 11.5378 16.0422 11.8467 15.8569L18.5134 11.8569C18.8146 11.6762 18.9989 11.3507 18.9989 10.9994C18.9989 10.6481 18.8146 10.3226 18.5134 10.1419L11.8467 6.1419ZM16.0552 10.9994L12.3322 13.2332V8.76558L16.0552 10.9994Z" fill="white"/>
<path fill-rule="evenodd" clip-rule="evenodd" d="M20.7064 1.18776C16.2416 0.838454 11.7562 0.838454 7.29137 1.18776L4.30377 1.4215C2.48702 1.56363 1.00077 2.92524 0.700452 4.72263C0.00609939 8.87833 0.00609939 13.1204 0.700452 17.2761C1.00077 19.0735 2.48702 20.4351 4.30377 20.5773L7.29137 20.811C11.7562 21.1603 16.2416 21.1603 20.7064 20.811L23.694 20.5773C25.5108 20.4351 26.997 19.0735 27.2973 17.2761C27.9917 13.1204 27.9917 8.87833 27.2973 4.72263C26.997 2.92524 25.5108 1.56363 23.694 1.4215L20.7064 1.18776ZM7.44737 3.18167C11.8084 2.84048 16.1894 2.84048 20.5504 3.18167L23.538 3.41541C24.4388 3.48588 25.1758 4.16102 25.3247 5.05223C25.9826 8.98971 25.9826 13.0091 25.3247 16.9465C25.1758 17.8378 24.4388 18.5129 23.538 18.5834L20.5504 18.8171C16.1894 19.1583 11.8084 19.1583 7.44737 18.8171L4.45977 18.5834C3.55895 18.5129 2.82201 17.8378 2.67311 16.9465C2.01521 13.0091 2.01521 8.98971 2.67311 5.05223C2.82201 4.16102 3.55895 3.48588 4.45976 3.41541L7.44737 3.18167Z" fill="white"/>
</svg>
