<svg width="105" height="90" viewBox="0 0 105 90" fill="none" xmlns="http://www.w3.org/2000/svg">
<path fill-rule="evenodd" clip-rule="evenodd" d="M44.7713 75.6077C37.6483 79.3904 30.1163 82.7257 24.4128 88.6635C24.0721 89.0158 23.5184 89.0282 23.172 88.6877C22.8288 88.3457 22.8228 87.7835 23.162 87.428C28.9991 81.3521 36.6834 77.901 43.9723 74.0313C44.4022 73.8003 44.9329 73.9694 45.1525 74.405C45.3752 74.839 45.2012 75.3767 44.7713 75.6077Z" fill="white"/>
<path fill-rule="evenodd" clip-rule="evenodd" d="M40.2893 64.5977C37.0401 63.6308 33.8355 63.2928 30.4951 64.0041C30.018 64.1061 29.5565 63.7957 29.4604 63.3137C29.3674 62.8301 29.6786 62.3553 30.1525 62.255C33.7848 61.481 37.266 61.8315 40.7979 62.8816C41.2634 63.0189 41.527 63.5149 41.3844 63.9897C41.2448 64.4626 40.7515 64.7365 40.2893 64.5977Z" fill="white"/>
<path fill-rule="evenodd" clip-rule="evenodd" d="M35.523 38.4595C32.7826 35.3944 29.41 33.6136 25.3219 33.1573C24.8398 33.1032 24.4957 32.6609 24.5567 32.1688C24.6146 31.6784 25.0552 31.3228 25.5373 31.3769C30.0621 31.8829 33.7993 33.8511 36.8335 37.2448C37.1594 37.6073 37.1269 38.176 36.7667 38.5103C36.4033 38.8465 35.8456 38.8237 35.523 38.4595Z" fill="white"/>
<path fill-rule="evenodd" clip-rule="evenodd" d="M68.7695 15.9115C69.7319 16.3348 70.658 16.8465 71.5261 17.4505C71.9128 17.7192 72.658 18.3289 73.0391 18.981C73.4478 19.6745 73.4954 20.4086 73.022 21.0452C72.3928 21.8901 71.7067 22.179 71.0708 22.1777C70.4587 22.1771 69.8402 21.883 69.2849 21.3511C68.2243 20.3342 67.3841 18.3885 67.1087 17.1758C66.1275 16.8202 65.1134 16.5601 64.0815 16.3943C56.3951 15.1598 48.7109 20.8901 45.1679 30.2766C43.9283 33.5626 44.9899 38.6255 46.7436 43.783C49.4732 51.8138 54.0118 60.0362 55.2637 62.4842C55.5715 63.0893 55.6878 63.4818 55.6907 63.5704C55.7121 64.0025 55.4936 64.2272 55.3268 64.3545C55.0837 64.5359 54.8472 64.5911 54.6335 64.5871C54.3439 64.58 54.0508 64.4587 53.803 64.1691C53.6677 64.0084 53.5327 63.7578 53.4087 63.4808C53.3245 63.2876 53.2637 63.061 53.1609 62.9439C52.4988 62.1958 51.7958 61.4936 51.0962 60.7821C48.7517 58.3868 46.2085 56.3158 43.5277 54.3178C35.01 47.9687 26.407 41.0613 16.0248 38.1763C15.5592 38.0467 15.2862 37.5558 15.42 37.0792C15.5507 36.6041 16.0366 36.3231 16.5056 36.4514C27.0949 39.3925 35.8893 46.3971 44.5764 52.8715C46.8565 54.5713 49.04 56.3236 51.0901 58.2736C48.9734 54.0669 46.2052 48.1626 44.4944 42.5681C42.9726 37.5927 42.3245 32.8463 43.5292 29.652C47.4103 19.3693 55.9565 13.275 64.3743 14.6288C65.2748 14.774 66.1666 14.9832 67.0354 15.2593C67.4624 7.61457 73.3459 1.68566 80.9234 1.43946C81.4097 1.42296 81.8102 1.81102 81.8211 2.30354C81.8289 2.79766 81.4449 3.2101 80.9586 3.22661C74.1304 3.4486 68.8813 8.93907 68.7695 15.9115ZM69.2667 18.1499C69.6976 18.3877 70.116 18.6486 70.5246 18.9302C70.7421 19.0822 71.1376 19.3858 71.412 19.7395C71.4752 19.8229 71.5476 19.9667 71.5796 20.034C71.413 20.2525 71.2671 20.3907 71.0941 20.3898C70.8785 20.39 70.6922 20.2295 70.4977 20.0433C70.0087 19.5766 69.5764 18.8497 69.2667 18.1499Z" fill="white"/>
</svg>
