<svg width="22" height="32" viewBox="0 0 22 32" fill="none" xmlns="http://www.w3.org/2000/svg">
<path d="M0 4.00006C0 2.93918 0.386308 1.92175 1.07394 1.17159C1.76157 0.421434 2.69421 0 3.66667 0L18.3333 0C19.3058 0 20.2384 0.421434 20.9261 1.17159C21.6137 1.92175 22 2.93918 22 4.00006V31.0005C21.9999 31.1814 21.9549 31.3589 21.8696 31.514C21.7844 31.6692 21.6622 31.7962 21.516 31.8816C21.3698 31.967 21.2052 32.0075 21.0395 31.9989C20.8739 31.9902 20.7135 31.9327 20.5755 31.8325L11 26.2024L1.4245 31.8325C1.28646 31.9327 1.12609 31.9902 0.960468 31.9989C0.794846 32.0075 0.630177 31.967 0.483999 31.8816C0.337821 31.7962 0.215608 31.6692 0.130376 31.514C0.0451441 31.3589 8.56541e-05 31.1814 0 31.0005V4.00006ZM3.66667 2.00003C3.18044 2.00003 2.71412 2.21075 2.3703 2.58583C2.02649 2.96091 1.83333 3.46962 1.83333 4.00006V29.1325L10.4922 24.1684C10.6426 24.0592 10.8193 24.0009 11 24.0009C11.1807 24.0009 11.3574 24.0592 11.5078 24.1684L20.1667 29.1325V4.00006C20.1667 3.46962 19.9735 2.96091 19.6297 2.58583C19.2859 2.21075 18.8196 2.00003 18.3333 2.00003H3.66667Z" fill="#F13E3E"/>
</svg>
