<svg width="187" height="162" viewBox="0 0 187 162" fill="none" xmlns="http://www.w3.org/2000/svg">
<path fill-rule="evenodd" clip-rule="evenodd" d="M39.0529 37.716C42.5293 36.7427 46.169 36.2517 49.6997 35.8019C50.4601 35.7077 51.1662 36.2338 51.2205 36.9752C51.3291 37.7171 50.7856 38.3955 50.0795 38.4898C46.6574 38.9228 43.127 39.3861 39.8136 40.3231C39.1074 40.5263 38.3467 40.108 38.1294 39.3883C37.9121 38.6692 38.3468 37.9197 39.0529 37.716Z" fill="#FFB800"/>
<path fill-rule="evenodd" clip-rule="evenodd" d="M28.5158 23.9168C34.1106 18.2208 40.4116 13.258 45.8978 7.40914C46.3866 6.8629 47.2557 6.83364 47.7989 7.34357C48.3421 7.85405 48.3962 8.71243 47.853 9.25868C42.3668 15.1243 36.0659 20.1034 30.471 25.8162C29.9279 26.3494 29.059 26.357 28.5158 25.8325C28.0269 25.3084 27.9726 24.45 28.5158 23.9168Z" fill="#FFB800"/>
<path fill-rule="evenodd" clip-rule="evenodd" d="M18.0278 2.00842C17.8649 5.26855 17.7022 8.52868 17.5393 11.7894C17.5393 12.5361 16.8871 13.1127 16.1267 13.0764C15.3662 13.0395 14.8233 12.4039 14.8233 11.6566C14.9863 8.39104 15.1489 5.12603 15.3119 1.86102C15.3662 1.11427 16.0181 0.541471 16.7786 0.582114C17.4847 0.622757 18.0821 1.26221 18.0278 2.00842Z" fill="#FFB800"/>
<path d="M143.373 78.9161C114.172 60.0134 58.0234 63.2114 29.202 79.7522C16.076 87.2855 -8.12805 109.113 6.6002 129.721C9.19788 133.356 12.3555 136.309 15.6224 138.865C51.5764 166.985 101.723 164.121 140.309 147.295C146.064 144.786 151.727 141.807 156.937 137.758C160.834 134.73 164.601 130.976 167.635 126.596C176.518 113.774 174.198 100.869 164.641 89.9983C153.56 77.3943 138.407 73.4884 124.11 71.3493C111.608 69.4788 99.1215 69.1197 86.5604 69.8831C63.0027 71.3145 35.854 73.5923 16.0961 90.8243C7.46636 98.3509 -1.80518 114.434 5.59206 127.451C13.6079 141.557 32.5084 146.124 45.221 149.101C79.5158 157.131 133.78 153.149 165.018 132.077C168.386 129.805 171.799 127.687 174.812 124.699C177.193 122.338 179.473 119.645 181.451 116.732C195.467 96.083 164.192 83.1 153.162 80.8705C118.464 73.8565 67.1091 63.7347 35.154 82.3931" stroke="#FFB703" stroke-width="3.38675" stroke-miterlimit="1.5" stroke-linecap="round" stroke-linejoin="round"/>
</svg>
