<svg width="12" height="11" viewBox="0 0 12 11" fill="none" xmlns="http://www.w3.org/2000/svg">
<path d="M3.33366 4.33336C2.87342 4.33336 2.50033 4.70645 2.50033 5.16669C2.50033 5.62693 2.87342 6.00003 3.33366 6.00003C3.7939 6.00003 4.16699 5.62693 4.16699 5.16669C4.16699 4.70645 3.7939 4.33336 3.33366 4.33336Z" fill="#98CBEB"/>
<path d="M6.00033 4.33336C5.54009 4.33336 5.16699 4.70645 5.16699 5.16669C5.16699 5.62693 5.54009 6.00003 6.00033 6.00003C6.46056 6.00003 6.83366 5.62693 6.83366 5.16669C6.83366 4.70645 6.46056 4.33336 6.00033 4.33336Z" fill="#98CBEB"/>
<path d="M7.83366 5.16669C7.83366 4.70645 8.20675 4.33336 8.66699 4.33336C9.12723 4.33336 9.50033 4.70645 9.50033 5.16669C9.50033 5.62693 9.12723 6.00003 8.66699 6.00003C8.20675 6.00003 7.83366 5.62693 7.83366 5.16669Z" fill="#98CBEB"/>
<path fill-rule="evenodd" clip-rule="evenodd" d="M8.73414 1.06189C6.93802 0.908713 5.1325 0.899824 3.33495 1.0353L3.20613 1.04501C1.49193 1.17421 0.166992 2.60277 0.166992 4.32183V10C0.166992 10.1759 0.259436 10.3389 0.410425 10.4292C0.561413 10.5194 0.748729 10.5237 0.903684 10.4405L3.51088 9.03931C3.63215 8.97414 3.76769 8.94003 3.90536 8.94003H9.88964C10.6444 8.94003 11.2912 8.40043 11.4264 7.65793C11.7006 6.15311 11.7223 4.61313 11.4905 3.10119L11.4222 2.65564C11.2979 1.84447 10.6343 1.22393 9.81663 1.1542L8.73414 1.06189ZM3.41011 2.03248C5.15435 1.90101 6.90631 1.90964 8.64917 2.05827L9.73166 2.15058C10.0892 2.18108 10.3794 2.45244 10.4338 2.80715L10.5021 3.2527C10.717 4.65489 10.6969 6.08309 10.4426 7.47868C10.394 7.74586 10.1612 7.94003 9.88964 7.94003H3.90536C3.60247 7.94003 3.3043 8.01507 3.03749 8.15846L1.16699 9.16369V4.32183C1.16699 3.1259 2.08874 2.13207 3.28129 2.04218L3.41011 2.03248Z" fill="#98CBEB"/>
</svg>
