<svg width="12" height="12" viewBox="0 0 12 12" fill="none" xmlns="http://www.w3.org/2000/svg">
<path d="M6.50033 2.66663C6.50033 2.39048 6.27647 2.16663 6.00033 2.16663C5.72418 2.16663 5.50033 2.39048 5.50033 2.66663V5.99996C5.50033 6.17235 5.58914 6.33259 5.73533 6.42396L7.73533 7.67396C7.96949 7.82031 8.27797 7.74913 8.42432 7.51496C8.57068 7.28079 8.49949 6.97231 8.26533 6.82596L6.50033 5.72284V2.66663Z" fill="#B5B5B5"/>
<path fill-rule="evenodd" clip-rule="evenodd" d="M6.00033 0.166626C2.77866 0.166626 0.166992 2.7783 0.166992 5.99996C0.166992 9.22162 2.77866 11.8333 6.00033 11.8333C9.22199 11.8333 11.8337 9.22162 11.8337 5.99996C11.8337 2.7783 9.22199 0.166626 6.00033 0.166626ZM1.16699 5.99996C1.16699 3.33058 3.33095 1.16663 6.00033 1.16663C8.6697 1.16663 10.8337 3.33058 10.8337 5.99996C10.8337 8.66934 8.6697 10.8333 6.00033 10.8333C3.33095 10.8333 1.16699 8.66934 1.16699 5.99996Z" fill="#B5B5B5"/>
</svg>
