<svg width="16" height="16" viewBox="0 0 16 16" fill="none" xmlns="http://www.w3.org/2000/svg">
<path fill-rule="evenodd" clip-rule="evenodd" d="M5.5 8C5.5 6.61929 6.61929 5.5 8 5.5C9.38071 5.5 10.5 6.61929 10.5 8C10.5 9.38071 9.38071 10.5 8 10.5C6.61929 10.5 5.5 9.38071 5.5 8ZM8 6.5C7.17157 6.5 6.5 7.17157 6.5 8C6.5 8.82843 7.17157 9.5 8 9.5C8.82843 9.5 9.5 8.82843 9.5 8C9.5 7.17157 8.82843 6.5 8 6.5Z" fill="#98CBEB"/>
<path fill-rule="evenodd" clip-rule="evenodd" d="M2.88228 7.09757C2.60287 7.50019 2.5 7.81513 2.5 8C2.5 8.18487 2.60287 8.49981 2.88228 8.90243C3.15238 9.29163 3.55385 9.71352 4.06178 10.1034C5.07986 10.8847 6.47564 11.5 8 11.5C9.52437 11.5 10.9201 10.8847 11.9382 10.1034C12.4461 9.71352 12.8476 9.29163 13.1177 8.90243C13.3971 8.49981 13.5 8.18487 13.5 8C13.5 7.81513 13.3971 7.50019 13.1177 7.09757C12.8476 6.70837 12.4461 6.28648 11.9382 5.89665C10.9201 5.11528 9.52437 4.5 8 4.5C6.47564 4.5 5.07986 5.11528 4.06178 5.89665C3.55385 6.28648 3.15238 6.70837 2.88228 7.09757ZM3.45294 5.10336C4.60644 4.21805 6.21066 3.5 8 3.5C9.78934 3.5 11.3936 4.21805 12.5471 5.10336C13.1249 5.54685 13.6021 6.04163 13.9393 6.52743C14.2671 6.99981 14.5 7.5182 14.5 8C14.5 8.4818 14.2671 9.00019 13.9393 9.47257C13.6021 9.95837 13.1249 10.4531 12.5471 10.8966C11.3936 11.7819 9.78934 12.5 8 12.5C6.21066 12.5 4.60644 11.7819 3.45294 10.8966C2.87508 10.4531 2.39787 9.95837 2.06074 9.47257C1.73291 9.00019 1.5 8.4818 1.5 8C1.5 7.5182 1.73291 6.99981 2.06074 6.52743C2.39787 6.04163 2.87508 5.54685 3.45294 5.10336Z" fill="#98CBEB"/>
</svg>
