<svg width="266" height="266" viewBox="0 0 266 266" fill="none" xmlns="http://www.w3.org/2000/svg">
<path d="M152.95 49.343H153.085C157.356 49.3416 161.586 50.1817 165.533 51.8153C169.479 53.4489 173.065 55.8439 176.086 58.8637C179.107 61.8835 181.503 65.4687 183.138 69.4148C184.773 73.3608 185.614 77.5902 185.614 81.8615V241.395H120.444V81.8615C120.444 73.2394 123.869 64.9702 129.964 58.8722C136.06 52.7741 144.327 49.3465 152.95 49.343Z" fill="white" stroke="#070707" stroke-width="1.26" stroke-miterlimit="10"/>
<path d="M112.579 151.655C105.187 153.011 87.2776 153.567 80.0716 148.274C74.8022 144.403 80.1461 120.801 83.4019 108.374C76.3556 94.7439 85.8811 75.8632 90.7063 74.2273C96.4652 72.2722 102.009 76.8341 102.009 76.8341C102.009 76.8341 106.898 92.2621 114.178 96.0686C115.564 96.7921 116.155 98.412 116.085 100.476L116.194 100.54C116.194 100.54 114.133 105.982 124.358 112.454C134.583 118.926 127.348 133.037 132.072 141.579C138.001 152.288 119.913 150.311 112.579 151.655Z" fill="#202124"/>
<path d="M31.6672 93.225C31.8951 93.424 32.1109 93.6363 32.3136 93.8608C33.3727 95.0306 34.0613 96.4882 34.2921 98.0492C34.523 99.6103 34.2858 101.205 33.6106 102.631C32.9354 104.057 31.8524 105.252 30.4987 106.062C29.1449 106.873 27.5811 107.265 26.005 107.187C24.4289 107.109 22.9111 106.566 21.6437 105.626C20.3763 104.686 19.4161 103.391 18.8845 101.905C18.3528 100.419 18.2736 98.8092 18.6569 97.2784C19.0402 95.7476 19.8688 94.3648 21.0379 93.3048C21.1656 93.1878 21.3039 93.0787 21.4289 92.9723C21.415 92.9625 21.4016 92.9518 21.389 92.9404C20.5277 92.1803 19.841 91.2429 19.376 90.1926C18.9109 89.1422 18.6785 88.0037 18.6947 86.8551C18.7108 85.7065 18.9752 84.575 19.4696 83.5381C19.9641 82.5013 20.6769 81.5836 21.5592 80.848C21.5007 80.8028 21.4449 80.7549 21.389 80.7044C20.1725 79.6209 19.3168 78.1911 18.9368 76.607C18.5567 75.0229 18.6706 73.3604 19.2631 71.8429C19.8556 70.3255 20.8984 69.0257 22.2512 68.1182C23.6041 67.2107 25.2023 66.739 26.8311 66.7665C28.4599 66.794 30.0413 67.3193 31.3628 68.2719C32.6843 69.2244 33.6827 70.5586 34.2237 72.0952C34.7647 73.6318 34.8224 75.2972 34.3892 76.8675C33.956 78.4379 33.0526 79.8381 31.8002 80.88C31.8588 80.9252 31.9146 80.9731 31.9705 81.0236C32.8406 81.7945 33.5318 82.7463 33.9957 83.8122C34.4596 84.8782 34.685 86.0326 34.6561 87.1948C34.6272 88.357 34.3448 89.4988 33.8285 90.5404C33.3122 91.582 32.5746 92.4983 31.6672 93.225Z" fill="#BE7880" stroke="#070707" stroke-width="1.1" stroke-miterlimit="10"/>
<path d="M25.8975 107.366V241.528" stroke="#070707" stroke-width="1.02" stroke-miterlimit="10"/>
<path d="M18.8859 72.9478C18.8859 72.9478 21.4927 80.465 25.7487 80.199C25.7487 80.199 16.4387 87.381 24.1527 92.701C24.1527 92.701 18.6997 102.578 24.3522 106.948C24.3522 106.948 19.4472 106.565 18.4763 99.7659C18.4763 99.7659 18.0347 95.361 21.4927 92.967C21.4927 92.967 18.3965 91.1422 18.7476 85.6706C18.7476 85.6706 18.8327 83.391 21.4927 80.731C21.4927 80.731 18.3779 79.268 18.8859 72.9478Z" fill="#070707"/>
<path d="M88.0059 42.5334V222.339" stroke="#070707" stroke-width="1.22" stroke-miterlimit="10"/>
<path d="M68.0137 49.5239L88.0062 74.7167L113.526 49.1993" stroke="#070707" stroke-width="1.22" stroke-miterlimit="10"/>
<path d="M65.9785 35.7903L88.006 57.8204L110.036 35.7903" stroke="#070707" stroke-width="1.22" stroke-miterlimit="10"/>
<path d="M153.591 99.6303C164.887 99.6303 174.044 90.4733 174.044 79.1775C174.044 67.8818 164.887 58.7248 153.591 58.7248C142.296 58.7248 133.139 67.8818 133.139 79.1775C133.139 90.4733 142.296 99.6303 153.591 99.6303Z" fill="white" stroke="#070707" stroke-width="1.08" stroke-miterlimit="10"/>
<path d="M142.073 62.3504C142.073 62.3504 130.116 94.8024 169.724 91.7461C169.724 91.7461 157.028 106.533 140.379 94.7891C140.379 94.7891 122.32 80.6938 142.073 62.3504Z" fill="#070707"/>
<path d="M207.44 61.6854V241.491" stroke="#070707" stroke-width="1.22" stroke-miterlimit="10"/>
<path d="M187.447 68.6759L207.44 93.8687L232.96 68.3487" stroke="#070707" stroke-width="1.22" stroke-miterlimit="10"/>
<path d="M185.413 54.9423L207.441 76.9724L229.471 54.9423" stroke="#070707" stroke-width="1.22" stroke-miterlimit="10"/>
<path d="M213.292 102.974C216.345 102.974 218.82 100.499 218.82 97.4464C218.82 94.3937 216.345 91.9189 213.292 91.9189C210.239 91.9189 207.765 94.3937 207.765 97.4464C207.765 100.499 210.239 102.974 213.292 102.974Z" fill="#BE7880" stroke="#070707" stroke-width="1.22" stroke-miterlimit="10"/>
<path d="M210.18 92.8978C210.18 92.8978 206.951 101.676 217.652 100.841C217.652 100.841 214.22 104.831 209.722 101.665C209.722 101.665 204.844 97.8561 210.18 92.8978Z" fill="#070707"/>
<path d="M142.4 215.484C142.4 215.484 153.838 220.272 160.113 217.412C166.388 214.553 170.602 216.463 168.123 219.66C165.644 222.857 144.286 233.051 144.286 233.051C144.286 233.051 139.573 229.901 139.945 226.842C140.318 223.783 139.232 218.977 134.021 220.192L142.4 215.484Z" fill="#ECE856" stroke="#070707" stroke-width="1.11" stroke-linecap="round" stroke-linejoin="round"/>
<path d="M143.26 232.66C143.26 232.66 166.646 220.559 168.431 217.255C168.431 217.255 170.373 218.554 167.514 220.929C164.654 223.304 144.499 233.599 144.499 233.599L143.26 232.66Z" fill="white" stroke="#070707" stroke-width="1.1" stroke-miterlimit="10"/>
<path d="M93.2544 148.221C104.716 153.384 144.31 215.324 144.31 215.324L137.751 221.903C137.751 221.903 122.573 210.805 120.445 207.081C116.689 200.505 118.633 193.1 112.768 192.496C107.427 191.946 98.9681 186.551 96.8667 185.58C96.8667 185.58 67.3221 173.062 61.127 148.287L93.2544 148.221Z" fill="#56627B" stroke="#070707" stroke-width="0.96" stroke-miterlimit="10"/>
<path d="M106.203 190.485L119.62 178.582L111.252 192.361L106.203 190.485Z" fill="#070707"/>
<path d="M138.432 221.275L143.773 216L147.776 217.335L138.687 221.594L138.432 221.275Z" fill="#070707"/>
<path d="M97.1064 168.652H49.8408V241.395H97.1064V168.652Z" fill="white" stroke="#070707" stroke-width="1.49" stroke-miterlimit="10"/>
<path d="M49.8568 168.131C49.8568 168.131 51.1868 237.894 97.0905 241.262H49.8223L49.8568 168.131Z" fill="#070707"/>
<path d="M67.6463 106.818C67.6463 106.818 64.7442 95.0764 75.2406 95.3397C75.2406 95.3397 102.311 115.066 103.985 115.463C105.658 115.859 131.832 117.013 131.832 117.013L132.383 123.182L100.753 124.488L67.6463 106.818Z" fill="white" stroke="#070707" stroke-width="1.04" stroke-miterlimit="10"/>
<path d="M131.96 117.838L147.787 118.562C147.787 118.562 152.469 122.02 145.372 122.623L138.543 123.232L132.29 121.541L131.96 117.838Z" fill="white" stroke="#070707" stroke-width="1.48" stroke-miterlimit="10"/>
<path d="M86.785 94.8556C86.785 94.8556 85.6705 91.3604 88.3225 89.775L89.0566 88.711L84.8006 86.583L82.1406 89.509L86.785 94.8556Z" fill="white" stroke="#070707" stroke-width="1.04" stroke-miterlimit="10"/>
<path d="M84.6437 118.984C87.2558 117.388 89.9797 114.838 89.0114 111.334C87.2851 105.073 88.9981 97.2815 89.0114 97.1831C89.3484 96.4011 89.7084 95.6128 90.0914 94.8184L77.5894 84.8221C77.5894 84.8221 54.3357 100.577 59.9882 151.322H97.0526C97.0526 151.322 85.1199 138.416 84.6437 118.984Z" fill="white" stroke="#070707" stroke-width="1.04" stroke-miterlimit="10"/>
<path d="M22.5518 241.4H247.684H22.5518Z" fill="white"/>
<path d="M22.5518 241.4H247.684" stroke="#070707" stroke-width="1.52" stroke-miterlimit="10"/>
<path d="M103.881 134.25H201.035" stroke="#070707" stroke-width="1.26" stroke-miterlimit="10"/>
<path d="M152.455 134.25V241.528" stroke="#070707" stroke-width="1.25" stroke-miterlimit="10"/>
<path d="M169.974 103.974L153.389 132.542H120.333V129.13H150.442L168.599 98.8642C169.026 99.1077 169.401 99.4335 169.702 99.8228C170.003 100.212 170.224 100.657 170.352 101.132C170.48 101.608 170.512 102.103 170.447 102.591C170.382 103.079 170.222 103.549 169.974 103.974Z" fill="white" stroke="#070707" stroke-width="1.04" stroke-miterlimit="10"/>
<path d="M76.5177 94.9274C76.5177 94.9274 101.788 117.428 103.421 117.971C105.054 118.514 130.955 121.562 130.955 121.562V127.754L100.495 128.611L66.7129 109.991" fill="white"/>
<path d="M76.5177 94.9274C76.5177 94.9274 101.788 117.428 103.421 117.971C105.054 118.514 130.955 121.562 130.955 121.562V127.754L100.495 128.611L66.7129 109.991" stroke="#070707" stroke-width="1.04" stroke-miterlimit="10"/>
<path d="M131.011 122.381L146.705 124.509C146.705 124.509 151.059 128.369 143.938 128.34H137.089L131.011 126.1V122.381Z" fill="white" stroke="#070707" stroke-width="1.48" stroke-miterlimit="10"/>
<path d="M69.6362 218.25C69.6362 218.25 65.1142 229.789 68.1147 236.001C71.1152 242.212 69.3037 246.465 66.0479 244.06C62.792 241.656 52.1201 220.535 52.1201 220.535C52.1201 220.535 55.1578 215.747 58.2381 216.053C61.3184 216.359 66.4628 216.782 65.1275 211.603L69.6362 218.25Z" fill="#ECE856" stroke="#070707" stroke-width="1.11" stroke-miterlimit="10"/>
<path d="M52.4842 219.501C52.4842 219.501 65.1165 242.605 68.4602 244.313C68.4602 244.313 67.2073 246.284 64.7654 243.48C62.3235 240.677 51.5771 220.761 51.5771 220.761L52.4842 219.501Z" fill="white" stroke="#070707" stroke-width="1.1" stroke-miterlimit="10"/>
<path d="M127.642 147.276L84.6461 147.327L84.67 147.375L84.6115 147.356H60.1741C60.1741 147.356 58.2003 182.875 101.292 167.181C100.473 169.344 90.3863 182.343 89.4367 187.929C88.4499 193.741 81.9089 194.215 75.2243 197.771C71.2343 199.899 61.802 214.846 61.802 214.846L68.8111 220.942C68.8111 220.942 130.488 173.187 134.862 161.401C139.235 149.614 127.642 147.276 127.642 147.276Z" fill="#56627B" stroke="#070707" stroke-width="0.96" stroke-miterlimit="10"/>
<path d="M94.1054 147.321L59.4297 147.135C59.4297 147.135 59.8473 153.368 60.8342 156.012L94.1054 147.321Z" fill="#070707"/>
<path d="M62.529 215.409C62.529 215.409 61.4942 215.923 60.9463 215.896C60.9463 215.896 68.224 220.926 67.6548 224.922L68.796 220.932L62.529 215.409Z" fill="#070707"/>
<path d="M77.2197 115.71C77.2197 115.71 62.0737 111.106 59.6025 126.135C59.6025 126.135 60.9937 110.922 65.2497 102.676L77.2197 115.71Z" fill="#202124"/>
<path d="M131.088 124.629L137.788 127.379L147.896 126.81C147.853 127.128 147.705 127.422 147.476 127.647C147.248 127.873 146.951 128.016 146.633 128.055C145.449 128.278 137.129 128.523 137.129 128.523L131.011 126.076L131.088 124.629Z" fill="#202124"/>
<path d="M132.41 120.123L138.363 121.998L149.048 121.264C148.805 121.572 148.523 121.847 148.208 122.081C147.825 122.323 138.773 123.302 138.773 123.302L132.327 121.509L132.099 120.104L132.41 120.123Z" fill="#202124"/>
<path d="M106.752 116.133C106.752 116.133 107.494 118.343 115.53 119.772L103.357 117.873C103.357 117.873 106.092 115.957 106.752 116.133Z" fill="#202124"/>
<path d="M120.634 129.313C120.634 129.313 135.426 132.519 146.846 132.519H120.339V129.092L120.634 129.313Z" fill="#202124"/>
<path d="M177.502 241.254V184.357V162.531" stroke="#070707" stroke-width="1.13" stroke-miterlimit="10"/>
<path d="M160.398 162.207L195.776 162.526L177.834 184.072C177.834 184.072 160.015 162.574 160.398 162.207Z" fill="#BF6C2B" stroke="#070707" stroke-width="1.22" stroke-miterlimit="10"/>
<path d="M168.375 162.287L177.837 184.064L160.385 162.204L168.375 162.287Z" fill="#BE7880" stroke="#070707" stroke-width="1.22" stroke-linejoin="bevel"/>
<path d="M184.034 162.369L177.592 184.064L195.778 162.531L184.034 162.369Z" fill="#BE7880" stroke="#070707" stroke-width="1.22" stroke-linejoin="bevel"/>
<path d="M41.209 241.398V29.5313" stroke="#070707" stroke-miterlimit="10"/>
<path d="M19.1895 15.8616L40.5998 44.5124L41.1318 66.9149L22.7592 44.8875L19.1895 15.8616Z" fill="#BF6C2B" stroke="#070707" stroke-width="1.22" stroke-miterlimit="10"/>
<path d="M41.6289 41.2353L50.7314 24.5731L63.2494 22.9478V33.8405L41.6289 41.2353Z" fill="white" stroke="#070707" stroke-width="1.22" stroke-miterlimit="10"/>
<path d="M22.7666 44.9008C22.7666 44.9008 40.9982 70.3012 40.554 44.5071L41.1765 66.8644L22.7666 44.9008Z" fill="#070707"/>
<path d="M50.6965 24.472C50.7657 24.363 41.6738 41.246 41.6738 41.246L63.2783 33.8751C63.2783 33.8751 38.7531 43.2782 50.6965 24.472Z" fill="#070707"/>
<path d="M47.0792 95.877C50.132 95.877 52.6067 93.4023 52.6067 90.3496C52.6067 87.2968 50.132 84.8221 47.0792 84.8221C44.0265 84.8221 41.5518 87.2968 41.5518 90.3496C41.5518 93.4023 44.0265 95.877 47.0792 95.877Z" fill="#BE7880" stroke="#070707" stroke-width="1.22" stroke-miterlimit="10"/>
<path d="M43.9672 85.8036C43.9672 85.8036 40.7379 94.5816 51.4391 93.7463C51.4391 93.7463 48.0077 97.7363 43.5096 94.5683C43.5096 94.5683 38.6285 90.7592 43.9672 85.8036Z" fill="#070707"/>
<path d="M47.4865 118.144C50.5392 118.144 53.0139 115.669 53.0139 112.616C53.0139 109.564 50.5392 107.089 47.4865 107.089C44.4337 107.089 41.959 109.564 41.959 112.616C41.959 115.669 44.4337 118.144 47.4865 118.144Z" fill="#BE7880" stroke="#070707" stroke-width="1.22" stroke-miterlimit="10"/>
<path d="M44.3742 108.068C44.3742 108.068 41.1449 116.846 51.8461 116.011C51.8461 116.011 48.4147 120.001 43.9167 116.833C43.9167 116.833 39.0382 113.026 44.3742 108.068Z" fill="#070707"/>
<path d="M197.088 214.404C199.052 214.404 200.644 212.812 200.644 210.848C200.644 208.883 199.052 207.291 197.088 207.291C195.124 207.291 193.531 208.883 193.531 210.848C193.531 212.812 195.124 214.404 197.088 214.404Z" fill="#BE7880" stroke="#070707" stroke-width="0.79" stroke-miterlimit="10"/>
<path d="M195.087 207.924C195.087 207.924 193.007 213.566 199.894 213.034C199.894 213.034 197.686 215.604 194.792 213.566C194.792 213.563 191.653 211.111 195.087 207.924Z" fill="#070707"/>
<path d="M41.1769 200.963C41.1769 200.963 41.9749 184.471 29.0739 180.614C14.0742 176.129 14.7099 151.886 14.7099 151.886H41.0971L41.1769 200.963Z" fill="white" stroke="#070707" stroke-miterlimit="10"/>
<path d="M41.3707 133.176L41.0781 172.568C41.0781 172.568 46.8955 147.098 51.9495 145.768C57.0035 144.438 55.1415 133 55.1415 133L41.3707 133.176Z" fill="white" stroke="#070707" stroke-miterlimit="10"/>
<path d="M223.386 164.995C226.808 164.995 230.089 166.354 232.509 168.773C234.928 171.193 236.287 174.474 236.287 177.896V241.347H210.485V177.896C210.485 174.474 211.845 171.193 214.264 168.773C216.683 166.354 219.965 164.995 223.386 164.995Z" fill="#BF6C2B" stroke="#070707" stroke-width="1.22" stroke-miterlimit="10"/>
<path d="M221.258 165.053C221.258 165.053 216.204 167.181 220.46 180.215C224.716 193.249 219.662 201.495 217.002 207.879C214.342 214.263 218.173 241.419 218.173 241.419L210.485 241.262L210.563 176.829C210.563 176.829 209.82 169.309 220.46 165.053" fill="#070707"/>
<path d="M231.223 139.017C234.137 139.017 236.5 136.654 236.5 133.739C236.5 130.825 234.137 128.462 231.223 128.462C228.308 128.462 225.945 130.825 225.945 133.739C225.945 136.654 228.308 139.017 231.223 139.017Z" fill="#BF6C2B" stroke="#070707" stroke-width="1.1" stroke-miterlimit="10"/>
<path d="M231.223 143.707C236.728 143.707 241.19 139.244 241.19 133.739C241.19 128.235 236.728 123.772 231.223 123.772C225.718 123.772 221.256 128.235 221.256 133.739C221.256 139.244 225.718 143.707 231.223 143.707Z" stroke="#070707" stroke-width="1.22" stroke-miterlimit="10"/>
<path d="M226.709 131.002C226.709 131.002 228.345 139.685 236.285 135.242C236.285 135.242 235.282 138.94 231.271 139.054C231.265 139.054 223.642 138.078 226.709 131.002Z" fill="#070707"/>
<path d="M127.483 45.6509C130.398 45.6509 132.761 43.2882 132.761 40.3735C132.761 37.4589 130.398 35.0961 127.483 35.0961C124.569 35.0961 122.206 37.4589 122.206 40.3735C122.206 43.2882 124.569 45.6509 127.483 45.6509Z" fill="#BF6C2B" stroke="#070707" stroke-width="1.1" stroke-miterlimit="10"/>
<path d="M127.484 50.3405C132.988 50.3405 137.451 45.8781 137.451 40.3735C137.451 34.8688 132.988 30.4064 127.484 30.4064C121.979 30.4064 117.517 34.8688 117.517 40.3735C117.517 45.8781 121.979 50.3405 127.484 50.3405Z" stroke="#070707" stroke-width="1.22" stroke-miterlimit="10"/>
<path d="M122.97 37.6364C122.97 37.6364 124.605 46.3186 132.546 41.8764C132.546 41.8764 131.543 45.5738 127.531 45.6882C127.526 45.6882 119.903 44.712 122.97 37.6364Z" fill="#070707"/>
<path d="M21.3487 141.145C24.2634 141.145 26.6262 138.782 26.6262 135.867C26.6262 132.953 24.2634 130.59 21.3487 130.59C18.4341 130.59 16.0713 132.953 16.0713 135.867C16.0713 138.782 18.4341 141.145 21.3487 141.145Z" fill="#BF6C2B" stroke="#070707" stroke-width="1.1" stroke-miterlimit="10"/>
<path d="M21.3489 145.834C26.8535 145.834 31.3159 141.372 31.3159 135.867C31.3159 130.363 26.8535 125.9 21.3489 125.9C15.8442 125.9 11.3818 130.363 11.3818 135.867C11.3818 141.372 15.8442 145.834 21.3489 145.834Z" stroke="#070707" stroke-width="1.22" stroke-miterlimit="10"/>
<path d="M16.8348 133.13C16.8348 133.13 18.4707 141.813 26.4108 137.37C26.4108 137.37 25.408 141.068 21.3967 141.182C21.3914 141.182 13.7678 140.206 16.8348 133.13Z" fill="#070707"/>
<path d="M119.25 214.383C122.004 214.383 124.235 212.151 124.235 209.398C124.235 206.645 122.004 204.413 119.25 204.413C116.497 204.413 114.266 206.645 114.266 209.398C114.266 212.151 116.497 214.383 119.25 214.383Z" fill="#BF6C2B" stroke="#070707" stroke-width="1.1" stroke-miterlimit="10"/>
<path d="M116.444 205.299C116.444 205.299 113.532 213.204 123.182 212.46C123.182 212.46 120.089 216.064 116.032 213.202C116.032 213.202 111.632 209.768 116.444 205.299Z" fill="#070707"/>
<path d="M119.583 240.996V214.396" stroke="#070707" stroke-width="1.2" stroke-miterlimit="10"/>
<path d="M92.5149 222.243H111.401C111.401 222.243 119.647 222.509 119.647 240.597C119.647 240.597 99.4309 241.129 99.9629 232.617C99.9629 232.617 88.7909 230.489 92.5149 222.243Z" fill="#BF6C2B" stroke="#070707" stroke-width="1.1" stroke-miterlimit="10"/>
<path d="M146.832 222.243H127.946C127.946 222.243 119.7 222.509 119.7 240.597C119.7 240.597 139.916 241.129 139.384 232.617C139.384 232.617 150.556 230.489 146.832 222.243Z" fill="white" stroke="#070707" stroke-width="1.1" stroke-miterlimit="10"/>
<path d="M97.1113 168.769V173.504C97.1113 173.504 101.027 168.511 101.293 167.181L97.1113 168.769Z" fill="#070707"/>
<path d="M99.4845 77.2677L98.8993 79.002C98.8546 79.1346 98.8374 79.2748 98.8487 79.4143L99.285 84.5321C99.3515 85.3301 98.5295 85.8754 97.689 85.5961C97.434 85.4981 97.1535 85.4887 96.8926 85.5692C96.6316 85.6498 96.4053 85.8157 96.2499 86.0403C95.3122 87.5528 93.8916 88.7046 92.218 89.3095C90.5444 89.9143 88.7157 89.9368 87.0277 89.3733L81.4417 87.4581C81.1412 87.3732 80.8866 87.1727 80.7336 86.9005C80.5806 86.6283 80.5415 86.3066 80.6251 86.0058L85.2694 72.4265C85.3875 72.1373 85.6152 71.9067 85.9028 71.7851C86.1905 71.6635 86.5146 71.6607 86.8042 71.7774L98.6705 75.81C98.9717 75.8955 99.2266 76.097 99.3792 76.3703C99.5318 76.6437 99.5697 76.9664 99.4845 77.2677Z" fill="white" stroke="#070707" stroke-width="1.04" stroke-miterlimit="10"/>
<path d="M98.3534 80.5049C97.297 80.913 96.1678 81.0987 95.0364 81.0502C93.8234 80.9438 92.9589 80.2309 91.8257 79.8346C91.0942 79.5858 90.3118 79.5254 89.5508 79.6588C88.7898 79.7922 88.0746 80.1152 87.4713 80.598C87.2707 80.7488 87.1085 80.9447 86.9979 81.1699C86.3195 82.7659 88.8918 84.322 87.6389 86.168C86.8409 87.3517 85.2875 87.9343 84.3538 89.0568C84.3538 89.3973 83.4388 90.3123 83.2446 90.6528C82.9294 91.2301 82.6667 91.8346 82.4599 92.4589C81.9279 93.9663 81.3959 95.4736 80.8639 96.9809C80.8426 97.0395 80.8213 97.1006 80.7974 97.1618C80.7515 98.1257 80.6538 99.0865 80.5048 100.04C78.4247 113.763 67.8219 108.286 64.6405 104.602C61.5443 101.024 65.7897 94.2943 66.4068 93.6719C67.9682 90.5038 77.9246 83.4229 80.1058 73.94C82.6062 63.0739 92.6078 65.1381 101.186 71.014C105.897 74.2459 102.676 78.9674 98.3534 80.5049Z" fill="#202124"/>
</svg>
