<svg width="22" height="22" viewBox="0 0 22 22" fill="none" xmlns="http://www.w3.org/2000/svg">
<path d="M14.1875 4.8125C14.1875 6.0557 13.6936 7.24799 12.8146 8.12706C11.9355 9.00614 10.7432 9.5 9.5 9.5C8.2568 9.5 7.06451 9.00614 6.18544 8.12706C5.30636 7.24799 4.8125 6.0557 4.8125 4.8125C4.8125 3.5693 5.30636 2.37701 6.18544 1.49794C7.06451 0.61886 8.2568 0.125 9.5 0.125C10.7432 0.125 11.9355 0.61886 12.8146 1.49794C13.6936 2.37701 14.1875 3.5693 14.1875 4.8125ZM9.5 7.9375C10.3288 7.9375 11.1237 7.60826 11.7097 7.02221C12.2958 6.43616 12.625 5.6413 12.625 4.8125C12.625 3.9837 12.2958 3.18884 11.7097 2.60279C11.1237 2.01674 10.3288 1.6875 9.5 1.6875C8.6712 1.6875 7.87634 2.01674 7.29029 2.60279C6.70424 3.18884 6.375 3.9837 6.375 4.8125C6.375 5.6413 6.70424 6.43616 7.29029 7.02221C7.87634 7.60826 8.6712 7.9375 9.5 7.9375ZM9.9 18.875C9.72075 18.3676 9.60068 17.8412 9.54219 17.3062H1.6875C1.68906 16.9219 1.92813 15.7656 2.9875 14.7062C4.00625 13.6875 5.92344 12.625 9.5 12.625C9.90625 12.625 10.2922 12.6391 10.6562 12.6641C11.0094 12.1312 11.4312 11.6484 11.9125 11.2297C11.1828 11.1219 10.3813 11.0625 9.5 11.0625C1.6875 11.0625 0.125 15.75 0.125 17.3125C0.125 18.875 1.6875 18.875 1.6875 18.875H9.9ZM15.5719 11.7812C15.8531 10.8234 17.2094 10.8234 17.4922 11.7812L17.5594 12.0125C17.6013 12.1559 17.6749 12.2882 17.7747 12.3994C17.8745 12.5107 17.998 12.5982 18.136 12.6554C18.2741 12.7127 18.4232 12.7383 18.5725 12.7303C18.7217 12.7223 18.8673 12.681 18.9984 12.6094L19.2109 12.4938C20.0875 12.0156 21.0469 12.975 20.5703 13.8516L20.4531 14.0641C20.3818 14.1952 20.3407 14.3406 20.3329 14.4897C20.3251 14.6387 20.3507 14.7876 20.408 14.9255C20.4652 15.0633 20.5526 15.1866 20.6637 15.2863C20.7748 15.386 20.9068 15.4595 21.05 15.5016L21.2828 15.5719C22.2391 15.8531 22.2391 17.2094 21.2828 17.4922L21.0484 17.5594C20.9053 17.6017 20.7734 17.6755 20.6625 17.7755C20.5516 17.8754 20.4644 17.9989 20.4075 18.1369C20.3506 18.275 20.3252 18.424 20.3334 18.573C20.3416 18.7221 20.383 18.8675 20.4547 18.9984L20.5703 19.2109C21.0469 20.0875 20.0875 21.0469 19.2109 20.5703L18.9984 20.4531C18.8673 20.3818 18.7219 20.3407 18.5728 20.3329C18.4238 20.3251 18.2749 20.3507 18.137 20.408C17.9992 20.4652 17.8759 20.5526 17.7762 20.6637C17.6765 20.7748 17.603 20.9068 17.5609 21.05L17.4906 21.2828C17.2094 22.2391 15.8531 22.2391 15.5703 21.2828L15.5031 21.0484C15.4608 20.9053 15.387 20.7734 15.287 20.6625C15.1871 20.5516 15.0636 20.4644 14.9256 20.4075C14.7875 20.3506 14.6385 20.3252 14.4895 20.3334C14.3404 20.3416 14.195 20.383 14.0641 20.4547L13.8516 20.5703C12.975 21.0469 12.0156 20.0875 12.4922 19.2109L12.6094 18.9984C12.6807 18.8673 12.7218 18.7219 12.7296 18.5728C12.7374 18.4238 12.7118 18.2749 12.6545 18.137C12.5973 17.9992 12.5099 17.8759 12.3988 17.7762C12.2877 17.6765 12.1557 17.603 12.0125 17.5609L11.7812 17.4906C10.8234 17.2094 10.8234 15.8531 11.7812 15.5703L12.0125 15.5031C12.1559 15.4612 12.2882 15.3876 12.3994 15.2878C12.5107 15.188 12.5982 15.0645 12.6554 14.9265C12.7127 14.7884 12.7383 14.6393 12.7303 14.49C12.7223 14.3408 12.681 14.1952 12.6094 14.0641L12.4938 13.8516C12.0156 12.975 12.975 12.0156 13.8516 12.4922L14.0641 12.6094C14.1952 12.6807 14.3406 12.7218 14.4897 12.7296C14.6387 12.7374 14.7876 12.7118 14.9255 12.6545C15.0633 12.5973 15.1866 12.5099 15.2863 12.3988C15.386 12.2877 15.4595 12.1557 15.5016 12.0125L15.5719 11.7812ZM18.875 16.5312C18.875 16.2235 18.8144 15.9187 18.6966 15.6343C18.5788 15.35 18.4062 15.0916 18.1885 14.874C17.9709 14.6563 17.7125 14.4837 17.4282 14.3659C17.1438 14.2481 16.839 14.1875 16.5312 14.1875C16.2235 14.1875 15.9187 14.2481 15.6343 14.3659C15.35 14.4837 15.0916 14.6563 14.874 14.874C14.6563 15.0916 14.4837 15.35 14.3659 15.6343C14.2481 15.9187 14.1875 16.2235 14.1875 16.5312C14.1875 17.1529 14.4344 17.749 14.874 18.1885C15.3135 18.6281 15.9096 18.875 16.5312 18.875C17.1529 18.875 17.749 18.6281 18.1885 18.1885C18.6281 17.749 18.875 17.1529 18.875 16.5312Z" fill="#1D3557"/>
</svg>
