<svg width="23" height="24" viewBox="0 0 23 24" fill="none" xmlns="http://www.w3.org/2000/svg">
<path d="M21.3001 23.9998C20.7824 23.9998 20.3756 23.593 20.3756 23.0753C20.3756 21.4113 19.2293 19.9319 17.6021 19.4883C17.3062 19.4142 16.9735 19.3773 16.6407 19.3773H16.3079C15.1245 19.3773 13.0908 18.8596 12.7949 15.4944V15.0876V15.0136C12.7949 14.1631 13.2386 13.3495 13.9784 12.8318C14.607 12.3881 15.0879 11.7964 15.4946 11.0938C16.0492 10.1323 16.3451 8.98577 16.3451 7.80254C16.3451 4.51133 13.9784 1.81187 11.094 1.81187C8.20954 1.81187 5.84283 4.51133 5.84283 7.80254C5.84283 8.98603 6.1387 10.0952 6.6933 11.0938C7.10009 11.7964 7.6178 12.3882 8.20954 12.8318C8.94907 13.3864 9.35585 14.1631 9.39303 15.0136V15.0876V15.4944C9.0969 18.8596 7.06297 19.3773 5.87948 19.3773H5.54672C5.21396 19.3773 4.91809 19.4142 4.58531 19.4883C3.95668 19.6732 3.36497 20.006 2.92128 20.4497C2.21859 21.1524 1.84899 22.0768 1.84899 23.0754C1.84899 23.5931 1.4422 23.9999 0.924497 23.9999C0.406792 23.9999 0 23.5931 0 23.0754C0 21.5963 0.591737 20.1909 1.62718 19.1556C2.32986 18.4529 3.18034 17.9721 4.14168 17.7134C4.58536 17.6024 5.06618 17.5284 5.54698 17.5284H5.87974C6.36056 17.5284 7.35881 17.5284 7.54377 15.3095V15.0876V15.0507C7.54377 14.7918 7.39596 14.4962 7.10009 14.3112C6.28654 13.7195 5.62103 12.943 5.06613 12.0185C4.36345 10.7613 3.95667 9.31906 3.95667 7.83974C3.95667 3.51309 7.13694 1.43533e-08 11.0568 1.43533e-08C14.9766 -0.00025792 18.1939 3.47591 18.1939 7.80276C18.1939 9.28182 17.824 10.7612 17.0845 11.9816C16.5668 12.906 15.901 13.6828 15.0505 14.2742C14.7915 14.4592 14.6437 14.7551 14.6068 15.0138V15.0507V15.2725C14.7918 17.4542 15.7903 17.4542 16.2709 17.4542H16.6036C17.0844 17.4542 17.565 17.5283 18.0089 17.6392C20.4497 18.2678 22.1506 20.4867 22.1506 23.0012C22.2246 23.5932 21.8178 24 21.3001 24L21.3001 23.9998ZM12.0181 9.94744V5.50992C12.0181 4.99222 11.6114 4.58543 11.0936 4.58543C10.5759 4.58543 10.1692 4.99222 10.1692 5.50992V9.94744C10.1692 10.4651 10.5759 10.8719 11.0936 10.8719C11.6114 10.8719 12.0181 10.4651 12.0181 9.94744ZM14.0521 7.72878C14.0521 7.21108 13.6453 6.80429 13.1276 6.80429H9.05969C8.54198 6.80429 8.13519 7.21108 8.13519 7.72878C8.13519 8.24649 8.54198 8.65328 9.05969 8.65328H13.1276C13.6453 8.65328 14.0521 8.24649 14.0521 7.72878Z" fill="#898989"/>
</svg>
