<svg width="12" height="11" viewBox="0 0 12 11" fill="none" xmlns="http://www.w3.org/2000/svg">
<path d="M3.33317 4.33336C2.87293 4.33336 2.49984 4.70645 2.49984 5.16669C2.49984 5.62693 2.87293 6.00003 3.33317 6.00003C3.79341 6.00003 4.1665 5.62693 4.1665 5.16669C4.1665 4.70645 3.79341 4.33336 3.33317 4.33336Z" fill="#F13E3E"/>
<path d="M5.99984 4.33336C5.5396 4.33336 5.1665 4.70645 5.1665 5.16669C5.1665 5.62693 5.5396 6.00003 5.99984 6.00003C6.46007 6.00003 6.83317 5.62693 6.83317 5.16669C6.83317 4.70645 6.46007 4.33336 5.99984 4.33336Z" fill="#F13E3E"/>
<path d="M7.83317 5.16669C7.83317 4.70645 8.20627 4.33336 8.6665 4.33336C9.12674 4.33336 9.49984 4.70645 9.49984 5.16669C9.49984 5.62693 9.12674 6.00003 8.6665 6.00003C8.20627 6.00003 7.83317 5.62693 7.83317 5.16669Z" fill="#F13E3E"/>
<path fill-rule="evenodd" clip-rule="evenodd" d="M8.73366 1.06189C6.93753 0.908713 5.13201 0.899824 3.33447 1.0353L3.20564 1.04501C1.49144 1.17421 0.166504 2.60277 0.166504 4.32183V10C0.166504 10.1759 0.258948 10.3389 0.409936 10.4292C0.560925 10.5194 0.748241 10.5237 0.903196 10.4405L3.51039 9.03931C3.63167 8.97414 3.7672 8.94003 3.90488 8.94003H9.88915C10.6439 8.94003 11.2907 8.40043 11.426 7.65793C11.7001 6.15311 11.7218 4.61313 11.49 3.10119L11.4218 2.65564C11.2974 1.84447 10.6338 1.22393 9.81615 1.1542L8.73366 1.06189ZM3.40962 2.03248C5.15386 1.90101 6.90583 1.90964 8.64868 2.05827L9.73117 2.15058C10.0887 2.18108 10.3789 2.45244 10.4333 2.80715L10.5016 3.2527C10.7165 4.65489 10.6964 6.08309 10.4422 7.47868C10.3935 7.74586 10.1607 7.94003 9.88915 7.94003H3.90488C3.60198 7.94003 3.30381 8.01507 3.03701 8.15846L1.1665 9.16369V4.32183C1.1665 3.1259 2.08825 2.13207 3.2808 2.04218L3.40962 2.03248Z" fill="#F13E3E"/>
</svg>
