<svg width="984" height="137" viewBox="0 0 984 137" fill="none" xmlns="http://www.w3.org/2000/svg">
<path fill-rule="evenodd" clip-rule="evenodd" d="M355.366 126.916C322.314 126.701 289.126 127.487 257.134 130.784C256.563 130.843 256.327 130.958 256.28 130.985C256.007 131.141 255.977 131.307 256.012 131.444C256.032 131.527 256.173 131.877 256.939 131.914C257.468 131.938 261.225 131.767 262.674 131.723C269.498 131.517 276.308 131.223 283.114 130.883C298.546 130.115 313.957 129.451 329.414 128.846C338.092 128.506 346.773 128.225 355.449 127.995C376.321 128.132 397.141 128.669 417.572 129.224C409.451 129.507 401.989 129.793 395.802 129.978C385.369 130.291 374.955 130.66 364.542 131.147C359.192 131.396 353.849 131.666 348.509 131.986C347.918 132.022 346.57 132.059 345.918 132.103C345.642 132.121 345.441 132.149 345.351 132.168C344.787 132.292 344.716 132.544 344.709 132.671C344.706 132.748 344.753 133.169 345.704 133.251C389.937 137.101 436.085 132.622 480.477 136.365C480.997 136.409 481.485 136.206 481.563 135.911C481.641 135.617 481.281 135.341 480.759 135.297C438.949 131.772 395.581 135.541 353.718 132.774C357.376 132.574 361.036 132.393 364.699 132.222C375.093 131.737 385.488 131.368 395.904 131.056C406.386 130.742 420.556 130.13 435.388 129.744C448.116 130.144 460.838 130.594 473.568 130.975C478.939 131.135 484.311 131.268 489.68 131.431C491.887 131.497 497.566 131.776 498.389 131.672C499.029 131.591 499.183 131.332 499.221 131.202C499.261 131.062 499.237 130.887 498.946 130.72C498.856 130.667 498.586 130.558 498.033 130.468C483.063 128.046 458.55 128.084 435.592 128.669C430.653 128.513 425.715 128.365 420.775 128.231C409.467 127.923 398.034 127.615 386.535 127.371C418.94 126.919 451.361 127.049 483.791 127.376C497.407 127.514 534.109 128.344 548.564 129.078C548.387 129.18 548.283 129.323 548.296 129.478C548.32 129.775 548.768 130.006 549.295 129.992C552.277 129.914 554.002 129.814 554.685 129.712C555.11 129.648 555.342 129.547 555.449 129.48C555.712 129.32 555.761 129.148 555.709 128.985C555.676 128.883 555.595 128.772 555.408 128.669C555.283 128.599 554.979 128.492 554.46 128.418C548.778 127.62 500.038 126.461 483.825 126.297C440.983 125.865 398.158 125.777 355.366 126.916ZM486.444 130.255C478.072 129.613 468.258 129.387 458.02 129.402C463.235 129.573 468.452 129.74 473.67 129.896C477.927 130.024 482.186 130.134 486.444 130.255ZM315.881 128.31C304.898 128.767 293.926 129.261 282.946 129.808C281.678 129.871 280.412 129.933 279.144 129.993C291.287 129.153 303.555 128.619 315.881 128.31Z" fill="#FFB800"/>
<path d="M566.847 101.138C566.847 82.1994 582.199 66.8468 601.138 66.8468H948.279C967.218 66.8468 982.57 82.1994 982.57 101.138C982.57 120.076 967.218 135.429 948.279 135.429H601.138C582.199 135.429 566.847 120.076 566.847 101.138Z" stroke="url(#paint0_linear_1502_2458)" stroke-width="1.69337"/>
<path d="M369.153 35C369.153 16.1376 353.862 0.846687 335 0.846687H35C16.1377 0.846687 0.84668 16.1376 0.84668 35C0.84668 53.8624 16.1377 69.1533 35 69.1533H335C353.862 69.1533 369.153 53.8624 369.153 35Z" stroke="url(#paint1_linear_1502_2458)" stroke-width="1.69337"/>
<defs>
<linearGradient id="paint0_linear_1502_2458" x1="983.417" y1="136.698" x2="746.768" y2="136.698" gradientUnits="userSpaceOnUse">
<stop/>
<stop offset="1" stop-opacity="0"/>
</linearGradient>
<linearGradient id="paint1_linear_1502_2458" x1="329.029" y1="22.2468" x2="538.796" y2="22.2468" gradientUnits="userSpaceOnUse">
<stop/>
<stop offset="1" stop-opacity="0"/>
</linearGradient>
</defs>
</svg>
